<?xml version="1.0" encoding="utf-8"?>
<!-- Generator: Adobe Illustrator 19.0.1, SVG Export Plug-In . SVG Version: 6.00 Build 0)  -->
<svg version="1.1" xmlns="http://www.w3.org/2000/svg" xmlns:xlink="http://www.w3.org/1999/xlink" x="0px" y="0px"
	 viewBox="0 0 395.7 310.6" style="enable-background:new 0 0 395.7 310.6;" xml:space="preserve">
<style type="text/css">
	.st0{fill:url(#SVGID_1_);stroke:#3A4445;stroke-miterlimit:10;}
	.st1{fill:url(#SVGID_2_);}
	.st2{fill:url(#SVGID_3_);stroke:#3A4445;stroke-miterlimit:10;}
	.st3{fill:url(#SVGID_4_);stroke:#3A4445;stroke-miterlimit:10;}
	.st4{fill:url(#SVGID_5_);stroke:#D88600;stroke-miterlimit:10;}
	.st5{fill:url(#SVGID_6_);}
	.st6{fill:url(#SVGID_7_);}
	.st7{fill:url(#SVGID_8_);stroke:#D88600;stroke-miterlimit:10;}
	.st8{fill:url(#SVGID_9_);}
	.st9{fill:url(#SVGID_10_);}
	.st10{fill:url(#SVGID_11_);stroke:#3A4445;stroke-miterlimit:10;}
	.st11{fill:url(#SVGID_12_);stroke:#D88600;stroke-miterlimit:10;}
	.st12{fill:url(#SVGID_13_);}
	.st13{fill:url(#SVGID_14_);}
	.st14{fill:url(#SVGID_15_);stroke:#D88600;stroke-miterlimit:10;}
	.st15{fill:url(#SVGID_16_);}
	.st16{fill:url(#SVGID_17_);}
	.st17{fill:url(#SVGID_18_);stroke:#D88600;stroke-miterlimit:10;}
	.st18{fill:url(#SVGID_19_);}
	.st19{fill:url(#SVGID_20_);stroke:#D88600;stroke-miterlimit:10;}
	.st20{fill:url(#SVGID_21_);stroke:#3A4445;stroke-miterlimit:10;}
	.st21{fill:url(#SVGID_22_);stroke:#3A4445;stroke-miterlimit:10;}
	.st22{fill:url(#SVGID_23_);stroke:#3A4445;stroke-miterlimit:10;}
	.st23{fill:url(#SVGID_24_);stroke:#3A4445;stroke-miterlimit:10;}
	.st24{fill:url(#SVGID_25_);stroke:#3A4445;stroke-miterlimit:10;}
	.st25{fill:url(#SVGID_26_);stroke:#3A4445;stroke-miterlimit:10;}
	.st26{fill:url(#SVGID_27_);stroke:#3A4445;stroke-miterlimit:10;}
	.st27{fill:url(#SVGID_28_);stroke:#D88600;stroke-miterlimit:10;}
	.st28{fill:url(#SVGID_29_);}
	.st29{fill:url(#SVGID_30_);}
	.st30{fill:url(#SVGID_31_);stroke:#3A4445;stroke-miterlimit:10;}
	.st31{fill:url(#SVGID_32_);stroke:#D88600;stroke-miterlimit:10;}
	.st32{fill:url(#SVGID_33_);stroke:#D88600;stroke-miterlimit:10;}
	.st33{fill:url(#SVGID_34_);stroke:#D88600;stroke-miterlimit:10;}
	.st34{fill:#262626;}
	.st35{fill:url(#SVGID_35_);stroke:#D88600;stroke-miterlimit:10;}
	.st36{fill:url(#SVGID_36_);stroke:#D88600;stroke-miterlimit:10;}
	.st37{fill:url(#SVGID_37_);stroke:#D88600;stroke-miterlimit:10;}
	.st38{fill:url(#SVGID_38_);}
	.st39{fill:url(#SVGID_39_);stroke:#3A4445;stroke-miterlimit:10;}
	.st40{fill:url(#SVGID_40_);stroke:#3A4445;stroke-miterlimit:10;}
	.st41{fill:url(#SVGID_41_);stroke:#D88600;stroke-miterlimit:10;}
	.st42{fill:url(#SVGID_42_);stroke:#212121;stroke-miterlimit:10;}
	.st43{fill:url(#SVGID_43_);stroke:#3A4445;stroke-miterlimit:10;}
	.st44{fill:#7E8887;stroke:#505E5F;stroke-miterlimit:10;}
	.st45{fill:url(#SVGID_44_);stroke:#212121;stroke-miterlimit:10;}
	.st46{fill:url(#SVGID_45_);stroke:#3A4445;stroke-miterlimit:10;}
	.st47{fill:url(#SVGID_46_);stroke:#D88600;stroke-miterlimit:10;}
	.st48{fill:url(#SVGID_47_);stroke:#D88600;stroke-miterlimit:10;}
	.st49{fill:url(#SVGID_48_);stroke:#D88600;stroke-miterlimit:10;}
	.st50{fill:url(#SVGID_49_);stroke:#D88600;stroke-miterlimit:10;}
	.st51{fill:url(#SVGID_50_);}
	.st52{fill:url(#SVGID_51_);stroke:#D88600;stroke-miterlimit:10;}
	.st53{fill:url(#SVGID_52_);stroke:#3A4445;stroke-miterlimit:10;}
	.st54{fill:url(#SVGID_53_);stroke:#D88600;stroke-miterlimit:10;}
	.st55{fill:url(#SVGID_54_);}
	.st56{fill:url(#SVGID_55_);stroke:#D88600;stroke-miterlimit:10;}
	.st57{fill:url(#SVGID_56_);}
	.st58{fill:#AFBDBB;}
	.st59{fill:url(#SVGID_57_);stroke:#D88600;stroke-miterlimit:10;}
	.st60{fill:url(#SVGID_58_);stroke:#D88600;stroke-miterlimit:10;}
	.st61{fill:url(#SVGID_59_);}
	.st62{fill:url(#SVGID_60_);stroke:#D88600;stroke-miterlimit:10;}
	.st63{fill:url(#SVGID_61_);stroke:#D88600;stroke-miterlimit:10;}
	.st64{fill:url(#SVGID_62_);}
	.st65{fill:url(#SVGID_63_);stroke:#D88600;stroke-miterlimit:10;}
	.st66{fill:url(#SVGID_64_);stroke:#D88600;stroke-miterlimit:10;}
	.st67{fill:url(#SVGID_65_);}
	.st68{fill:url(#SVGID_66_);stroke:#D88600;stroke-miterlimit:10;}
	.st69{fill:url(#SVGID_67_);}
	.st70{fill:url(#SVGID_68_);}
	.st71{fill:url(#SVGID_69_);}
	.st72{fill:url(#SVGID_70_);stroke:#D88600;stroke-miterlimit:10;}
	.st73{fill:url(#SVGID_71_);}
	.st74{fill:url(#SVGID_72_);}
	.st75{fill:url(#SVGID_73_);}
	.st76{fill:url(#SVGID_74_);}
	.st77{fill:url(#SVGID_75_);}
	.st78{fill:url(#SVGID_76_);stroke:#D88600;stroke-miterlimit:10;}
	.st79{fill:url(#SVGID_77_);}
	.st80{fill:url(#SVGID_78_);}
	.st81{fill:url(#SVGID_79_);stroke:#D88600;stroke-miterlimit:10;}
	.st82{fill:url(#SVGID_80_);}
	.st83{fill:url(#SVGID_81_);}
	.st84{fill:url(#SVGID_82_);stroke:#D88600;stroke-miterlimit:10;}
	.st85{fill:url(#SVGID_83_);}
	.st86{fill:url(#SVGID_84_);stroke:#D88600;stroke-miterlimit:10;}
	.st87{fill:url(#SVGID_85_);stroke:#D88600;stroke-miterlimit:10;}
	.st88{fill:url(#SVGID_86_);stroke:#D88600;stroke-miterlimit:10;}
	.st89{fill:url(#SVGID_87_);}
	.st90{fill:url(#SVGID_88_);stroke:#D88600;stroke-miterlimit:10;}
	.st91{fill:url(#SVGID_89_);}
	.st92{fill:url(#SVGID_90_);stroke:#D88600;stroke-miterlimit:10;}
	.st93{fill:url(#SVGID_91_);stroke:#D88600;stroke-miterlimit:10;}
	.st94{fill:url(#SVGID_92_);}
	.st95{fill:url(#SVGID_93_);}
	.st96{fill:url(#SVGID_94_);}
	.st97{fill:url(#SVGID_95_);stroke:#3A4445;stroke-miterlimit:10;}
	.st98{fill:url(#SVGID_96_);stroke:#505E5F;stroke-miterlimit:10;}
	.st99{fill:url(#SVGID_97_);}
	.st100{fill:url(#SVGID_98_);}
	.st101{fill:url(#SVGID_99_);}
	.st102{fill:#FFFFFF;}
	.st103{fill:url(#SVGID_100_);stroke:#3A4445;stroke-miterlimit:10;}
	.st104{fill:url(#SVGID_101_);stroke:#3A4445;stroke-miterlimit:10;}
	.st105{fill:#8E9998;}
	.st106{fill:url(#SVGID_102_);stroke:#3A4445;stroke-miterlimit:10;}
	.st107{fill:url(#SVGID_103_);stroke:#3A4445;stroke-miterlimit:10;}
	.st108{fill:url(#SVGID_104_);stroke:#3A4445;stroke-miterlimit:10;}
	.st109{fill:url(#SVGID_105_);stroke:#3A4445;stroke-miterlimit:10;}
	.st110{fill:url(#SVGID_106_);stroke:#3A4445;stroke-miterlimit:10;}
	.st111{fill:#B1BFBE;}
	.st112{fill:url(#SVGID_107_);stroke:#3A4445;stroke-miterlimit:10;}
	.st113{fill:url(#SVGID_108_);stroke:#3A4445;stroke-miterlimit:10;}
	.st114{fill:url(#SVGID_109_);stroke:#3A4445;stroke-miterlimit:10;}
	.st115{fill:url(#SVGID_110_);stroke:#3A4445;stroke-miterlimit:10;}
	.st116{fill:url(#SVGID_111_);stroke:#3A4445;stroke-miterlimit:10;}
	.st117{fill:url(#SVGID_112_);stroke:#D88600;stroke-miterlimit:10;}
	.st118{fill:url(#SVGID_113_);stroke:#3A4445;stroke-miterlimit:10;}
	.st119{fill:url(#SVGID_114_);stroke:#D88600;stroke-miterlimit:10;}
	.st120{fill:url(#SVGID_115_);stroke:#D88600;stroke-miterlimit:10;}
	.st121{fill:url(#SVGID_116_);}
	.st122{fill:url(#SVGID_117_);stroke:#3A4445;stroke-miterlimit:10;}
	.st123{fill:url(#SVGID_118_);}
	.st124{fill:url(#SVGID_119_);stroke:#3A4445;stroke-miterlimit:10;}
	.st125{fill:url(#SVGID_120_);stroke:#D88600;stroke-miterlimit:10;}
	.st126{fill:url(#SVGID_121_);stroke:#D88600;stroke-miterlimit:10;}
	.st127{fill:url(#SVGID_122_);}
	.st128{fill:url(#SVGID_123_);stroke:#D88600;stroke-miterlimit:10;}
	.st129{fill:url(#SVGID_124_);stroke:#D88600;stroke-miterlimit:10;}
	.st130{fill:url(#SVGID_125_);stroke:#D88600;stroke-miterlimit:10;}
	.st131{fill:url(#SVGID_126_);}
	.st132{fill:url(#SVGID_127_);stroke:#3A4445;stroke-miterlimit:10;}
	.st133{fill:#BBC9C8;}
	.st134{fill:url(#SVGID_128_);}
	.st135{fill:url(#SVGID_129_);stroke:#D88600;stroke-miterlimit:10;}
	.st136{fill:url(#SVGID_130_);}
	.st137{fill:url(#SVGID_131_);}
	.st138{fill:url(#SVGID_132_);stroke:#D88600;stroke-miterlimit:10;}
	.st139{fill:url(#SVGID_133_);}
	.st140{fill:url(#SVGID_134_);stroke:#D88600;stroke-miterlimit:10;}
	.st141{fill:url(#SVGID_135_);}
	.st142{fill:url(#SVGID_136_);stroke:#D88600;stroke-miterlimit:10;}
	.st143{fill:url(#SVGID_137_);stroke:#D88600;stroke-miterlimit:10;}
	.st144{fill:url(#SVGID_138_);stroke:#D88600;stroke-miterlimit:10;}
	.st145{fill:url(#SVGID_139_);stroke:#D88600;stroke-miterlimit:10;}
	.st146{fill:url(#SVGID_140_);stroke:#D88600;stroke-miterlimit:10;}
	.st147{fill:url(#SVGID_141_);stroke:#D88600;stroke-miterlimit:10;}
	.st148{fill:url(#SVGID_142_);}
	.st149{fill:url(#SVGID_143_);stroke:#D88600;stroke-miterlimit:10;}
	.st150{fill:url(#SVGID_144_);}
	.st151{fill:url(#SVGID_145_);stroke:#D88600;stroke-miterlimit:10;}
	.st152{fill:url(#SVGID_146_);stroke:#D88600;stroke-miterlimit:10;}
	.st153{fill:url(#SVGID_147_);}
	.st154{fill:url(#SVGID_148_);}
	.st155{fill:url(#SVGID_149_);stroke:#D88600;stroke-miterlimit:10;}
	.st156{fill:url(#SVGID_150_);}
	.st157{fill:url(#SVGID_151_);stroke:#D88600;stroke-miterlimit:10;}
	.st158{fill:url(#SVGID_152_);}
	.st159{fill:url(#SVGID_153_);}
	.st160{fill:url(#SVGID_154_);}
	.st161{fill:url(#SVGID_155_);}
	.st162{fill:url(#SVGID_156_);}
	.st163{fill:url(#SVGID_157_);stroke:#D88600;stroke-miterlimit:10;}
	.st164{fill:url(#SVGID_158_);stroke:#D88600;stroke-miterlimit:10;}
	.st165{fill:url(#SVGID_159_);stroke:#D88600;stroke-miterlimit:10;}
	.st166{fill:url(#SVGID_160_);stroke:#D88600;stroke-miterlimit:10;}
	.st167{fill:url(#SVGID_161_);}
	.st168{fill:url(#SVGID_162_);stroke:#D88600;stroke-miterlimit:10;}
	.st169{fill:url(#SVGID_163_);}
	.st170{fill:url(#SVGID_164_);stroke:#D88600;stroke-miterlimit:10;}
	.st171{fill:url(#SVGID_165_);stroke:#212121;stroke-miterlimit:10;}
	.st172{fill:url(#SVGID_166_);stroke:#212121;stroke-miterlimit:10;}
	.st173{fill:url(#SVGID_167_);stroke:#D88600;stroke-miterlimit:10;}
	.st174{fill:url(#SVGID_168_);stroke:#D88600;stroke-miterlimit:10;}
	.st175{fill:url(#SVGID_169_);stroke:#D88600;stroke-miterlimit:10;}
	.st176{fill:url(#SVGID_170_);}
	.st177{fill:url(#SVGID_171_);stroke:#D88600;stroke-miterlimit:10;}
	.st178{fill:url(#SVGID_172_);stroke:#212121;stroke-miterlimit:10;}
	.st179{fill:url(#SVGID_173_);stroke:#D88600;stroke-miterlimit:10;}
	.st180{fill:url(#SVGID_174_);stroke:#212121;stroke-miterlimit:10;}
	.st181{fill:url(#SVGID_175_);stroke:#212121;stroke-miterlimit:10;}
	.st182{fill:url(#SVGID_176_);stroke:#D88600;stroke-miterlimit:10;}
	.st183{fill:url(#SVGID_177_);stroke:#212121;stroke-miterlimit:10;}
	.st184{fill:url(#SVGID_178_);stroke:#D88600;stroke-miterlimit:10;}
	.st185{fill:url(#SVGID_179_);stroke:#D88600;stroke-miterlimit:10;}
	.st186{fill:url(#SVGID_180_);}
	.st187{fill:url(#SVGID_181_);stroke:#D88600;stroke-miterlimit:10;}
	.st188{fill:url(#SVGID_182_);stroke:#D88600;stroke-miterlimit:10;}
	.st189{fill:url(#SVGID_183_);stroke:#D88600;stroke-miterlimit:10;}
	.st190{fill:url(#SVGID_184_);}
	.st191{fill:url(#SVGID_185_);}
	.st192{fill:url(#SVGID_186_);stroke:#3A4445;stroke-miterlimit:10;}
	.st193{fill:url(#SVGID_187_);stroke:#3A4445;stroke-miterlimit:10;}
	.st194{fill:url(#SVGID_188_);stroke:#D88600;stroke-miterlimit:10;}
	.st195{fill:url(#SVGID_189_);}
	.st196{fill:url(#SVGID_190_);stroke:#3A4445;stroke-miterlimit:10;}
	.st197{fill:url(#SVGID_191_);stroke:#D88600;stroke-miterlimit:10;}
	.st198{fill:url(#SVGID_192_);stroke:#D88600;stroke-miterlimit:10;}
	.st199{fill:url(#SVGID_193_);}
	.st200{fill:url(#SVGID_194_);stroke:#3A4445;stroke-miterlimit:10;}
	.st201{fill:url(#SVGID_195_);stroke:#D88600;stroke-miterlimit:10;}
	.st202{fill:url(#SVGID_196_);stroke:#D88600;stroke-miterlimit:10;}
	.st203{fill:url(#SVGID_197_);stroke:#D88600;stroke-miterlimit:10;}
	.st204{fill:url(#SVGID_198_);}
	.st205{fill:url(#SVGID_199_);stroke:#3A4445;stroke-miterlimit:10;}
	.st206{fill:url(#SVGID_200_);stroke:#D88600;stroke-miterlimit:10;}
	.st207{fill:url(#SVGID_201_);stroke:#212121;stroke-miterlimit:10;}
	.st208{fill:url(#SVGID_202_);stroke:#3A4445;stroke-miterlimit:10;}
	.st209{fill:url(#SVGID_203_);stroke:#D88600;stroke-miterlimit:10;}
	.st210{fill:url(#SVGID_204_);stroke:#3A4445;stroke-miterlimit:10;}
	.st211{fill:url(#SVGID_205_);stroke:#3A4445;stroke-miterlimit:10;}
	.st212{fill:url(#SVGID_206_);}
	.st213{fill:url(#SVGID_207_);stroke:#212121;stroke-miterlimit:10;}
	.st214{fill:url(#SVGID_208_);stroke:#3A4445;stroke-miterlimit:10;}
	.st215{fill:url(#SVGID_209_);stroke:#D88600;stroke-miterlimit:10;}
	.st216{fill:url(#SVGID_210_);}
	.st217{fill:url(#SVGID_211_);stroke:#D88600;stroke-linecap:round;stroke-linejoin:round;stroke-miterlimit:10;}
	.st218{fill:url(#SVGID_212_);}
	.st219{fill:url(#SVGID_213_);}
	.st220{fill:url(#SVGID_214_);stroke:#D88600;stroke-miterlimit:10;}
	.st221{fill:url(#SVGID_215_);}
	.st222{fill:#E69704;stroke:#D88600;stroke-linecap:round;stroke-linejoin:round;stroke-miterlimit:10;}
	.st223{fill:url(#SVGID_216_);stroke:#D88600;stroke-miterlimit:10;}
	.st224{fill:url(#SVGID_217_);}
	.st225{fill:url(#SVGID_218_);stroke:#D88600;stroke-miterlimit:10;}
	.st226{fill:url(#SVGID_219_);stroke:#D88600;stroke-miterlimit:10;}
	.st227{fill:url(#SVGID_220_);stroke:#D88600;stroke-miterlimit:10;}
	.st228{fill:url(#SVGID_221_);stroke:#D88600;stroke-miterlimit:10;}
	.st229{fill:url(#SVGID_222_);stroke:#3A4445;stroke-miterlimit:10;}
	.st230{fill:url(#SVGID_223_);stroke:#3A4445;stroke-miterlimit:10;}
	.st231{fill:url(#SVGID_224_);stroke:#3A4445;stroke-miterlimit:10;}
	.st232{fill:url(#SVGID_225_);stroke:#3A4445;stroke-miterlimit:10;}
	.st233{fill:url(#SVGID_226_);stroke:#3A4445;stroke-miterlimit:10;}
	.st234{fill:url(#SVGID_227_);stroke:#3A4445;stroke-miterlimit:10;}
	.st235{fill:url(#SVGID_228_);stroke:#3A4445;stroke-miterlimit:10;}
	.st236{fill:url(#SVGID_229_);stroke:#3A4445;stroke-miterlimit:10;}
	.st237{fill:url(#SVGID_230_);stroke:#3A4445;stroke-miterlimit:10;}
	.st238{fill:url(#SVGID_231_);stroke:#3A4445;stroke-miterlimit:10;}
	.st239{fill:url(#SVGID_232_);stroke:#3A4445;stroke-miterlimit:10;}
	.st240{fill:url(#SVGID_233_);stroke:#3A4445;stroke-miterlimit:10;}
	.st241{fill:url(#SVGID_234_);stroke:#3A4445;stroke-miterlimit:10;}
	.st242{fill:url(#SVGID_235_);stroke:#D88600;stroke-miterlimit:10;}
	.st243{fill:url(#SVGID_236_);stroke:#3A4445;stroke-miterlimit:10;}
	.st244{fill:url(#SVGID_237_);stroke:#3A4445;stroke-miterlimit:10;}
	.st245{fill:url(#SVGID_238_);stroke:#D88600;stroke-miterlimit:10;}
	.st246{fill:url(#SVGID_239_);}
	.st247{fill:url(#SVGID_240_);stroke:#D88600;stroke-miterlimit:10;}
	.st248{fill:url(#SVGID_241_);}
	.st249{fill:url(#SVGID_242_);stroke:#D88600;stroke-miterlimit:10;}
	.st250{fill:url(#SVGID_243_);}
	.st251{fill:url(#SVGID_244_);}
	.st252{fill:url(#SVGID_245_);stroke:#D88600;stroke-miterlimit:10;}
	.st253{fill:url(#SVGID_246_);stroke:#D88600;stroke-miterlimit:10;}
	.st254{fill:url(#SVGID_247_);}
	.st255{fill:url(#SVGID_248_);stroke:#D88600;stroke-miterlimit:10;}
	.st256{fill:url(#SVGID_249_);}
	.st257{fill:url(#SVGID_250_);}
	.st258{fill:url(#SVGID_251_);stroke:#D88600;stroke-miterlimit:10;}
	.st259{fill:url(#SVGID_252_);stroke:#D88600;stroke-miterlimit:10;}
	.st260{fill:url(#SVGID_253_);stroke:#D88600;stroke-miterlimit:10;}
	.st261{fill:url(#SVGID_254_);}
	.st262{fill:url(#SVGID_255_);stroke:#D88600;stroke-miterlimit:10;}
	.st263{fill:url(#SVGID_256_);}
	.st264{fill:url(#SVGID_257_);stroke:#D88600;stroke-miterlimit:10;}
	.st265{fill:url(#SVGID_258_);stroke:#D88600;stroke-miterlimit:10;}
	.st266{fill:url(#SVGID_259_);}
	.st267{fill:url(#SVGID_260_);stroke:#D88600;stroke-miterlimit:10;}
	.st268{fill:url(#SVGID_261_);stroke:#D88600;stroke-miterlimit:10;}
	.st269{fill:url(#SVGID_262_);stroke:#D88600;stroke-miterlimit:10;}
	.st270{fill:url(#SVGID_263_);}
	.st271{fill:url(#SVGID_264_);stroke:#D88600;stroke-miterlimit:10;}
	.st272{fill:url(#SVGID_265_);}
	.st273{fill:url(#SVGID_266_);stroke:#3A4445;stroke-miterlimit:10;}
	.st274{fill:url(#SVGID_267_);stroke:#3A4445;stroke-miterlimit:10;}
	.st275{fill:url(#SVGID_268_);stroke:#3A4445;stroke-miterlimit:10;}
	.st276{fill:url(#SVGID_269_);stroke:#3A4445;stroke-miterlimit:10;}
	.st277{fill:url(#SVGID_270_);stroke:#3A4445;stroke-miterlimit:10;}
	.st278{fill:url(#SVGID_271_);stroke:#3A4445;stroke-miterlimit:10;}
	.st279{fill:url(#SVGID_272_);stroke:#3A4445;stroke-miterlimit:10;}
	.st280{fill:url(#SVGID_273_);stroke:#3A4445;stroke-miterlimit:10;}
	.st281{fill:url(#SVGID_274_);stroke:#3A4445;stroke-miterlimit:10;}
	.st282{fill:url(#SVGID_275_);stroke:#3A4445;stroke-miterlimit:10;}
	.st283{fill:url(#SVGID_276_);stroke:#3A4445;stroke-miterlimit:10;}
	.st284{fill:url(#SVGID_277_);stroke:#3A4445;stroke-miterlimit:10;}
	.st285{fill:url(#SVGID_278_);stroke:#3A4445;stroke-miterlimit:10;}
	.st286{fill:#9CA8A7;}
	.st287{fill:none;stroke:#7E8887;stroke-width:2;stroke-miterlimit:10;}
	.st288{fill:#A1ADAC;}
	.st289{fill:#505E5F;}
	.st290{fill:url(#SVGID_279_);stroke:#D88600;stroke-miterlimit:10;}
	.st291{fill:url(#SVGID_280_);stroke:#D88600;stroke-miterlimit:10;}
	.st292{fill:url(#SVGID_281_);stroke:#D88600;stroke-miterlimit:10;}
	.st293{fill:url(#SVGID_282_);stroke:#D88600;stroke-miterlimit:10;}
	.st294{fill:url(#SVGID_283_);stroke:#D88600;stroke-miterlimit:10;}
	.st295{fill:url(#SVGID_284_);}
	.st296{fill:url(#SVGID_285_);}
	.st297{fill:url(#SVGID_286_);}
	.st298{fill:url(#SVGID_287_);}
	.st299{fill:url(#SVGID_288_);}
	.st300{fill:url(#SVGID_289_);}
	.st301{fill:url(#SVGID_290_);stroke:#D88600;stroke-miterlimit:10;}
	.st302{fill:url(#SVGID_291_);}
	.st303{fill:url(#SVGID_292_);stroke:#D88600;stroke-miterlimit:10;}
	.st304{fill:url(#SVGID_293_);stroke:#D88600;stroke-miterlimit:10;}
	.st305{fill:url(#SVGID_294_);}
	.st306{fill:url(#SVGID_295_);stroke:#D88600;stroke-miterlimit:10;}
	.st307{fill:url(#SVGID_296_);}
	.st308{fill:url(#SVGID_297_);stroke:#D88600;stroke-miterlimit:10;}
	.st309{fill:url(#SVGID_298_);}
	.st310{fill:url(#SVGID_299_);stroke:#D88600;stroke-miterlimit:10;}
	.st311{fill:url(#SVGID_300_);}
	.st312{fill:url(#SVGID_301_);stroke:#D88600;stroke-miterlimit:10;}
	.st313{fill:url(#SVGID_302_);}
	.st314{fill:url(#SVGID_303_);stroke:#D88600;stroke-miterlimit:10;}
	.st315{fill:url(#SVGID_304_);stroke:#D88600;stroke-miterlimit:10;}
	.st316{fill:url(#SVGID_305_);stroke:#D88600;stroke-miterlimit:10;}
	.st317{fill:url(#SVGID_306_);stroke:#D88600;stroke-miterlimit:10;}
</style>
<g id="Background">
</g>
<g id="Objects">
	<g>
		<g>
			<path class="st44" d="M191.2,310.6c-7.4,0-13.4-6-13.4-13.4c0-7.4,6-13.4,13.4-13.4h130.7c7.4,0,13.4,6,13.4,13.4
				c0,7.4-6,13.4-13.4,13.4H191.2z"/>
			<path class="st34" d="M332.7,297.2c0,6-4.8,10.8-10.8,10.8H191.2c-6,0-10.8-4.8-10.8-10.8l0,0c0-6,4.8-10.8,10.8-10.8h130.7
				C327.9,286.4,332.7,291.2,332.7,297.2L332.7,297.2z"/>
			<g>
				<g>
					<linearGradient id="SVGID_1_" gradientUnits="userSpaceOnUse" x1="203.3691" y1="294.7234" x2="309.2853" y2="294.7234">
						<stop  offset="0" style="stop-color:#68706F"/>
						<stop  offset="1" style="stop-color:#8F9998"/>
					</linearGradient>
					<rect x="203.4" y="288.5" class="st0" width="105.9" height="12.4"/>
					<g>
						<linearGradient id="SVGID_2_" gradientUnits="userSpaceOnUse" x1="201.5493" y1="294.4858" x2="208.3737" y2="294.4858">
							<stop  offset="0" style="stop-color:#68706F"/>
							<stop  offset="1" style="stop-color:#8F9998"/>
						</linearGradient>
						<rect x="201.5" y="286.5" style="fill:url(#SVGID_2_);stroke:#3A4445;stroke-miterlimit:10;" width="6.8" height="15.9"/>
						<linearGradient id="SVGID_3_" gradientUnits="userSpaceOnUse" x1="304.5082" y1="294.4858" x2="311.3326" y2="294.4858">
							<stop  offset="0" style="stop-color:#68706F"/>
							<stop  offset="1" style="stop-color:#8F9998"/>
						</linearGradient>
						<rect x="304.5" y="286.5" class="st2" width="6.8" height="15.9"/>
						<linearGradient id="SVGID_4_" gradientUnits="userSpaceOnUse" x1="270.1885" y1="294.4858" x2="277.0129" y2="294.4858">
							<stop  offset="0" style="stop-color:#68706F"/>
							<stop  offset="1" style="stop-color:#8F9998"/>
						</linearGradient>
						<rect x="270.2" y="286.5" class="st3" width="6.8" height="15.9"/>
						<linearGradient id="SVGID_5_" gradientUnits="userSpaceOnUse" x1="235.8689" y1="294.4858" x2="242.6933" y2="294.4858">
							<stop  offset="0" style="stop-color:#68706F"/>
							<stop  offset="1" style="stop-color:#8F9998"/>
						</linearGradient>
						<rect x="235.9" y="286.5" style="fill:url(#SVGID_5_);stroke:#3A4445;stroke-miterlimit:10;" width="6.8" height="15.9"/>
					</g>
				</g>
				<linearGradient id="SVGID_6_" gradientUnits="userSpaceOnUse" x1="181.986" y1="297.1548" x2="201.0943" y2="297.1548">
					<stop  offset="0" style="stop-color:#68706F"/>
					<stop  offset="1" style="stop-color:#8F9998"/>
				</linearGradient>
				<circle style="fill:url(#SVGID_6_);stroke:#3A4445;stroke-miterlimit:10;" cx="191.5" cy="297.2" r="9.6"/>
				<linearGradient id="SVGID_7_" gradientUnits="userSpaceOnUse" x1="311.8634" y1="297.1548" x2="330.9717" y2="297.1548">
					<stop  offset="0" style="stop-color:#68706F"/>
					<stop  offset="1" style="stop-color:#8F9998"/>
				</linearGradient>
				<circle style="fill:url(#SVGID_7_);stroke:#3A4445;stroke-miterlimit:10;" cx="321.4" cy="297.2" r="9.6"/>
				<g>
					<linearGradient id="SVGID_8_" gradientUnits="userSpaceOnUse" x1="200.2868" y1="302.516" x2="312.9015" y2="302.516">
						<stop  offset="0" style="stop-color:#68706F"/>
						<stop  offset="1" style="stop-color:#8F9998"/>
					</linearGradient>
					<rect x="200.3" y="300.3" style="fill:url(#SVGID_8_);stroke:#3A4445;stroke-miterlimit:10;" width="112.6" height="4.5"/>
					<g>
						<linearGradient id="SVGID_9_" gradientUnits="userSpaceOnUse" x1="208.7589" y1="302.6911" x2="213.4115" y2="302.6911">
							<stop  offset="0" style="stop-color:#68706F"/>
							<stop  offset="1" style="stop-color:#8F9998"/>
						</linearGradient>
						<rect x="208.8" y="299.5" style="fill:url(#SVGID_9_);stroke:#3A4445;stroke-miterlimit:10;" width="4.7" height="6.3"/>
						<linearGradient id="SVGID_10_" gradientUnits="userSpaceOnUse" x1="231.6554" y1="302.6911" x2="236.3081" y2="302.6911">
							<stop  offset="0" style="stop-color:#68706F"/>
							<stop  offset="1" style="stop-color:#8F9998"/>
						</linearGradient>
						<rect x="231.7" y="299.5" style="fill:url(#SVGID_10_);stroke:#3A4445;stroke-miterlimit:10;" width="4.7" height="6.3"/>
						<linearGradient id="SVGID_11_" gradientUnits="userSpaceOnUse" x1="254.5519" y1="302.6911" x2="259.2046" y2="302.6911">
							<stop  offset="0" style="stop-color:#68706F"/>
							<stop  offset="1" style="stop-color:#8F9998"/>
						</linearGradient>
						<rect x="254.6" y="299.5" class="st10" width="4.7" height="6.3"/>
						<linearGradient id="SVGID_12_" gradientUnits="userSpaceOnUse" x1="277.4485" y1="302.6911" x2="282.1011" y2="302.6911">
							<stop  offset="0" style="stop-color:#68706F"/>
							<stop  offset="1" style="stop-color:#8F9998"/>
						</linearGradient>
						<rect x="277.4" y="299.5" style="fill:url(#SVGID_12_);stroke:#3A4445;stroke-miterlimit:10;" width="4.7" height="6.3"/>
						<linearGradient id="SVGID_13_" gradientUnits="userSpaceOnUse" x1="300.345" y1="302.6911" x2="304.9977" y2="302.6911">
							<stop  offset="0" style="stop-color:#68706F"/>
							<stop  offset="1" style="stop-color:#8F9998"/>
						</linearGradient>
						<rect x="300.3" y="299.5" style="fill:url(#SVGID_13_);stroke:#3A4445;stroke-miterlimit:10;" width="4.7" height="6.3"/>
					</g>
				</g>
				<rect x="190.6" y="291.9" class="st44" width="132.8" height="10.1"/>
				<rect x="192.1" y="292.9" class="st286" width="129.9" height="4.2"/>
				<g>
					<rect x="201.8" y="295.7" class="st34" width="9.5" height="2.7"/>
					<rect x="300.8" y="295.7" class="st34" width="9.5" height="2.7"/>
					<rect x="276" y="295.7" class="st34" width="9.5" height="2.7"/>
					<rect x="251.3" y="295.7" class="st34" width="9.5" height="2.7"/>
					<rect x="226.5" y="295.7" class="st34" width="9.5" height="2.7"/>
				</g>
				<circle class="st44" cx="321.4" cy="297.2" r="5.5"/>
				<circle class="st44" cx="191.5" cy="297.2" r="5.5"/>
			</g>
		</g>
		<g>
			<polyline class="st287" points="359,148.4 50.4,4.9 8.5,17.3 8.5,92.1 			"/>
		</g>
		
			<rect x="309.3" y="128.2" transform="matrix(0.6708 0.7416 -0.7416 0.6708 244.9808 -167.3209)" class="st44" width="3.4" height="128.1"/>
		<rect x="357.2" y="147.8" class="st44" width="5.9" height="111.3"/>
		<g>
			<g>
				<rect x="356.9" y="220.6" class="st44" width="38.8" height="54.3"/>
				<rect x="356.9" y="235.6" class="st44" width="38.8" height="39.4"/>
				<rect x="356.9" y="253.4" class="st44" width="38.8" height="21.6"/>
				<rect x="358.7" y="255.7" class="st288" width="34.9" height="5.8"/>
				<rect x="358.7" y="238" class="st288" width="34.9" height="5.8"/>
				<rect x="358.7" y="222.5" class="st288" width="34.9" height="5.8"/>
			</g>
			<g>
				<rect x="365.3" y="236.3" class="st289" width="6.5" height="3"/>
				<rect x="380.5" y="236.3" class="st289" width="6.5" height="3"/>
				<rect x="357.1" y="235.6" class="st289" width="38.5" height="1.6"/>
			</g>
			<g>
				<rect x="365.3" y="221.3" class="st289" width="6.5" height="3"/>
				<rect x="380.5" y="221.3" class="st289" width="6.5" height="3"/>
				<rect x="357.1" y="220.6" class="st289" width="38.5" height="1.6"/>
			</g>
			<g>
				<rect x="365.3" y="254" class="st289" width="6.5" height="3"/>
				<rect x="380.5" y="254" class="st289" width="6.5" height="3"/>
				<rect x="357.1" y="253.4" class="st289" width="38.5" height="1.6"/>
			</g>
		</g>
		<g>
			
				<linearGradient id="SVGID_14_" gradientUnits="userSpaceOnUse" x1="-1374.9207" y1="2754.6504" x2="-1315.1083" y2="2754.6504" gradientTransform="matrix(-0.6053 -0.796 0.796 -0.6053 -2771.9382 810.971)">
				<stop  offset="0" style="stop-color:#FFA901"/>
				<stop  offset="1" style="stop-color:#FFC71E"/>
			</linearGradient>
			<path style="fill:url(#SVGID_14_);stroke:#D88600;stroke-miterlimit:10;" d="M256.6,235.3c-10.7-7.9-37.2-28.6-42.7-32.9
				c-5.5-4.3-4.7-4.9-4.1-6.3c0.5-1.3,1.3-1.8,9.4,3.8c6.8,4.7,41.1,30.7,41.1,30.7"/>
			<path class="st44" d="M203.7,193.6c-7.9-5.5-30.7-24.9-30.7-24.9l2.4-1.8c0,0,31.3,23.3,31.7,23.6
				C207.5,190.8,203.7,193.6,203.7,193.6z"/>
			
				<linearGradient id="SVGID_15_" gradientUnits="userSpaceOnUse" x1="-1274.6268" y1="2735.6636" x2="-1266.894" y2="2735.6636" gradientTransform="matrix(-0.6053 -0.796 0.796 -0.6053 -2771.9382 810.971)">
				<stop  offset="0" style="stop-color:#FFA901"/>
				<stop  offset="1" style="stop-color:#FFC71E"/>
			</linearGradient>
			<path class="st14" d="M171.1,169.3c-1.3-1.7-0.6-4.3,1.4-5.9s4.7-1.3,6,0.4c1.3,1.7,0.6,4.3-1.4,5.9
				C175.1,171.2,172.4,171.1,171.1,169.3z"/>
			
				<linearGradient id="SVGID_16_" gradientUnits="userSpaceOnUse" x1="-1317.8096" y1="2745.0347" x2="-1306.5181" y2="2745.0347" gradientTransform="matrix(-0.6053 -0.796 0.796 -0.6053 -2771.9382 810.971)">
				<stop  offset="0" style="stop-color:#FFA901"/>
				<stop  offset="1" style="stop-color:#FFC71E"/>
			</linearGradient>
			<path style="fill:url(#SVGID_16_);stroke:#D88600;stroke-miterlimit:10;" d="M211.5,197.2c1.6-1.8,2.2-2.9,0.2-4.8
				c-2.1-1.9-5.5-5.7-6.8-3.6c-1.4,2.1-3.7,4.7-2.1,6.3s6,5.1,7.1,4C211,197.9,211.5,197.2,211.5,197.2z"/>
			
				<linearGradient id="SVGID_17_" gradientUnits="userSpaceOnUse" x1="-1380.425" y1="2762.7136" x2="-1370.9175" y2="2762.7136" gradientTransform="matrix(-0.6053 -0.796 0.796 -0.6053 -2771.9382 810.971)">
				<stop  offset="0" style="stop-color:#FFA901"/>
				<stop  offset="1" style="stop-color:#FFC71E"/>
			</linearGradient>
			<circle style="fill:url(#SVGID_17_);stroke:#D88600;stroke-miterlimit:10;" cx="259.9" cy="233.7" r="4.8"/>
			<circle class="st44" cx="259.9" cy="233.7" r="2.5"/>
		</g>
		<g>
			<linearGradient id="SVGID_18_" gradientUnits="userSpaceOnUse" x1="55.7365" y1="140.3328" x2="195.4296" y2="140.3328">
				<stop  offset="0" style="stop-color:#FFA901"/>
				<stop  offset="1" style="stop-color:#FFC71E"/>
			</linearGradient>
			<path class="st17" d="M194.4,199c-0.9-0.8-2.1-1.1-3.2-0.7l-17.9,5.8l7-27.4c0.3-1.1,0-2.3-0.9-3.1c-0.8-0.8-2-1.1-3.1-0.8
				l-25.9,7.5l9.2-41.4l-1-0.2c0-0.4-0.2-0.8-0.4-1.2c-0.7-1.3-2.1-1.9-3.5-1.6l-37.3,8.8l12.9-38.8c0.4-1.1,0.1-2.3-0.7-3.2
				c-0.8-0.9-2-1.2-3.1-1l-32.6,7.8l6.5-34.2c0.2-1.2-0.2-2.3-1.1-3.1c-0.9-0.7-2.2-0.9-3.2-0.5l-20.1,8.1l4.5-22.3
				c0.2-1-0.1-2-0.7-2.8C79,54.3,78,53.9,77,54l-21.3,1.4l0.4,6.4l17.1-1.1l-4.9,24c-0.2,1.2,0.2,2.4,1.1,3.1c0.9,0.8,2.2,1,3.3,0.5
				l20.2-8.2l-6.3,33.3c-0.2,1.1,0.2,2.2,0.9,2.9c0.8,0.8,1.9,1.1,3,0.8l31.8-7.7l-12.9,38.7c-0.4,1.1-0.1,2.3,0.7,3.2
				c0.8,0.9,2,1.2,3.1,1l32-7.5l-19.7,19.9l4.6,4.5l20.9-21.1l-8,36.2c-0.2,1.1,0.1,2.3,0.9,3c0.8,0.8,2,1.1,3.1,0.7l25.7-7.4
				l-7.1,27.6c-0.3,1.1,0.1,2.3,0.9,3.1c0.9,0.8,2.1,1.1,3.2,0.7l18-5.9l-4.6,19l6.2,1.5l6-24.6C195.6,201,195.3,199.8,194.4,199z"
				/>
			<g>
				<linearGradient id="SVGID_19_" gradientUnits="userSpaceOnUse" x1="62.4216" y1="61.5345" x2="80.4575" y2="61.5345">
					<stop  offset="0" style="stop-color:#D88600;stop-opacity:0.7047"/>
					<stop  offset="1" style="stop-color:#D88600;stop-opacity:0.4615"/>
				</linearGradient>
				<path class="st18" d="M78.1,69.1l2.3-11.3c0.2-1-0.1-2-0.7-2.8C79,54.3,78,53.9,77,54l-14.6,0.9c1.8,1.6,4.1,3.6,6.7,6l4.1-0.3
					l-0.7,3.4C74.3,65.6,76.2,67.3,78.1,69.1z"/>
				<linearGradient id="SVGID_20_" gradientUnits="userSpaceOnUse" x1="183.2808" y1="206.9364" x2="195.4296" y2="206.9364">
					<stop  offset="0" style="stop-color:#D88600;stop-opacity:0.7047"/>
					<stop  offset="1" style="stop-color:#D88600;stop-opacity:0.4615"/>
				</linearGradient>
				<path style="fill:url(#SVGID_20_);" d="M191.2,198.3l-7.9,2.6c1.1,2,2.3,3.9,3.3,5.7l1.1-0.4l-0.4,1.6c1.7,2.9,3.3,5.6,4.7,7.9
					l3.3-13.6c0.3-1.1-0.1-2.3-0.9-3.1C193.5,198.2,192.3,197.9,191.2,198.3z"/>
				<linearGradient id="SVGID_21_" gradientUnits="userSpaceOnUse" x1="85.6721" y1="79.7011" x2="100.3934" y2="79.7011">
					<stop  offset="0" style="stop-color:#D88600;stop-opacity:0.7047"/>
					<stop  offset="1" style="stop-color:#D88600;stop-opacity:0.4615"/>
				</linearGradient>
				<path style="fill:url(#SVGID_21_);" d="M98,87.7l2.3-12.2c0.2-1.2-0.2-2.3-1.1-3.1c-0.9-0.7-2.2-0.9-3.2-0.5l-10.3,4.2
					c1.7,1.6,3.4,3.2,5.2,4.8l2.1-0.8l-0.4,2.4C94.3,84.2,96.2,85.9,98,87.7z"/>
				<linearGradient id="SVGID_22_" gradientUnits="userSpaceOnUse" x1="168.6657" y1="181.3288" x2="180.4092" y2="181.3288">
					<stop  offset="0" style="stop-color:#D88600;stop-opacity:0.7047"/>
					<stop  offset="1" style="stop-color:#D88600;stop-opacity:0.4615"/>
				</linearGradient>
				<path style="fill:url(#SVGID_22_);" d="M176.9,189.9l3.4-13.1c0.3-1.1,0-2.3-0.9-3.1c-0.8-0.8-2-1.1-3.1-0.8l-7.6,2.2
					c1,1.8,2,3.7,3.2,5.8l0.8-0.2l-0.3,1.2C173.8,184.4,175.4,187.1,176.9,189.9z"/>
				<linearGradient id="SVGID_23_" gradientUnits="userSpaceOnUse" x1="115.4506" y1="108.9631" x2="130.4334" y2="108.9631">
					<stop  offset="0" style="stop-color:#D88600;stop-opacity:0.7047"/>
					<stop  offset="1" style="stop-color:#D88600;stop-opacity:0.4615"/>
				</linearGradient>
				<path style="fill:url(#SVGID_23_);" d="M126.9,116.2l3.4-10.2c0.4-1.1,0.1-2.3-0.7-3.2c-0.8-0.9-2-1.2-3.1-1l-11,2.7
					c1.9,1.8,3.6,3.6,5.3,5.3l1.6-0.4l-0.5,1.5C123.7,112.8,125.4,114.5,126.9,116.2z"/>
				<linearGradient id="SVGID_24_" gradientUnits="userSpaceOnUse" x1="144.1533" y1="145.3851" x2="159.5781" y2="145.3851">
					<stop  offset="0" style="stop-color:#D88600;stop-opacity:0.7047"/>
					<stop  offset="1" style="stop-color:#D88600;stop-opacity:0.4615"/>
				</linearGradient>
				<path style="fill:url(#SVGID_24_);" d="M158.2,137.5c-0.7-1.3-2.1-1.9-3.5-1.6l-10.5,2.5c3.9,5.2,8,10.8,11.9,16.4l3.5-15.9
					l-1-0.2C158.5,138.3,158.4,137.9,158.2,137.5z"/>
			</g>
			<g>
				<linearGradient id="SVGID_25_" gradientUnits="userSpaceOnUse" x1="26.1329" y1="132.6768" x2="216.5933" y2="132.6768">
					<stop  offset="0" style="stop-color:#FFA901"/>
					<stop  offset="1" style="stop-color:#FFC71E"/>
				</linearGradient>
				<path style="fill:url(#SVGID_25_);stroke:#D88600;stroke-miterlimit:10;" d="M210.9,252.6C210.9,252.6,210.9,252.6,210.9,252.6
					c-3.2,0-8.4-2.1-22.6-17.4c-15.5-16.9-28.9-30.4-40.6-42.4c-17-17.3-29.2-29.7-37.9-41.7C95.5,131.3,29.4,22.3,26.6,17.6
					c-0.8-1.3-0.5-3,0.6-4.1c1.2-1,2.9-1.1,4.1-0.1c0.2,0.2,19.7,15.7,46.9,39.6c35.7,31.5,44.6,41.8,60.7,60.4
					c5.4,6.3,11.6,13.4,19.9,22.6c0.2,0.2,0.3,0.4,0.4,0.6c0.3,0.5,29.6,54.6,51.1,86.4c0.1,0.2,0.2,0.3,0.3,0.5
					c2.6,6.2,8.4,21.2,4.9,26.6C214.5,251.8,212.8,252.6,210.9,252.6z M41.8,30.3c19.5,32,62.3,101.9,73.2,117
					c8.4,11.6,20.5,23.9,37.3,41c11.8,12,25.1,25.6,40.7,42.5c11,11.9,15.6,14.6,17.2,15.2c0.3-3-2-11.5-5.4-19.5
					c-20.7-30.7-48.5-81.7-51-86.3c-8.2-9.1-14.3-16.2-19.7-22.4C118.2,99.3,109.4,89.1,74,57.9C61.1,46.5,50,37.1,41.8,30.3z"/>
			</g>
			<linearGradient id="SVGID_26_" gradientUnits="userSpaceOnUse" x1="70.397" y1="228.7513" x2="41.7303" y2="274.0848">
				<stop  offset="0" style="stop-color:#FFE926"/>
				<stop  offset="1" style="stop-color:#FFE926;stop-opacity:0.3"/>
			</linearGradient>
			<path style="fill:url(#SVGID_26_);" d="M51.9,32.6C61.5,40.7,95.3,69,103.6,77c8.3,8.1,27.1,29.3,35.7,38.7
				c9.5,10.4,9.7,11.3,18.1,20.4c0,0,14.3,25.9,17.4,31.3c3.1,5.5,34.5,57.1,34.5,57.1l1.8,7l-2.6-1.3l-0.3-5.2l-36.1-59.2
				l-16.5-29.3L101.5,77L51.9,32.6z"/>
			<g>
				<linearGradient id="SVGID_27_" gradientUnits="userSpaceOnUse" x1="5.7013" y1="11.3951" x2="57.1193" y2="11.3951">
					<stop  offset="0" style="stop-color:#FFA901"/>
					<stop  offset="1" style="stop-color:#FFC71E"/>
				</linearGradient>
				<path style="fill:url(#SVGID_27_);stroke:#D88600;stroke-miterlimit:10;" d="M17.1,22.8c-6.3,0-11.4-5.1-11.4-11.4
					S10.8,0,17.1,0h28.6C52,0,57.1,5.1,57.1,11.4S52,22.8,45.7,22.8H17.1z"/>
				<path class="st34" d="M52.8,11.4c0,3.9-3.2,7.1-7.1,7.1H17.1c-3.9,0-7.1-3.2-7.1-7.1l0,0c0-3.9,3.2-7.1,7.1-7.1h28.6
					C49.7,4.3,52.8,7.5,52.8,11.4L52.8,11.4z"/>
			</g>
		</g>
		<g>
			
				<linearGradient id="SVGID_28_" gradientUnits="userSpaceOnUse" x1="-2414.8804" y1="266.1571" x2="-2414.8804" y2="235.9189" gradientTransform="matrix(-1 0 0 1 -2110.3445 0)">
				<stop  offset="0" style="stop-color:#FFA901"/>
				<stop  offset="1" style="stop-color:#FFC71E"/>
			</linearGradient>
			<rect x="251.8" y="229.1" class="st27" width="105.6" height="43.2"/>
			<linearGradient id="SVGID_29_" gradientUnits="userSpaceOnUse" x1="287.8852" y1="336.9503" x2="264.6983" y2="373.618">
				<stop  offset="0" style="stop-color:#FFE926"/>
				<stop  offset="1" style="stop-color:#FFE926;stop-opacity:0.3"/>
			</linearGradient>
			<rect x="346.3" y="230.3" class="st28" width="8.8" height="14.5"/>
			
				<linearGradient id="SVGID_30_" gradientUnits="userSpaceOnUse" x1="-2408.3726" y1="266.1571" x2="-2408.3726" y2="235.9189" gradientTransform="matrix(-1 0 0 1 -2110.3445 0)">
				<stop  offset="0" style="stop-color:#FFA901"/>
				<stop  offset="1" style="stop-color:#FFC71E"/>
			</linearGradient>
			<rect x="251.8" y="229.1" style="fill:url(#SVGID_30_);stroke:#D88600;stroke-miterlimit:10;" width="92.6" height="43.2"/>
			<linearGradient id="SVGID_31_" gradientUnits="userSpaceOnUse" x1="279.5168" y1="324.5479" x2="257.6302" y2="359.1593">
				<stop  offset="0" style="stop-color:#FFE926"/>
				<stop  offset="1" style="stop-color:#FFE926;stop-opacity:0.3"/>
			</linearGradient>
			<rect x="326.3" y="230.3" style="fill:url(#SVGID_31_);" width="16.5" height="14.5"/>
			
				<linearGradient id="SVGID_32_" gradientUnits="userSpaceOnUse" x1="-2398.2493" y1="266.1571" x2="-2398.2493" y2="235.9189" gradientTransform="matrix(-1 0 0 1 -2110.3445 0)">
				<stop  offset="0" style="stop-color:#FFA901"/>
				<stop  offset="1" style="stop-color:#FFC71E"/>
			</linearGradient>
			<rect x="251.8" y="229.1" class="st31" width="72.3" height="43.2"/>
			<linearGradient id="SVGID_33_" gradientUnits="userSpaceOnUse" x1="260.61" y1="317.3134" x2="237.8524" y2="353.3023">
				<stop  offset="0" style="stop-color:#FFE926"/>
				<stop  offset="1" style="stop-color:#FFE926;stop-opacity:0.3"/>
			</linearGradient>
			<rect x="299.7" y="230.3" style="fill:url(#SVGID_33_);" width="22.6" height="14.5"/>
			
				<linearGradient id="SVGID_34_" gradientUnits="userSpaceOnUse" x1="-2385.2339" y1="266.1571" x2="-2385.2339" y2="235.9189" gradientTransform="matrix(-1 0 0 1 -2110.3445 0)">
				<stop  offset="0" style="stop-color:#FFA901"/>
				<stop  offset="1" style="stop-color:#FFC71E"/>
			</linearGradient>
			<rect x="251.8" y="229.1" class="st33" width="46.3" height="43.2"/>
			<linearGradient id="SVGID_35_" gradientUnits="userSpaceOnUse" x1="235.4655" y1="300.211" x2="213.1095" y2="335.5648">
				<stop  offset="0" style="stop-color:#FFE926"/>
				<stop  offset="1" style="stop-color:#FFE926;stop-opacity:0.3"/>
			</linearGradient>
			<rect x="253.8" y="230.3" style="fill:url(#SVGID_35_);" width="42.6" height="14.5"/>
			<rect x="248.3" y="256.5" class="st34" width="108.1" height="5.7"/>
			
				<linearGradient id="SVGID_36_" gradientUnits="userSpaceOnUse" x1="-2540.8726" y1="299.0615" x2="-2540.8726" y2="235.0388" gradientTransform="matrix(-1 0 0 1 -2322.0928 0)">
				<stop  offset="0" style="stop-color:#FFA901"/>
				<stop  offset="1" style="stop-color:#FFC71E"/>
			</linearGradient>
			<path class="st36" d="M185,270c0-20.4,12.1-37.5,28.4-42.2c2.4-0.7,26.4-1.1,35.4-1.2c1.6,0,3.3,2,3.3,5.1
				c0.1,11.5,0.3,38.2,0.3,38.2H185z"/>
			<linearGradient id="SVGID_37_" gradientUnits="userSpaceOnUse" x1="206.3866" y1="275.1674" x2="191.2718" y2="299.0699">
				<stop  offset="0" style="stop-color:#FFE926"/>
				<stop  offset="1" style="stop-color:#FFE926;stop-opacity:0.3"/>
			</linearGradient>
			<path style="fill:url(#SVGID_37_);" d="M250.4,232.6c-0.1-2.8-0.7-3.9-2.6-4.1c-1.9-0.1-9.1-0.1-18.7,0.4
				c-9.2,0.6-16.8,0.6-19.9,2.2v0.3l22.2,11.5l19.7,1C251.1,244,250.6,235.4,250.4,232.6z"/>
			<g>
				<path class="st44" d="M217.9,258.8c9.5-4,12-7.5,12-9.2c0-1.7,0-7.5,0-11.5s-1-5.2-3-5.2c-2,0-6.2,0-14.4,0
					c-5.3,0-9.7,1.4-13.8,3.6c-7.7,7.4-12.8,18.3-13.5,30.6C196.4,266.3,210.2,262,217.9,258.8z"/>
				<path class="st34" d="M186.9,256.7c-0.8,2.8-1.3,5.7-1.6,8.6c10.4-1.1,24.5-4.8,32-8c0.6-0.2,1.1-0.5,1.6-0.7H186.9z"/>
				<g>
					<path class="st34" d="M226.9,234.4h-5.4v20.3h1.3c4.4-2.5,5.6-4.5,5.6-5.1v-11.5C228.3,234.4,227.5,234.4,226.9,234.4z"/>
					<path class="st34" d="M219.5,234.4h-7.1c-4.5,0-12.1,2.6-16.4,4.8c0,0,0,0-0.1,0.1c-3.7,4.3-6.6,9.6-8.5,15.4h32.1V234.4z"/>
				</g>
			</g>
			<polygon class="st34" points="229.4,287.9 272.1,287.9 280.1,283.1 280.1,277.3 224.1,276.2 224.1,282.1 229.4,287.4 			"/>
			
				<linearGradient id="SVGID_38_" gradientUnits="userSpaceOnUse" x1="-2381.6184" y1="276.9746" x2="-2381.6184" y2="282.709" gradientTransform="matrix(-1 0 0 1 -2110.3445 0)">
				<stop  offset="0" style="stop-color:#FFA901"/>
				<stop  offset="1" style="stop-color:#FFC71E"/>
			</linearGradient>
			<rect x="185.2" y="273.7" style="fill:url(#SVGID_38_);stroke:#D88600;stroke-miterlimit:10;" width="172.1" height="5.8"/>
			
				<linearGradient id="SVGID_39_" gradientUnits="userSpaceOnUse" x1="-2382.3416" y1="275.7945" x2="-2382.3416" y2="270.5655" gradientTransform="matrix(-1 0 0 1 -2110.3445 0)">
				<stop  offset="0" style="stop-color:#FFA901"/>
				<stop  offset="1" style="stop-color:#FFC71E"/>
			</linearGradient>
			<rect x="183.8" y="269.4" style="fill:url(#SVGID_39_);stroke:#D88600;stroke-miterlimit:10;" width="176.4" height="7.2"/>
		</g>
		<circle class="st44" cx="360.3" cy="149.2" r="3.8"/>
		<path class="st44" d="M6,100.5c0,5.3,0.3,9-1.2,11.1c-1.5,2.1-7.2,8.9-2.8,15.1c4.4,6.2,19.1,3.5,18.9-6.7
			c-3.3,1.9-9.9,5.9-12.9,2.5s0.9-8.7,2.8-11.1s1.6-7,1.2-10.9"/>
		<linearGradient id="SVGID_40_" gradientUnits="userSpaceOnUse" x1="8.5668" y1="100.5394" x2="8.9917" y2="91.7856">
			<stop  offset="0" style="stop-color:#FFA901"/>
			<stop  offset="1" style="stop-color:#FFC71E"/>
		</linearGradient>
		<rect x="2.3" y="92.6" style="fill:url(#SVGID_40_);stroke:#D88600;stroke-miterlimit:10;" width="12.9" height="8.3"/>
		
			<linearGradient id="SVGID_41_" gradientUnits="userSpaceOnUse" x1="8.5264" y1="2818.5361" x2="9.0446" y2="2807.8613" gradientTransform="matrix(1 0 0 -0.5905 0 1753.0066)">
			<stop  offset="0" style="stop-color:#FFA901"/>
			<stop  offset="1" style="stop-color:#FFC71E"/>
		</linearGradient>
		<rect x="0" y="88.4" class="st41" width="17.5" height="5.9"/>
	</g>
</g>
</svg>
