<?xml version="1.0" encoding="utf-8"?>
<!-- Generator: Adobe Illustrator 19.0.1, SVG Export Plug-In . SVG Version: 6.00 Build 0)  -->
<svg version="1.1" xmlns="http://www.w3.org/2000/svg" xmlns:xlink="http://www.w3.org/1999/xlink" x="0px" y="0px"
	 viewBox="0 0 208.8 177.7" style="enable-background:new 0 0 208.8 177.7;" xml:space="preserve">
<style type="text/css">
	.st0{fill:url(#SVGID_1_);stroke:#3A4445;stroke-miterlimit:10;}
	.st1{fill:url(#SVGID_2_);}
	.st2{fill:url(#SVGID_3_);stroke:#3A4445;stroke-miterlimit:10;}
	.st3{fill:url(#SVGID_4_);stroke:#3A4445;stroke-miterlimit:10;}
	.st4{fill:url(#SVGID_5_);stroke:#D88600;stroke-miterlimit:10;}
	.st5{fill:url(#SVGID_6_);}
	.st6{fill:url(#SVGID_7_);}
	.st7{fill:url(#SVGID_8_);stroke:#D88600;stroke-miterlimit:10;}
	.st8{fill:url(#SVGID_9_);}
	.st9{fill:url(#SVGID_10_);}
	.st10{fill:url(#SVGID_11_);stroke:#3A4445;stroke-miterlimit:10;}
	.st11{fill:url(#SVGID_12_);stroke:#D88600;stroke-miterlimit:10;}
	.st12{fill:url(#SVGID_13_);}
	.st13{fill:url(#SVGID_14_);}
	.st14{fill:url(#SVGID_15_);stroke:#D88600;stroke-miterlimit:10;}
	.st15{fill:url(#SVGID_16_);}
	.st16{fill:url(#SVGID_17_);}
	.st17{fill:url(#SVGID_18_);stroke:#D88600;stroke-miterlimit:10;}
	.st18{fill:url(#SVGID_19_);}
	.st19{fill:url(#SVGID_20_);stroke:#D88600;stroke-miterlimit:10;}
	.st20{fill:url(#SVGID_21_);stroke:#3A4445;stroke-miterlimit:10;}
	.st21{fill:url(#SVGID_22_);stroke:#3A4445;stroke-miterlimit:10;}
	.st22{fill:url(#SVGID_23_);stroke:#3A4445;stroke-miterlimit:10;}
	.st23{fill:url(#SVGID_24_);stroke:#3A4445;stroke-miterlimit:10;}
	.st24{fill:url(#SVGID_25_);stroke:#3A4445;stroke-miterlimit:10;}
	.st25{fill:url(#SVGID_26_);stroke:#3A4445;stroke-miterlimit:10;}
	.st26{fill:url(#SVGID_27_);stroke:#3A4445;stroke-miterlimit:10;}
	.st27{fill:url(#SVGID_28_);stroke:#D88600;stroke-miterlimit:10;}
	.st28{fill:url(#SVGID_29_);}
	.st29{fill:url(#SVGID_30_);}
	.st30{fill:url(#SVGID_31_);stroke:#3A4445;stroke-miterlimit:10;}
	.st31{fill:url(#SVGID_32_);stroke:#D88600;stroke-miterlimit:10;}
	.st32{fill:url(#SVGID_33_);stroke:#D88600;stroke-miterlimit:10;}
	.st33{fill:url(#SVGID_34_);stroke:#D88600;stroke-miterlimit:10;}
	.st34{fill:#262626;}
	.st35{fill:url(#SVGID_35_);stroke:#D88600;stroke-miterlimit:10;}
	.st36{fill:url(#SVGID_36_);stroke:#D88600;stroke-miterlimit:10;}
	.st37{fill:url(#SVGID_37_);stroke:#D88600;stroke-miterlimit:10;}
	.st38{fill:url(#SVGID_38_);}
	.st39{fill:url(#SVGID_39_);stroke:#3A4445;stroke-miterlimit:10;}
	.st40{fill:url(#SVGID_40_);stroke:#3A4445;stroke-miterlimit:10;}
	.st41{fill:url(#SVGID_41_);stroke:#D88600;stroke-miterlimit:10;}
	.st42{fill:url(#SVGID_42_);stroke:#212121;stroke-miterlimit:10;}
	.st43{fill:url(#SVGID_43_);stroke:#3A4445;stroke-miterlimit:10;}
	.st44{fill:#7E8887;stroke:#505E5F;stroke-miterlimit:10;}
	.st45{fill:url(#SVGID_44_);stroke:#212121;stroke-miterlimit:10;}
	.st46{fill:url(#SVGID_45_);stroke:#3A4445;stroke-miterlimit:10;}
	.st47{fill:url(#SVGID_46_);stroke:#D88600;stroke-miterlimit:10;}
	.st48{fill:url(#SVGID_47_);stroke:#D88600;stroke-miterlimit:10;}
	.st49{fill:url(#SVGID_48_);stroke:#D88600;stroke-miterlimit:10;}
	.st50{fill:url(#SVGID_49_);stroke:#D88600;stroke-miterlimit:10;}
	.st51{fill:url(#SVGID_50_);}
	.st52{fill:url(#SVGID_51_);stroke:#D88600;stroke-miterlimit:10;}
	.st53{fill:url(#SVGID_52_);stroke:#3A4445;stroke-miterlimit:10;}
	.st54{fill:url(#SVGID_53_);stroke:#D88600;stroke-miterlimit:10;}
	.st55{fill:url(#SVGID_54_);}
	.st56{fill:url(#SVGID_55_);stroke:#D88600;stroke-miterlimit:10;}
	.st57{fill:url(#SVGID_56_);}
	.st58{fill:#AFBDBB;}
	.st59{fill:url(#SVGID_57_);stroke:#D88600;stroke-miterlimit:10;}
	.st60{fill:url(#SVGID_58_);stroke:#D88600;stroke-miterlimit:10;}
	.st61{fill:url(#SVGID_59_);}
	.st62{fill:url(#SVGID_60_);stroke:#D88600;stroke-miterlimit:10;}
	.st63{fill:url(#SVGID_61_);stroke:#D88600;stroke-miterlimit:10;}
	.st64{fill:url(#SVGID_62_);}
	.st65{fill:url(#SVGID_63_);stroke:#D88600;stroke-miterlimit:10;}
	.st66{fill:url(#SVGID_64_);stroke:#D88600;stroke-miterlimit:10;}
	.st67{fill:url(#SVGID_65_);}
	.st68{fill:url(#SVGID_66_);stroke:#D88600;stroke-miterlimit:10;}
	.st69{fill:url(#SVGID_67_);}
	.st70{fill:url(#SVGID_68_);}
	.st71{fill:url(#SVGID_69_);}
	.st72{fill:url(#SVGID_70_);stroke:#D88600;stroke-miterlimit:10;}
	.st73{fill:url(#SVGID_71_);}
	.st74{fill:url(#SVGID_72_);}
	.st75{fill:url(#SVGID_73_);}
	.st76{fill:url(#SVGID_74_);}
	.st77{fill:url(#SVGID_75_);}
	.st78{fill:url(#SVGID_76_);stroke:#D88600;stroke-miterlimit:10;}
	.st79{fill:url(#SVGID_77_);}
	.st80{fill:url(#SVGID_78_);}
	.st81{fill:url(#SVGID_79_);stroke:#D88600;stroke-miterlimit:10;}
	.st82{fill:url(#SVGID_80_);}
	.st83{fill:url(#SVGID_81_);}
	.st84{fill:url(#SVGID_82_);stroke:#D88600;stroke-miterlimit:10;}
	.st85{fill:url(#SVGID_83_);}
	.st86{fill:url(#SVGID_84_);stroke:#D88600;stroke-miterlimit:10;}
	.st87{fill:url(#SVGID_85_);stroke:#D88600;stroke-miterlimit:10;}
	.st88{fill:url(#SVGID_86_);stroke:#D88600;stroke-miterlimit:10;}
	.st89{fill:url(#SVGID_87_);}
	.st90{fill:url(#SVGID_88_);stroke:#D88600;stroke-miterlimit:10;}
	.st91{fill:url(#SVGID_89_);}
	.st92{fill:url(#SVGID_90_);stroke:#D88600;stroke-miterlimit:10;}
	.st93{fill:url(#SVGID_91_);stroke:#D88600;stroke-miterlimit:10;}
	.st94{fill:url(#SVGID_92_);}
	.st95{fill:url(#SVGID_93_);}
	.st96{fill:url(#SVGID_94_);}
	.st97{fill:url(#SVGID_95_);stroke:#3A4445;stroke-miterlimit:10;}
	.st98{fill:url(#SVGID_96_);stroke:#505E5F;stroke-miterlimit:10;}
	.st99{fill:url(#SVGID_97_);}
	.st100{fill:url(#SVGID_98_);}
	.st101{fill:url(#SVGID_99_);}
	.st102{fill:#FFFFFF;}
	.st103{fill:url(#SVGID_100_);stroke:#3A4445;stroke-miterlimit:10;}
	.st104{fill:url(#SVGID_101_);stroke:#3A4445;stroke-miterlimit:10;}
	.st105{fill:#8E9998;}
	.st106{fill:url(#SVGID_102_);stroke:#3A4445;stroke-miterlimit:10;}
	.st107{fill:url(#SVGID_103_);stroke:#3A4445;stroke-miterlimit:10;}
	.st108{fill:url(#SVGID_104_);stroke:#3A4445;stroke-miterlimit:10;}
	.st109{fill:url(#SVGID_105_);stroke:#3A4445;stroke-miterlimit:10;}
	.st110{fill:url(#SVGID_106_);stroke:#3A4445;stroke-miterlimit:10;}
	.st111{fill:#B1BFBE;}
	.st112{fill:url(#SVGID_107_);stroke:#3A4445;stroke-miterlimit:10;}
	.st113{fill:url(#SVGID_108_);stroke:#3A4445;stroke-miterlimit:10;}
	.st114{fill:url(#SVGID_109_);stroke:#3A4445;stroke-miterlimit:10;}
	.st115{fill:url(#SVGID_110_);stroke:#3A4445;stroke-miterlimit:10;}
	.st116{fill:url(#SVGID_111_);stroke:#3A4445;stroke-miterlimit:10;}
	.st117{fill:url(#SVGID_112_);stroke:#D88600;stroke-miterlimit:10;}
	.st118{fill:url(#SVGID_113_);stroke:#3A4445;stroke-miterlimit:10;}
	.st119{fill:url(#SVGID_114_);stroke:#D88600;stroke-miterlimit:10;}
	.st120{fill:url(#SVGID_115_);stroke:#D88600;stroke-miterlimit:10;}
	.st121{fill:url(#SVGID_116_);}
	.st122{fill:url(#SVGID_117_);stroke:#3A4445;stroke-miterlimit:10;}
	.st123{fill:url(#SVGID_118_);}
	.st124{fill:url(#SVGID_119_);stroke:#3A4445;stroke-miterlimit:10;}
	.st125{fill:url(#SVGID_120_);stroke:#D88600;stroke-miterlimit:10;}
	.st126{fill:url(#SVGID_121_);stroke:#D88600;stroke-miterlimit:10;}
	.st127{fill:url(#SVGID_122_);}
	.st128{fill:url(#SVGID_123_);stroke:#D88600;stroke-miterlimit:10;}
	.st129{fill:url(#SVGID_124_);stroke:#D88600;stroke-miterlimit:10;}
	.st130{fill:url(#SVGID_125_);stroke:#D88600;stroke-miterlimit:10;}
	.st131{fill:url(#SVGID_126_);}
	.st132{fill:url(#SVGID_127_);stroke:#3A4445;stroke-miterlimit:10;}
	.st133{fill:#BBC9C8;}
	.st134{fill:url(#SVGID_128_);}
	.st135{fill:url(#SVGID_129_);stroke:#D88600;stroke-miterlimit:10;}
	.st136{fill:url(#SVGID_130_);}
	.st137{fill:url(#SVGID_131_);}
	.st138{fill:url(#SVGID_132_);stroke:#D88600;stroke-miterlimit:10;}
	.st139{fill:url(#SVGID_133_);}
	.st140{fill:url(#SVGID_134_);stroke:#D88600;stroke-miterlimit:10;}
	.st141{fill:url(#SVGID_135_);}
	.st142{fill:url(#SVGID_136_);stroke:#D88600;stroke-miterlimit:10;}
	.st143{fill:url(#SVGID_137_);stroke:#D88600;stroke-miterlimit:10;}
	.st144{fill:url(#SVGID_138_);stroke:#D88600;stroke-miterlimit:10;}
	.st145{fill:url(#SVGID_139_);stroke:#D88600;stroke-miterlimit:10;}
	.st146{fill:url(#SVGID_140_);stroke:#D88600;stroke-miterlimit:10;}
	.st147{fill:url(#SVGID_141_);stroke:#D88600;stroke-miterlimit:10;}
	.st148{fill:url(#SVGID_142_);}
	.st149{fill:url(#SVGID_143_);stroke:#D88600;stroke-miterlimit:10;}
	.st150{fill:url(#SVGID_144_);}
	.st151{fill:url(#SVGID_145_);stroke:#D88600;stroke-miterlimit:10;}
	.st152{fill:url(#SVGID_146_);stroke:#D88600;stroke-miterlimit:10;}
	.st153{fill:url(#SVGID_147_);}
	.st154{fill:url(#SVGID_148_);}
	.st155{fill:url(#SVGID_149_);stroke:#D88600;stroke-miterlimit:10;}
	.st156{fill:url(#SVGID_150_);}
	.st157{fill:url(#SVGID_151_);stroke:#D88600;stroke-miterlimit:10;}
	.st158{fill:url(#SVGID_152_);}
	.st159{fill:url(#SVGID_153_);}
	.st160{fill:url(#SVGID_154_);}
	.st161{fill:url(#SVGID_155_);}
	.st162{fill:url(#SVGID_156_);}
	.st163{fill:url(#SVGID_157_);stroke:#D88600;stroke-miterlimit:10;}
	.st164{fill:url(#SVGID_158_);stroke:#D88600;stroke-miterlimit:10;}
	.st165{fill:url(#SVGID_159_);stroke:#D88600;stroke-miterlimit:10;}
	.st166{fill:url(#SVGID_160_);stroke:#D88600;stroke-miterlimit:10;}
	.st167{fill:url(#SVGID_161_);}
	.st168{fill:url(#SVGID_162_);stroke:#D88600;stroke-miterlimit:10;}
	.st169{fill:url(#SVGID_163_);}
	.st170{fill:url(#SVGID_164_);stroke:#D88600;stroke-miterlimit:10;}
	.st171{fill:url(#SVGID_165_);stroke:#212121;stroke-miterlimit:10;}
	.st172{fill:url(#SVGID_166_);stroke:#212121;stroke-miterlimit:10;}
	.st173{fill:url(#SVGID_167_);stroke:#D88600;stroke-miterlimit:10;}
	.st174{fill:url(#SVGID_168_);stroke:#D88600;stroke-miterlimit:10;}
	.st175{fill:url(#SVGID_169_);stroke:#D88600;stroke-miterlimit:10;}
	.st176{fill:url(#SVGID_170_);}
	.st177{fill:url(#SVGID_171_);stroke:#D88600;stroke-miterlimit:10;}
	.st178{fill:url(#SVGID_172_);stroke:#212121;stroke-miterlimit:10;}
	.st179{fill:url(#SVGID_173_);stroke:#D88600;stroke-miterlimit:10;}
	.st180{fill:url(#SVGID_174_);stroke:#212121;stroke-miterlimit:10;}
	.st181{fill:url(#SVGID_175_);stroke:#212121;stroke-miterlimit:10;}
	.st182{fill:url(#SVGID_176_);stroke:#D88600;stroke-miterlimit:10;}
	.st183{fill:url(#SVGID_177_);stroke:#212121;stroke-miterlimit:10;}
	.st184{fill:url(#SVGID_178_);stroke:#D88600;stroke-miterlimit:10;}
	.st185{fill:url(#SVGID_179_);stroke:#D88600;stroke-miterlimit:10;}
	.st186{fill:url(#SVGID_180_);}
	.st187{fill:url(#SVGID_181_);stroke:#D88600;stroke-miterlimit:10;}
	.st188{fill:url(#SVGID_182_);stroke:#D88600;stroke-miterlimit:10;}
	.st189{fill:url(#SVGID_183_);stroke:#D88600;stroke-miterlimit:10;}
	.st190{fill:url(#SVGID_184_);}
	.st191{fill:url(#SVGID_185_);}
	.st192{fill:url(#SVGID_186_);stroke:#3A4445;stroke-miterlimit:10;}
	.st193{fill:url(#SVGID_187_);stroke:#3A4445;stroke-miterlimit:10;}
	.st194{fill:url(#SVGID_188_);stroke:#D88600;stroke-miterlimit:10;}
	.st195{fill:url(#SVGID_189_);}
	.st196{fill:url(#SVGID_190_);stroke:#3A4445;stroke-miterlimit:10;}
	.st197{fill:url(#SVGID_191_);stroke:#D88600;stroke-miterlimit:10;}
	.st198{fill:url(#SVGID_192_);stroke:#D88600;stroke-miterlimit:10;}
	.st199{fill:url(#SVGID_193_);}
	.st200{fill:url(#SVGID_194_);stroke:#3A4445;stroke-miterlimit:10;}
	.st201{fill:url(#SVGID_195_);stroke:#D88600;stroke-miterlimit:10;}
	.st202{fill:url(#SVGID_196_);stroke:#D88600;stroke-miterlimit:10;}
	.st203{fill:url(#SVGID_197_);stroke:#D88600;stroke-miterlimit:10;}
	.st204{fill:url(#SVGID_198_);}
	.st205{fill:url(#SVGID_199_);stroke:#3A4445;stroke-miterlimit:10;}
	.st206{fill:url(#SVGID_200_);stroke:#D88600;stroke-miterlimit:10;}
	.st207{fill:url(#SVGID_201_);stroke:#212121;stroke-miterlimit:10;}
	.st208{fill:url(#SVGID_202_);stroke:#3A4445;stroke-miterlimit:10;}
	.st209{fill:url(#SVGID_203_);stroke:#D88600;stroke-miterlimit:10;}
	.st210{fill:url(#SVGID_204_);stroke:#3A4445;stroke-miterlimit:10;}
	.st211{fill:url(#SVGID_205_);stroke:#3A4445;stroke-miterlimit:10;}
	.st212{fill:url(#SVGID_206_);}
	.st213{fill:url(#SVGID_207_);stroke:#212121;stroke-miterlimit:10;}
	.st214{fill:url(#SVGID_208_);stroke:#3A4445;stroke-miterlimit:10;}
	.st215{fill:url(#SVGID_209_);stroke:#D88600;stroke-miterlimit:10;}
	.st216{fill:url(#SVGID_210_);}
	.st217{fill:url(#SVGID_211_);stroke:#D88600;stroke-linecap:round;stroke-linejoin:round;stroke-miterlimit:10;}
	.st218{fill:url(#SVGID_212_);}
	.st219{fill:url(#SVGID_213_);}
	.st220{fill:url(#SVGID_214_);stroke:#D88600;stroke-miterlimit:10;}
	.st221{fill:url(#SVGID_215_);}
	.st222{fill:#E69704;stroke:#D88600;stroke-linecap:round;stroke-linejoin:round;stroke-miterlimit:10;}
	.st223{fill:url(#SVGID_216_);stroke:#D88600;stroke-miterlimit:10;}
	.st224{fill:url(#SVGID_217_);}
	.st225{fill:url(#SVGID_218_);stroke:#D88600;stroke-miterlimit:10;}
	.st226{fill:url(#SVGID_219_);stroke:#D88600;stroke-miterlimit:10;}
	.st227{fill:url(#SVGID_220_);stroke:#D88600;stroke-miterlimit:10;}
	.st228{fill:url(#SVGID_221_);stroke:#D88600;stroke-miterlimit:10;}
	.st229{fill:url(#SVGID_222_);stroke:#3A4445;stroke-miterlimit:10;}
	.st230{fill:url(#SVGID_223_);stroke:#3A4445;stroke-miterlimit:10;}
	.st231{fill:url(#SVGID_224_);stroke:#3A4445;stroke-miterlimit:10;}
	.st232{fill:url(#SVGID_225_);stroke:#3A4445;stroke-miterlimit:10;}
	.st233{fill:url(#SVGID_226_);stroke:#3A4445;stroke-miterlimit:10;}
	.st234{fill:url(#SVGID_227_);stroke:#3A4445;stroke-miterlimit:10;}
	.st235{fill:url(#SVGID_228_);stroke:#3A4445;stroke-miterlimit:10;}
	.st236{fill:url(#SVGID_229_);stroke:#3A4445;stroke-miterlimit:10;}
	.st237{fill:url(#SVGID_230_);stroke:#3A4445;stroke-miterlimit:10;}
	.st238{fill:url(#SVGID_231_);stroke:#3A4445;stroke-miterlimit:10;}
	.st239{fill:url(#SVGID_232_);stroke:#3A4445;stroke-miterlimit:10;}
	.st240{fill:url(#SVGID_233_);stroke:#3A4445;stroke-miterlimit:10;}
	.st241{fill:url(#SVGID_234_);stroke:#3A4445;stroke-miterlimit:10;}
	.st242{fill:url(#SVGID_235_);stroke:#D88600;stroke-miterlimit:10;}
	.st243{fill:url(#SVGID_236_);stroke:#3A4445;stroke-miterlimit:10;}
	.st244{fill:url(#SVGID_237_);stroke:#3A4445;stroke-miterlimit:10;}
	.st245{fill:url(#SVGID_238_);stroke:#D88600;stroke-miterlimit:10;}
	.st246{fill:url(#SVGID_239_);}
	.st247{fill:url(#SVGID_240_);stroke:#D88600;stroke-miterlimit:10;}
	.st248{fill:url(#SVGID_241_);}
	.st249{fill:url(#SVGID_242_);stroke:#D88600;stroke-miterlimit:10;}
	.st250{fill:url(#SVGID_243_);}
	.st251{fill:url(#SVGID_244_);}
	.st252{fill:url(#SVGID_245_);stroke:#D88600;stroke-miterlimit:10;}
	.st253{fill:url(#SVGID_246_);stroke:#D88600;stroke-miterlimit:10;}
	.st254{fill:url(#SVGID_247_);}
	.st255{fill:url(#SVGID_248_);stroke:#D88600;stroke-miterlimit:10;}
	.st256{fill:url(#SVGID_249_);}
	.st257{fill:url(#SVGID_250_);}
	.st258{fill:url(#SVGID_251_);stroke:#D88600;stroke-miterlimit:10;}
	.st259{fill:url(#SVGID_252_);stroke:#D88600;stroke-miterlimit:10;}
	.st260{fill:url(#SVGID_253_);stroke:#D88600;stroke-miterlimit:10;}
	.st261{fill:url(#SVGID_254_);}
	.st262{fill:url(#SVGID_255_);stroke:#D88600;stroke-miterlimit:10;}
	.st263{fill:url(#SVGID_256_);}
	.st264{fill:url(#SVGID_257_);stroke:#D88600;stroke-miterlimit:10;}
	.st265{fill:url(#SVGID_258_);stroke:#D88600;stroke-miterlimit:10;}
	.st266{fill:url(#SVGID_259_);}
	.st267{fill:url(#SVGID_260_);stroke:#D88600;stroke-miterlimit:10;}
	.st268{fill:url(#SVGID_261_);stroke:#D88600;stroke-miterlimit:10;}
	.st269{fill:url(#SVGID_262_);stroke:#D88600;stroke-miterlimit:10;}
	.st270{fill:url(#SVGID_263_);}
	.st271{fill:url(#SVGID_264_);stroke:#D88600;stroke-miterlimit:10;}
	.st272{fill:url(#SVGID_265_);}
	.st273{fill:url(#SVGID_266_);stroke:#3A4445;stroke-miterlimit:10;}
	.st274{fill:url(#SVGID_267_);stroke:#3A4445;stroke-miterlimit:10;}
	.st275{fill:url(#SVGID_268_);stroke:#3A4445;stroke-miterlimit:10;}
	.st276{fill:url(#SVGID_269_);stroke:#3A4445;stroke-miterlimit:10;}
	.st277{fill:url(#SVGID_270_);stroke:#3A4445;stroke-miterlimit:10;}
	.st278{fill:url(#SVGID_271_);stroke:#3A4445;stroke-miterlimit:10;}
	.st279{fill:url(#SVGID_272_);stroke:#3A4445;stroke-miterlimit:10;}
	.st280{fill:url(#SVGID_273_);stroke:#3A4445;stroke-miterlimit:10;}
	.st281{fill:url(#SVGID_274_);stroke:#3A4445;stroke-miterlimit:10;}
	.st282{fill:url(#SVGID_275_);stroke:#3A4445;stroke-miterlimit:10;}
	.st283{fill:url(#SVGID_276_);stroke:#3A4445;stroke-miterlimit:10;}
	.st284{fill:url(#SVGID_277_);stroke:#3A4445;stroke-miterlimit:10;}
	.st285{fill:url(#SVGID_278_);stroke:#3A4445;stroke-miterlimit:10;}
	.st286{fill:#9CA8A7;}
	.st287{fill:none;stroke:#7E8887;stroke-width:2;stroke-miterlimit:10;}
	.st288{fill:#A1ADAC;}
	.st289{fill:#505E5F;}
	.st290{fill:url(#SVGID_279_);stroke:#D88600;stroke-miterlimit:10;}
	.st291{fill:url(#SVGID_280_);stroke:#D88600;stroke-miterlimit:10;}
	.st292{fill:url(#SVGID_281_);stroke:#D88600;stroke-miterlimit:10;}
	.st293{fill:url(#SVGID_282_);stroke:#D88600;stroke-miterlimit:10;}
	.st294{fill:url(#SVGID_283_);stroke:#D88600;stroke-miterlimit:10;}
	.st295{fill:url(#SVGID_284_);}
	.st296{fill:url(#SVGID_285_);}
	.st297{fill:url(#SVGID_286_);}
	.st298{fill:url(#SVGID_287_);}
	.st299{fill:url(#SVGID_288_);}
	.st300{fill:url(#SVGID_289_);}
	.st301{fill:url(#SVGID_290_);stroke:#D88600;stroke-miterlimit:10;}
	.st302{fill:url(#SVGID_291_);}
	.st303{fill:url(#SVGID_292_);stroke:#D88600;stroke-miterlimit:10;}
	.st304{fill:url(#SVGID_293_);stroke:#D88600;stroke-miterlimit:10;}
	.st305{fill:url(#SVGID_294_);}
	.st306{fill:url(#SVGID_295_);stroke:#D88600;stroke-miterlimit:10;}
	.st307{fill:url(#SVGID_296_);}
	.st308{fill:url(#SVGID_297_);stroke:#D88600;stroke-miterlimit:10;}
	.st309{fill:url(#SVGID_298_);}
	.st310{fill:url(#SVGID_299_);stroke:#D88600;stroke-miterlimit:10;}
	.st311{fill:url(#SVGID_300_);}
	.st312{fill:url(#SVGID_301_);stroke:#D88600;stroke-miterlimit:10;}
	.st313{fill:url(#SVGID_302_);}
	.st314{fill:url(#SVGID_303_);stroke:#D88600;stroke-miterlimit:10;}
	.st315{fill:url(#SVGID_304_);stroke:#D88600;stroke-miterlimit:10;}
	.st316{fill:url(#SVGID_305_);stroke:#D88600;stroke-miterlimit:10;}
	.st317{fill:url(#SVGID_306_);stroke:#D88600;stroke-miterlimit:10;}
</style>
<g id="Background">
</g>
<g id="Objects">
	<g>
		<linearGradient id="SVGID_1_" gradientUnits="userSpaceOnUse" x1="104.6739" y1="121.0709" x2="141.1076" y2="121.0709">
			<stop  offset="0" style="stop-color:#68706F"/>
			<stop  offset="1" style="stop-color:#8F9998"/>
		</linearGradient>
		<path class="st0" d="M104.7,105.1c9.4,0,24.4,0,24.4,0s12.3,27.3,12.1,28.1c-0.3,0.8-26,3.8-27.3,3.8s-7-2.1-7-2.1L104.7,105.1z"
			/>
		<linearGradient id="SVGID_2_" gradientUnits="userSpaceOnUse" x1="104.6863" y1="121.0709" x2="140.432" y2="121.0709">
			<stop  offset="0" style="stop-color:#262626;stop-opacity:0.3"/>
			<stop  offset="1" style="stop-color:#262626;stop-opacity:0.3"/>
		</linearGradient>
		<path class="st1" d="M137.2,123.6c-2.8,0.2-16.9,0.9-21,0.8c-4-0.1-4.2-12-5.5-19.3c-2,0-4,0-5.7,0l-0.4,0.2l2.1,29.6
			c0,0,5.6,2.1,7,2.1c0.7,0,7.3-0.7,13.8-1.5c5.3-1.5,10.2-3,12.8-4.2C139.7,129.5,138.6,126.7,137.2,123.6z"/>
		<g>
			<linearGradient id="SVGID_3_" gradientUnits="userSpaceOnUse" x1="125.7666" y1="37.94" x2="141.8447" y2="37.94">
				<stop  offset="0" style="stop-color:#68706F"/>
				<stop  offset="1" style="stop-color:#8F9998"/>
			</linearGradient>
			<polygon class="st2" points="128.4,52.1 125.8,50.8 139.2,23.8 141.8,25.1 			"/>
			<linearGradient id="SVGID_4_" gradientUnits="userSpaceOnUse" x1="113.2005" y1="63.6312" x2="128.8172" y2="63.6312">
				<stop  offset="0" style="stop-color:#68706F"/>
				<stop  offset="1" style="stop-color:#8F9998"/>
			</linearGradient>
			<polygon class="st3" points="117.3,76.3 113.2,74.3 124.7,51 128.8,53 			"/>
			<linearGradient id="SVGID_5_" gradientUnits="userSpaceOnUse" x1="121.3918" y1="46.2874" x2="137.2816" y2="46.2874">
				<stop  offset="0" style="stop-color:#FFA901"/>
				<stop  offset="1" style="stop-color:#FFC71E"/>
			</linearGradient>
			<path class="st4" d="M128.3,57.5l8.6-17.3c0.8-1.6,0.1-3.5-1.4-4.3l-1.2-0.6c-1.6-0.8-3.5-0.1-4.3,1.4l-8.6,17.3L128.3,57.5z"/>
			<linearGradient id="SVGID_6_" gradientUnits="userSpaceOnUse" x1="129.1787" y1="62.5597" x2="133.7379" y2="25.5158">
				<stop  offset="0" style="stop-color:#D88600;stop-opacity:0.7047"/>
				<stop  offset="1" style="stop-color:#D88600;stop-opacity:0.4615"/>
			</linearGradient>
			<path class="st5" d="M137,37.5c-4,8.3-9.2,16.6-12.2,18.3l3.5,1.8l8.6-17.3C137.4,39.4,137.4,38.3,137,37.5z"/>
			<linearGradient id="SVGID_7_" gradientUnits="userSpaceOnUse" x1="127.7322" y1="58.2942" x2="131.7238" y2="25.8629">
				<stop  offset="0" style="stop-color:#FFE926"/>
				<stop  offset="1" style="stop-color:#FFE926;stop-opacity:0.3"/>
			</linearGradient>
			<path class="st6" d="M135.7,37.4c-0.8-1.1-3-1.6-3.9-1.1c-0.9,0.5-8.9,17-8.9,17s8.5-15.4,9.3-15.9
				C133.1,37,134.5,36.7,135.7,37.4z"/>
		</g>
		<g>
			<linearGradient id="SVGID_8_" gradientUnits="userSpaceOnUse" x1="119.1385" y1="109.4143" x2="158.5143" y2="109.4143">
				<stop  offset="0" style="stop-color:#FFA901"/>
				<stop  offset="1" style="stop-color:#FFC71E"/>
			</linearGradient>
			<path class="st7" d="M120.2,89.1c0.3,5.9,1.9,26.8,14.7,41c12.6,2.1,23.6-2.9,23.6-2.9s-23.3-28.1-26-38.8
				c-6.7,1.1-13.4,0.8-13.4,0.8"/>
			<g>
				<linearGradient id="SVGID_9_" gradientUnits="userSpaceOnUse" x1="119.6646" y1="89.1567" x2="119.6931" y2="88.9255">
					<stop  offset="0" style="stop-color:#D88600;stop-opacity:0.7047"/>
					<stop  offset="1" style="stop-color:#D88600;stop-opacity:0.4615"/>
				</linearGradient>
				<path class="st8" d="M119.1,89.1c0,0,0.4,0,1.1,0c0,0,0,0,0,0H119.1z"/>
				<linearGradient id="SVGID_10_" gradientUnits="userSpaceOnUse" x1="134.1331" y1="139.6465" x2="143.0959" y2="66.8235">
					<stop  offset="0" style="stop-color:#D88600;stop-opacity:0.7047"/>
					<stop  offset="1" style="stop-color:#D88600;stop-opacity:0.4615"/>
				</linearGradient>
				<path class="st9" d="M147.3,124.5c-14-1-20.7-16.6-22.6-22.9c-1.7-5.5,1-7.1,10.2-7.7c-1.1-2.1-1.9-4.1-2.3-5.6
					c-5.1,0.8-10.2,0.9-12.3,0.8c0.3,5.9,1.9,26.8,14.7,41c8.7,1.5,16.7-0.5,20.7-1.9C154.3,126.2,151.6,124.8,147.3,124.5z"/>
			</g>
			<linearGradient id="SVGID_11_" gradientUnits="userSpaceOnUse" x1="147.8891" y1="6.2917" x2="170.7467" y2="6.2917">
				<stop  offset="0" style="stop-color:#68706F"/>
				<stop  offset="1" style="stop-color:#8F9998"/>
			</linearGradient>
			<rect x="147.9" y="4.6" class="st10" width="22.9" height="3.4"/>
			<linearGradient id="SVGID_12_" gradientUnits="userSpaceOnUse" x1="137.2829" y1="20.3352" x2="152.7107" y2="20.3352">
				<stop  offset="0" style="stop-color:#FFA901"/>
				<stop  offset="1" style="stop-color:#FFC71E"/>
			</linearGradient>
			<path class="st11" d="M152.7,28.5c-3.6-7.5-4.8-15-3.9-18.8c2.3-1.4,3-3.9,1.8-5.4c-0.4-0.5-4.5-0.7-7.5,2
				c-5.5,4.7-9.8,15.7,0.4,30.2"/>
			<linearGradient id="SVGID_13_" gradientUnits="userSpaceOnUse" x1="145.4153" y1="40.2375" x2="148.5988" y2="14.3713">
				<stop  offset="0" style="stop-color:#D88600;stop-opacity:0.7047"/>
				<stop  offset="1" style="stop-color:#D88600;stop-opacity:0.4615"/>
			</linearGradient>
			<path class="st12" d="M150.4,22.7c-2.1,3.8-6.1,7.3-9.8,9.3c0.8,1.5,1.7,3,2.8,4.6l9.3-8C151.8,26.5,151,24.6,150.4,22.7z"/>
			<linearGradient id="SVGID_14_" gradientUnits="userSpaceOnUse" x1="142.5692" y1="24.301" x2="146.0704" y2="-4.1459">
				<stop  offset="0" style="stop-color:#FFE926"/>
				<stop  offset="1" style="stop-color:#FFE926;stop-opacity:0.3"/>
			</linearGradient>
			<path class="st13" d="M148.6,5.1c-2.9,0.3-10.1,4.5-10.3,14.9c1.9-10.7,7.3-12.8,9.7-13.1C150.2,6.5,150.4,4.9,148.6,5.1z"/>
			<linearGradient id="SVGID_15_" gradientUnits="userSpaceOnUse" x1="121.5493" y1="49.6855" x2="170.836" y2="49.6855">
				<stop  offset="0" style="stop-color:#FFA901"/>
				<stop  offset="1" style="stop-color:#FFC71E"/>
			</linearGradient>
			<path class="st14" d="M129.9,84.8c2.7-8.3,11-28.7,13.9-32.4c4.3,0.8,11.3-5.6,5.9-11.8c6.2-5.4,11.5-12.6,21.2-22.8
				c-2.4-3.2-4.8-5.4-4.8-5.4s-8,7.5-13.9,13.4c-3.7,4.1-12.6,12.1-16.3,20.4c-3.8,8.3-14.2,35.1-14.2,35.1l3.2,5.6L129.9,84.8z"/>
			<linearGradient id="SVGID_16_" gradientUnits="userSpaceOnUse" x1="125.0956" y1="90.3033" x2="128.1973" y2="65.1014">
				<stop  offset="0" style="stop-color:#D88600;stop-opacity:0.7047"/>
				<stop  offset="1" style="stop-color:#D88600;stop-opacity:0.4615"/>
			</linearGradient>
			<path class="st15" d="M125,72.6c-2,5-3.4,8.7-3.4,8.7l3.2,5.6l5.1-2.1c0.3-0.8,0.6-1.7,0.9-2.7C126,80.5,124.9,76.6,125,72.6z"/>
			<linearGradient id="SVGID_17_" gradientUnits="userSpaceOnUse" x1="148.0356" y1="62.3601" x2="156.9576" y2="-10.1314">
				<stop  offset="0" style="stop-color:#FFE926"/>
				<stop  offset="1" style="stop-color:#FFE926;stop-opacity:0.3"/>
			</linearGradient>
			<path class="st16" d="M135.2,51.2c2.5-5.7,4.1-9.4,4.1-9.4l26.6-28.2l2.1,1.6l-26.8,26.3L135.2,51.2z"/>
			<linearGradient id="SVGID_18_" gradientUnits="userSpaceOnUse" x1="112.6539" y1="78.7548" x2="127.3405" y2="78.7548">
				<stop  offset="0" style="stop-color:#FFA901"/>
				<stop  offset="1" style="stop-color:#FFC71E"/>
			</linearGradient>
			<path class="st17" d="M127.3,85.8c0-0.1-0.1-0.1-0.1-0.2L119,73.1c-1-1.5-3-1.9-4.5-0.9l-0.4,0.3c-1.5,1-1.9,3-0.9,4.5l5.9,8.9
				H127.3z"/>
			<linearGradient id="SVGID_19_" gradientUnits="userSpaceOnUse" x1="118.2914" y1="84.4426" x2="120.2907" y2="68.1978">
				<stop  offset="0" style="stop-color:#FFE926"/>
				<stop  offset="1" style="stop-color:#FFE926;stop-opacity:0.3"/>
			</linearGradient>
			<path class="st18" d="M114.1,73.8c1.1-1,2.5-1.3,3.4-0.7c0.9,0.6,1.9,2.2,3.4,4.5c1.4,2.3,3.2,5.4,3.2,5.4s-5.4-7.8-6.5-8.6
				C116.5,73.6,115.4,73.4,114.1,73.8z"/>
			<linearGradient id="SVGID_20_" gradientUnits="userSpaceOnUse" x1="116.9956" y1="88.2577" x2="138.4246" y2="88.2577">
				<stop  offset="0" style="stop-color:#FFA901"/>
				<stop  offset="1" style="stop-color:#FFC71E"/>
			</linearGradient>
			<path class="st19" d="M138.4,88.5c0,1.8-1.4,3.2-3.2,3.2h-15c-1.8,0-3.2-1.4-3.2-3.2V88c0-1.8,1.4-3.2,3.2-3.2h15
				c1.8,0,3.2,1.4,3.2,3.2V88.5z"/>
		</g>
		<g>
			<linearGradient id="SVGID_21_" gradientUnits="userSpaceOnUse" x1="95.415" y1="138.7463" x2="168.5057" y2="138.7463">
				<stop  offset="0" style="stop-color:#68706F"/>
				<stop  offset="1" style="stop-color:#8F9998"/>
			</linearGradient>
			<path class="st20" d="M168.5,138.7c0,5.7-4.6,10.4-10.4,10.4h-52.3c-5.7,0-10.4-4.6-10.4-10.4l0,0c0-5.7,4.6-10.4,10.4-10.4h52.3
				C163.9,128.4,168.5,133,168.5,138.7L168.5,138.7z"/>
			<g>
				<g>
					<linearGradient id="SVGID_22_" gradientUnits="userSpaceOnUse" x1="85.8097" y1="88.0796" x2="93.8" y2="88.0796">
						<stop  offset="0" style="stop-color:#68706F"/>
						<stop  offset="1" style="stop-color:#8F9998"/>
					</linearGradient>
					<polygon class="st21" points="93.8,90.8 90.1,92.9 85.8,85.4 89.5,83.3 					"/>
					<linearGradient id="SVGID_23_" gradientUnits="userSpaceOnUse" x1="87.5103" y1="99.074" x2="104.9696" y2="99.074">
						<stop  offset="0" style="stop-color:#68706F"/>
						<stop  offset="1" style="stop-color:#8F9998"/>
					</linearGradient>
					<path class="st22" d="M102,85.1c-4.7,1.3-11.5,3.5-13.3,5.5c-1.8,2-1.3,5.3,0.7,10.2c2,4.9,7.5,12.2,7.5,12.2s7.3-3.1,8-4.7
						C105.6,106.7,102,85.1,102,85.1z"/>
					<linearGradient id="SVGID_24_" gradientUnits="userSpaceOnUse" x1="77.8434" y1="84.3804" x2="96.2638" y2="84.3804">
						<stop  offset="0" style="stop-color:#68706F"/>
						<stop  offset="1" style="stop-color:#8F9998"/>
					</linearGradient>
					<path class="st23" d="M96,79.3c0.6,1,0.2,2.3-0.8,2.9L81,90.3c-1,0.6-2.3,0.2-2.9-0.8l0,0c-0.6-1-0.2-2.3,0.8-2.9l14.2-8.1
						C94.1,77.9,95.4,78.3,96,79.3L96,79.3z"/>
				</g>
				<g>
					<linearGradient id="SVGID_25_" gradientUnits="userSpaceOnUse" x1="93.0046" y1="118.9762" x2="107.2466" y2="118.9762">
						<stop  offset="0" style="stop-color:#68706F"/>
						<stop  offset="1" style="stop-color:#8F9998"/>
					</linearGradient>
					<polygon class="st24" points="106,106.7 93.2,106.8 93,131.3 107.2,131.1 					"/>
					<linearGradient id="SVGID_26_" gradientUnits="userSpaceOnUse" x1="64.815" y1="94.3886" x2="75.5094" y2="94.3886">
						<stop  offset="0" style="stop-color:#68706F"/>
						<stop  offset="1" style="stop-color:#8F9998"/>
					</linearGradient>
					<path class="st25" d="M64.8,97.3c1-3.8,5.6-10,9-8.2c3.4,1.8,1,4.2-1.2,4.8c-2.2,0.6-6,5.2-6.4,6"/>
					<linearGradient id="SVGID_27_" gradientUnits="userSpaceOnUse" x1="34.8741" y1="92.039" x2="71.5653" y2="92.039">
						<stop  offset="0" style="stop-color:#68706F"/>
						<stop  offset="1" style="stop-color:#8F9998"/>
					</linearGradient>
					<path class="st26" d="M34.9,74.7c4-1.7,8.9,0.2,8.9,8.7s0.8,15.1,0.8,15.1s17.8-2.1,21-1.9c3.2,0.2,5.9,2.8,5.7,10
						c0.2,3.4,0.2,3.4,0.2,3.4s-13.6-1.5-19.1-3.8s-17.2-9.3-17.2-9.3L34.9,74.7z"/>
					<linearGradient id="SVGID_28_" gradientUnits="userSpaceOnUse" x1="66.6919" y1="113.665" x2="79.0252" y2="44.3316">
						<stop  offset="0" style="stop-color:#FFA901"/>
						<stop  offset="1" style="stop-color:#FFC71E"/>
					</linearGradient>
					<path class="st27" d="M104.1,72.3c-2.4-16.6-2.7-32.2-23.8-35c-14.6-2-22.4-2-25.8-1.8c-3.2-0.1-6.8-0.2-9.9-0.2
						c-7.3,0-13,6.1-14.2,18.7c-1.2,12.6,0,48.4,0,48.4l32.1,6.9c0-1.3-0.2-49.6-0.2-67.2c11.9-0.2,23.3,0.6,26.3,3.2
						c3.3,2.8,6.4,7.2,8.9,20.6c2.6,12.5,4.9,38,8.1,65.3c2.4,0,5.2,0,5.2,0S106.8,91.4,104.1,72.3z M37.6,97.1c0,0-1.2-24-1.2-35
						s0.8-18.7,8.1-19.1c7.3-0.4,11.4-0.8,11.4-0.8l0.8,61L37.6,97.1z"/>
					<linearGradient id="SVGID_29_" gradientUnits="userSpaceOnUse" x1="105.2511" y1="135.8558" x2="109.5304" y2="101.0866">
						<stop  offset="0" style="stop-color:#D88600;stop-opacity:0.7047"/>
						<stop  offset="1" style="stop-color:#D88600;stop-opacity:0.4615"/>
					</linearGradient>
					<path class="st28" d="M105.5,131.3c2.4,0,5.2,0,5.2,0s-0.8-8.4-2-19.4c-1.4,0.4-3.2,0.3-5.5-0.2
						C104,118,104.7,124.6,105.5,131.3z"/>
					<linearGradient id="SVGID_30_" gradientUnits="userSpaceOnUse" x1="66.5875" y1="56.8137" x2="70.0647" y2="28.5612">
						<stop  offset="0" style="stop-color:#FFE926"/>
						<stop  offset="1" style="stop-color:#FFE926;stop-opacity:0.3"/>
					</linearGradient>
					<path class="st29" d="M34.4,44.9c3-6.3,6.7-8.2,13.8-8c7.2,0.2,26.5,0.5,34,2.2c7.5,1.7,14.2,4.8,18,18.2
						c-6-13.7-13-16.5-20.7-17.7c-7.7-1.2-29-1-32-1S38.2,39.2,34.4,44.9z"/>
				</g>
				<linearGradient id="SVGID_31_" gradientUnits="userSpaceOnUse" x1="94.8135" y1="125.6408" x2="103.4292" y2="125.6408">
					<stop  offset="0" style="stop-color:#68706F"/>
					<stop  offset="1" style="stop-color:#8F9998"/>
				</linearGradient>
				<polygon class="st30" points="103.4,124.1 95.8,128.7 94.8,127.2 102.5,122.6 				"/>
			</g>
			<linearGradient id="SVGID_32_" gradientUnits="userSpaceOnUse" x1="0.5082" y1="135.0602" x2="6.7479" y2="135.0602">
				<stop  offset="0" style="stop-color:#FFA901"/>
				<stop  offset="1" style="stop-color:#FFC71E"/>
			</linearGradient>
			<path class="st31" d="M6.7,124.3l-5.4,0.2l-0.8,16.7c0,0,2.5,3.3,5.5,4.7C6.5,137.4,6.7,124.3,6.7,124.3z"/>
			<linearGradient id="SVGID_33_" gradientUnits="userSpaceOnUse" x1="4.8028" y1="139.0377" x2="43.1581" y2="139.0377">
				<stop  offset="0" style="stop-color:#FFA901"/>
				<stop  offset="1" style="stop-color:#FFC71E"/>
			</linearGradient>
			<path class="st32" d="M4.8,144.6c5.1,4,22.3,8,31,10.8c0.9-8.2,4.6-17.5,6.9-19.5s-7.1-10.6-10.4-12.4c-3.3-1.8-27,0.9-27,0.9
				L4.8,144.6z"/>
			<g>
				<g>
					<linearGradient id="SVGID_34_" gradientUnits="userSpaceOnUse" x1="1.6987" y1="111.0462" x2="30.1828" y2="111.0462">
						<stop  offset="0" style="stop-color:#FFA901"/>
						<stop  offset="1" style="stop-color:#FFC71E"/>
					</linearGradient>
					<path class="st33" d="M30.2,135.4c0-11.5,0-48.8,0-48.8H15.7c0,0-13.4,4.7-14,35.1C8.3,129.1,30.2,135.4,30.2,135.4z"/>
					<path class="st34" d="M10.5,103.7c5.5-3.2,9.1-4.1,14-4.4c0-4.1,0-8.2,0-8.2h-4.7C19.8,91.1,12.1,95.4,10.5,103.7z"/>
					<path class="st34" d="M11,111.2c2.3-2.6,9.3-3.6,13.4-3.6c0,4.9,0,15.5,0,15.5s-8.5,0.8-13.8-2.7C10.6,115.1,11,111.2,11,111.2
						z"/>
				</g>
				<linearGradient id="SVGID_35_" gradientUnits="userSpaceOnUse" x1="8.5458" y1="126.6577" x2="30.1828" y2="126.6577">
					<stop  offset="0" style="stop-color:#FFA901"/>
					<stop  offset="1" style="stop-color:#FFC71E"/>
				</linearGradient>
				<line class="st35" x1="8.5" y1="126.7" x2="30.2" y2="126.7"/>
				<linearGradient id="SVGID_36_" gradientUnits="userSpaceOnUse" x1="2.2482" y1="106.6672" x2="30.1716" y2="106.6672">
					<stop  offset="0" style="stop-color:#FFA901"/>
					<stop  offset="1" style="stop-color:#FFC71E"/>
				</linearGradient>
				<path class="st36" d="M2.2,111.9c2.2-3,15.6-10.4,27.9-10.4"/>
			</g>
			<linearGradient id="SVGID_37_" gradientUnits="userSpaceOnUse" x1="29.635" y1="129.8112" x2="85.7815" y2="129.8112">
				<stop  offset="0" style="stop-color:#FFA901"/>
				<stop  offset="1" style="stop-color:#FFC71E"/>
			</linearGradient>
			<path class="st37" d="M85.8,139.3c-2.2-10.1-6.8-22.5-8.8-26c-3-3.3-14-4.9-23-6.8c-9-1.9-24.4-3.8-24.4-3.8l0.5,47.8
				c0,0-0.1,6.4,4.1,6.7c0.9-26.8,21.4-33.8,35.7-30.4C80.2,129,85.8,139.3,85.8,139.3z"/>
			<linearGradient id="SVGID_38_" gradientUnits="userSpaceOnUse" x1="53.9262" y1="129.9075" x2="57.6946" y2="99.2888">
				<stop  offset="0" style="stop-color:#FFE926"/>
				<stop  offset="1" style="stop-color:#FFE926;stop-opacity:0.3"/>
			</linearGradient>
			<path class="st38" d="M74,114.6c-6.7-2.5-23.9-7.1-42.6-9v1.6c6.2,1,23.5,4.1,33,10.4c3.1,2,4.2,10,4.2,10l10.9,0.2
				C79.6,127.9,77.1,116,74,114.6z"/>
			<linearGradient id="SVGID_39_" gradientUnits="userSpaceOnUse" x1="83.8643" y1="141.7252" x2="101.119" y2="141.7252">
				<stop  offset="0" style="stop-color:#68706F"/>
				<stop  offset="1" style="stop-color:#8F9998"/>
			</linearGradient>
			<rect x="83.9" y="130.5" class="st39" width="17.3" height="22.5"/>
			<linearGradient id="SVGID_40_" gradientUnits="userSpaceOnUse" x1="99.4757" y1="140.3085" x2="111.8006" y2="140.3085">
				<stop  offset="0" style="stop-color:#68706F"/>
				<stop  offset="1" style="stop-color:#8F9998"/>
			</linearGradient>
			<rect x="99.5" y="131.3" class="st40" width="12.3" height="18"/>
			<linearGradient id="SVGID_41_" gradientUnits="userSpaceOnUse" x1="74.2783" y1="130.4959" x2="111.8006" y2="130.4959">
				<stop  offset="0" style="stop-color:#FFA901"/>
				<stop  offset="1" style="stop-color:#FFC71E"/>
			</linearGradient>
			<rect x="74.3" y="128.6" class="st41" width="37.5" height="3.8"/>
			<g>
				<radialGradient id="SVGID_42_" cx="62.5101" cy="153.0412" r="24.1343" gradientUnits="userSpaceOnUse">
					<stop  offset="0.5714" style="stop-color:#262626"/>
					<stop  offset="0.8265" style="stop-color:#3D3D3D"/>
					<stop  offset="1" style="stop-color:#262626"/>
				</radialGradient>
				<path class="st42" d="M86.6,154.2v-2.2h-1.4c0-0.7-0.1-1.3-0.2-2l1.3-0.3l-0.4-2.2l-1.3,0.2c-0.2-0.8-0.4-1.5-0.7-2.3l1.3-0.5
					l-0.8-2.1l-1.3,0.5c-0.3-0.7-0.7-1.4-1.1-2l1.1-0.7l-1.2-1.9l-1.1,0.8c-0.5-0.6-1-1.2-1.5-1.8l1-1l-1.6-1.6l-1,1
					c-0.5-0.4-1-0.9-1.5-1.3l0.8-1.1l-1.8-1.3l-0.8,1.1c-0.7-0.4-1.4-0.8-2.1-1.1l0.5-1.2l-2.1-0.9l-0.5,1.2
					c-0.7-0.3-1.5-0.5-2.2-0.7l0.3-1.3l-2.2-0.4l-0.3,1.3c-0.8-0.1-1.5-0.2-2.3-0.2v-1.4h-2.2v1.4c-0.7,0-1.3,0.1-2,0.2l-0.3-1.3
					l-2.2,0.4l0.2,1.3c-0.8,0.2-1.5,0.4-2.3,0.7l-0.5-1.3l-2.1,0.8l0.5,1.3c-0.7,0.3-1.4,0.7-2,1.1l-0.7-1.1l-1.9,1.2l0.8,1.1
					c-0.6,0.5-1.2,1-1.8,1.5l-1-1l-1.6,1.6l1,1c-0.4,0.5-0.9,1-1.3,1.5l-1.1-0.8l-1.3,1.8l1.1,0.8c-0.4,0.7-0.8,1.4-1.1,2.1
					l-1.2-0.5l-0.9,2.1l1.2,0.5c-0.3,0.7-0.5,1.5-0.7,2.2l-1.3-0.3l-0.4,2.2l1.3,0.3c-0.1,0.8-0.2,1.5-0.2,2.3h-1.4v2.2h1.4
					c0,0.7,0.1,1.3,0.2,2l-1.3,0.3l0.4,2.2l1.3-0.2c0.2,0.8,0.4,1.5,0.7,2.3l-1.3,0.5l0.8,2.1l1.3-0.5c0.3,0.7,0.7,1.4,1.1,2
					l-1.1,0.7l1.2,1.9l1.1-0.8c0.5,0.6,1,1.2,1.5,1.8l-1,1l1.6,1.6l1-1c0.5,0.4,1,0.9,1.5,1.3l-0.8,1.1l1.8,1.3l0.8-1.1
					c0.7,0.4,1.4,0.8,2.1,1.1l-0.5,1.2l2.1,0.9l0.5-1.2c0.7,0.3,1.5,0.5,2.2,0.7l-0.3,1.3l2.2,0.4l0.3-1.3c0.8,0.1,1.5,0.2,2.3,0.2
					v1.4h2.2v-1.4c0.7,0,1.3-0.1,2-0.2l0.3,1.3l2.2-0.4l-0.3-1.3c0.8-0.2,1.5-0.4,2.3-0.7l0.5,1.3l2.1-0.8l-0.5-1.3
					c0.7-0.3,1.4-0.7,2-1.1l0.7,1.1l1.9-1.2l-0.8-1.1c0.6-0.5,1.2-1,1.8-1.5l1,1l1.6-1.6l-1-1c0.4-0.5,0.9-1,1.3-1.5l1.1,0.8
					l1.3-1.8l-1.1-0.8c0.4-0.7,0.8-1.4,1.1-2.1l1.2,0.5l0.9-2.1l-1.2-0.5c0.3-0.7,0.5-1.5,0.7-2.2l1.3,0.3l0.4-2.2l-1.3-0.3
					c0.1-0.8,0.2-1.5,0.2-2.3H86.6z"/>
				<radialGradient id="SVGID_43_" cx="62.51" cy="153.0412" r="16.3235" gradientUnits="userSpaceOnUse">
					<stop  offset="0.801" style="stop-color:#8F9998"/>
					<stop  offset="1" style="stop-color:#68706F"/>
				</radialGradient>
				<circle class="st43" cx="62.5" cy="153" r="16.3"/>
				<circle class="st44" cx="62.5" cy="153" r="11.1"/>
				<circle class="st34" cx="62.5" cy="153" r="7.1"/>
			</g>
			<g>
				<radialGradient id="SVGID_44_" cx="151.2552" cy="153.0412" r="24.1343" gradientUnits="userSpaceOnUse">
					<stop  offset="0.5714" style="stop-color:#262626"/>
					<stop  offset="0.8265" style="stop-color:#3D3D3D"/>
					<stop  offset="1" style="stop-color:#262626"/>
				</radialGradient>
				<path class="st45" d="M175.4,154.2v-2.2H174c0-0.7-0.1-1.3-0.2-2l1.3-0.3l-0.4-2.2l-1.3,0.2c-0.2-0.8-0.4-1.5-0.7-2.3l1.3-0.5
					l-0.8-2.1l-1.3,0.5c-0.3-0.7-0.7-1.4-1.1-2l1.1-0.7l-1.2-1.9l-1.1,0.8c-0.5-0.6-1-1.2-1.5-1.8l1-1l-1.6-1.6l-1,1
					c-0.5-0.4-1-0.9-1.5-1.3l0.8-1.1l-1.8-1.3l-0.8,1.1c-0.7-0.4-1.4-0.8-2.1-1.1l0.5-1.2l-2.1-0.9l-0.5,1.2
					c-0.7-0.3-1.5-0.5-2.2-0.7l0.3-1.3l-2.2-0.4l-0.3,1.3c-0.8-0.1-1.5-0.2-2.3-0.2v-1.4h-2.2v1.4c-0.7,0-1.3,0.1-2,0.2l-0.3-1.3
					l-2.2,0.4l0.2,1.3c-0.8,0.2-1.5,0.4-2.3,0.7l-0.5-1.3l-2.1,0.8l0.5,1.3c-0.7,0.3-1.4,0.7-2,1.1l-0.7-1.1l-1.9,1.2l0.8,1.1
					c-0.6,0.5-1.2,1-1.8,1.5l-1-1l-1.6,1.6l1,1c-0.4,0.5-0.9,1-1.3,1.5l-1.1-0.8l-1.3,1.8l1.1,0.8c-0.4,0.7-0.8,1.4-1.1,2.1
					l-1.2-0.5l-0.9,2.1l1.2,0.5c-0.3,0.7-0.5,1.5-0.7,2.2l-1.3-0.3l-0.4,2.2l1.3,0.3c-0.1,0.8-0.2,1.5-0.2,2.3h-1.4v2.2h1.4
					c0,0.7,0.1,1.3,0.2,2l-1.3,0.3l0.4,2.2l1.3-0.2c0.2,0.8,0.4,1.5,0.7,2.3l-1.3,0.5l0.8,2.1l1.3-0.5c0.3,0.7,0.7,1.4,1.1,2
					l-1.1,0.7l1.2,1.9l1.1-0.8c0.5,0.6,1,1.2,1.5,1.8l-1,1l1.6,1.6l1-1c0.5,0.4,1,0.9,1.5,1.3l-0.8,1.1l1.8,1.3l0.8-1.1
					c0.7,0.4,1.4,0.8,2.1,1.1l-0.5,1.2l2.1,0.9l0.5-1.2c0.7,0.3,1.5,0.5,2.2,0.7l-0.3,1.3l2.2,0.4l0.3-1.3c0.8,0.1,1.5,0.2,2.3,0.2
					v1.4h2.2v-1.4c0.7,0,1.3-0.1,2-0.2l0.3,1.3l2.2-0.4l-0.3-1.3c0.8-0.2,1.5-0.4,2.3-0.7l0.5,1.3l2.1-0.8l-0.5-1.3
					c0.7-0.3,1.4-0.7,2-1.1l0.8,1.1l1.9-1.2l-0.8-1.1c0.6-0.5,1.2-1,1.8-1.5l1,1l1.6-1.6l-1-1c0.4-0.5,0.9-1,1.3-1.5l1.1,0.8
					l1.3-1.8l-1.1-0.8c0.4-0.7,0.8-1.4,1.1-2.1l1.2,0.5l0.9-2.1l-1.2-0.5c0.3-0.7,0.5-1.5,0.7-2.2l1.3,0.3l0.4-2.2l-1.3-0.3
					c0.1-0.8,0.2-1.5,0.2-2.3H175.4z"/>
				<radialGradient id="SVGID_45_" cx="151.2551" cy="153.0412" r="16.3235" gradientUnits="userSpaceOnUse">
					<stop  offset="0.801" style="stop-color:#8F9998"/>
					<stop  offset="1" style="stop-color:#68706F"/>
				</radialGradient>
				<circle class="st46" cx="151.3" cy="153" r="16.3"/>
				<circle class="st44" cx="151.3" cy="153" r="11.1"/>
				<circle class="st34" cx="151.3" cy="153" r="7.1"/>
			</g>
			<linearGradient id="SVGID_46_" gradientUnits="userSpaceOnUse" x1="34.0172" y1="140.9035" x2="90.9853" y2="140.9035">
				<stop  offset="0" style="stop-color:#FFA901"/>
				<stop  offset="1" style="stop-color:#FFC71E"/>
			</linearGradient>
			<path class="st47" d="M38.2,157.1c-0.2-1.2-0.3-2.5-0.3-3.8c0-13.6,11-24.6,24.6-24.6s24.6,11,24.6,24.6c0,1.3-0.1,2.6-0.3,3.8
				h3.9c0.2-1.3,0.3-2.5,0.3-3.8c0-15.7-12.8-28.5-28.5-28.5c-15.7,0-28.5,12.8-28.5,28.5c0,1.3,0.1,2.6,0.3,3.8H38.2z"/>
			<linearGradient id="SVGID_47_" gradientUnits="userSpaceOnUse" x1="122.756" y1="140.9035" x2="171.0646" y2="140.9035">
				<stop  offset="0" style="stop-color:#FFA901"/>
				<stop  offset="1" style="stop-color:#FFC71E"/>
			</linearGradient>
			<path class="st48" d="M151.2,128.6c6.7,0,12.8,2.7,17.3,7.1c0.8-0.9,1.8-2,2.5-2.9c-5.1-5-12.1-8-19.8-8
				c-15.7,0-28.5,12.8-28.5,28.5c0,1.3,0.1,2.6,0.3,3.8h3.9c-0.2-1.2-0.3-2.5-0.3-3.8C126.6,139.6,137.6,128.6,151.2,128.6z"/>
		</g>
		<linearGradient id="SVGID_48_" gradientUnits="userSpaceOnUse" x1="141.1962" y1="45.1594" x2="148.2564" y2="45.1594">
			<stop  offset="0" style="stop-color:#FFA901"/>
			<stop  offset="1" style="stop-color:#FFC71E"/>
		</linearGradient>
		<circle class="st49" cx="144.7" cy="45.2" r="3.5"/>
		<linearGradient id="SVGID_49_" gradientUnits="userSpaceOnUse" x1="165.1768" y1="10.2402" x2="192.7115" y2="10.2402">
			<stop  offset="0" style="stop-color:#FFA901"/>
			<stop  offset="1" style="stop-color:#FFC71E"/>
		</linearGradient>
		<path class="st50" d="M180,17.5c-5.5,0.7-10.2,3-13-1.4c-2.9-4.5-2.5-8.9,2.1-11.6c4.6-2.7,16.3-4.5,23.6,0.5
			C187.7,10.8,180,17.5,180,17.5z"/>
		<linearGradient id="SVGID_50_" gradientUnits="userSpaceOnUse" x1="177.1752" y1="23.3965" x2="180.8848" y2="-6.7438">
			<stop  offset="0" style="stop-color:#D88600;stop-opacity:0.7047"/>
			<stop  offset="1" style="stop-color:#D88600;stop-opacity:0.4615"/>
		</linearGradient>
		<path class="st51" d="M165.3,12c0.2,1.3,0.8,2.7,1.7,4c2.9,4.5,7.5,2.1,13,1.4c0,0,7.7-6.6,12.7-12.5c-0.6-0.4-1.2-0.7-1.8-1.1
			C180.3,11.5,170,14.5,165.3,12z"/>
		<linearGradient id="SVGID_51_" gradientUnits="userSpaceOnUse" x1="169.3181" y1="8.5239" x2="173.2468" y2="8.5239">
			<stop  offset="0" style="stop-color:#FFA901"/>
			<stop  offset="1" style="stop-color:#FFC71E"/>
		</linearGradient>
		<circle class="st52" cx="171.3" cy="8.5" r="2"/>
		<linearGradient id="SVGID_52_" gradientUnits="userSpaceOnUse" x1="199.7301" y1="47.5417" x2="208.2137" y2="47.5417">
			<stop  offset="0" style="stop-color:#68706F"/>
			<stop  offset="1" style="stop-color:#8F9998"/>
		</linearGradient>
		<path class="st53" d="M199.7,42.9c3.7,4.9,8.5,7.3,8.5,7.3l-0.5,1.9l-7.4-3.5L199.7,42.9z"/>
		<linearGradient id="SVGID_53_" gradientUnits="userSpaceOnUse" x1="170.6744" y1="25.1663" x2="201.6539" y2="25.1663">
			<stop  offset="0" style="stop-color:#FFA901"/>
			<stop  offset="1" style="stop-color:#FFC71E"/>
		</linearGradient>
		<path class="st54" d="M172.2,19.4c4.7-4.5,23.4-17.6,26.1-18.8c3.4-0.4,3.3,0.7,3.3,5.7c0,5-0.5,43.5-0.5,43.5s-7.6-5.1-14.2-9.9
			C180.4,35,166,25.3,172.2,19.4z"/>
		<linearGradient id="SVGID_54_" gradientUnits="userSpaceOnUse" x1="216.3571" y1="-12.1742" x2="170.1553" y2="69.5674">
			<stop  offset="0" style="stop-color:#FFE926"/>
			<stop  offset="1" style="stop-color:#FFE926;stop-opacity:0.3"/>
		</linearGradient>
		<path class="st55" d="M200.2,5.8c-0.2,3.1,0,41.8,0,41.8s-12.3-28.3-15-35.7C191.4,8.3,201-1.6,200.2,5.8z"/>
	</g>
</g>
</svg>
