<?xml version="1.0" encoding="utf-8"?>
<!-- Generator: Adobe Illustrator 19.0.1, SVG Export Plug-In . SVG Version: 6.00 Build 0)  -->
<svg version="1.1" xmlns="http://www.w3.org/2000/svg" xmlns:xlink="http://www.w3.org/1999/xlink" x="0px" y="0px"
	 viewBox="0 0 305.4 217.1" style="enable-background:new 0 0 305.4 217.1;" xml:space="preserve">
<style type="text/css">
	.st0{fill:url(#SVGID_1_);stroke:#3A4445;stroke-miterlimit:10;}
	.st1{fill:url(#SVGID_2_);}
	.st2{fill:url(#SVGID_3_);stroke:#3A4445;stroke-miterlimit:10;}
	.st3{fill:url(#SVGID_4_);stroke:#3A4445;stroke-miterlimit:10;}
	.st4{fill:url(#SVGID_5_);stroke:#D88600;stroke-miterlimit:10;}
	.st5{fill:url(#SVGID_6_);}
	.st6{fill:url(#SVGID_7_);}
	.st7{fill:url(#SVGID_8_);stroke:#D88600;stroke-miterlimit:10;}
	.st8{fill:url(#SVGID_9_);}
	.st9{fill:url(#SVGID_10_);}
	.st10{fill:url(#SVGID_11_);stroke:#3A4445;stroke-miterlimit:10;}
	.st11{fill:url(#SVGID_12_);stroke:#D88600;stroke-miterlimit:10;}
	.st12{fill:url(#SVGID_13_);}
	.st13{fill:url(#SVGID_14_);}
	.st14{fill:url(#SVGID_15_);stroke:#D88600;stroke-miterlimit:10;}
	.st15{fill:url(#SVGID_16_);}
	.st16{fill:url(#SVGID_17_);}
	.st17{fill:url(#SVGID_18_);stroke:#D88600;stroke-miterlimit:10;}
	.st18{fill:url(#SVGID_19_);}
	.st19{fill:url(#SVGID_20_);stroke:#D88600;stroke-miterlimit:10;}
	.st20{fill:url(#SVGID_21_);stroke:#3A4445;stroke-miterlimit:10;}
	.st21{fill:url(#SVGID_22_);stroke:#3A4445;stroke-miterlimit:10;}
	.st22{fill:url(#SVGID_23_);stroke:#3A4445;stroke-miterlimit:10;}
	.st23{fill:url(#SVGID_24_);stroke:#3A4445;stroke-miterlimit:10;}
	.st24{fill:url(#SVGID_25_);stroke:#3A4445;stroke-miterlimit:10;}
	.st25{fill:url(#SVGID_26_);stroke:#3A4445;stroke-miterlimit:10;}
	.st26{fill:url(#SVGID_27_);stroke:#3A4445;stroke-miterlimit:10;}
	.st27{fill:url(#SVGID_28_);stroke:#D88600;stroke-miterlimit:10;}
	.st28{fill:url(#SVGID_29_);}
	.st29{fill:url(#SVGID_30_);}
	.st30{fill:url(#SVGID_31_);stroke:#3A4445;stroke-miterlimit:10;}
	.st31{fill:url(#SVGID_32_);stroke:#D88600;stroke-miterlimit:10;}
	.st32{fill:url(#SVGID_33_);stroke:#D88600;stroke-miterlimit:10;}
	.st33{fill:url(#SVGID_34_);stroke:#D88600;stroke-miterlimit:10;}
	.st34{fill:#262626;}
	.st35{fill:url(#SVGID_35_);stroke:#D88600;stroke-miterlimit:10;}
	.st36{fill:url(#SVGID_36_);stroke:#D88600;stroke-miterlimit:10;}
	.st37{fill:url(#SVGID_37_);stroke:#D88600;stroke-miterlimit:10;}
	.st38{fill:url(#SVGID_38_);}
	.st39{fill:url(#SVGID_39_);stroke:#3A4445;stroke-miterlimit:10;}
	.st40{fill:url(#SVGID_40_);stroke:#3A4445;stroke-miterlimit:10;}
	.st41{fill:url(#SVGID_41_);stroke:#D88600;stroke-miterlimit:10;}
	.st42{fill:url(#SVGID_42_);stroke:#212121;stroke-miterlimit:10;}
	.st43{fill:url(#SVGID_43_);stroke:#3A4445;stroke-miterlimit:10;}
	.st44{fill:#7E8887;stroke:#505E5F;stroke-miterlimit:10;}
	.st45{fill:url(#SVGID_44_);stroke:#212121;stroke-miterlimit:10;}
	.st46{fill:url(#SVGID_45_);stroke:#3A4445;stroke-miterlimit:10;}
	.st47{fill:url(#SVGID_46_);stroke:#D88600;stroke-miterlimit:10;}
	.st48{fill:url(#SVGID_47_);stroke:#D88600;stroke-miterlimit:10;}
	.st49{fill:url(#SVGID_48_);stroke:#D88600;stroke-miterlimit:10;}
	.st50{fill:url(#SVGID_49_);stroke:#D88600;stroke-miterlimit:10;}
	.st51{fill:url(#SVGID_50_);}
	.st52{fill:url(#SVGID_51_);stroke:#D88600;stroke-miterlimit:10;}
	.st53{fill:url(#SVGID_52_);stroke:#3A4445;stroke-miterlimit:10;}
	.st54{fill:url(#SVGID_53_);stroke:#D88600;stroke-miterlimit:10;}
	.st55{fill:url(#SVGID_54_);}
	.st56{fill:url(#SVGID_55_);stroke:#D88600;stroke-miterlimit:10;}
	.st57{fill:url(#SVGID_56_);}
	.st58{fill:#AFBDBB;}
	.st59{fill:url(#SVGID_57_);stroke:#D88600;stroke-miterlimit:10;}
	.st60{fill:url(#SVGID_58_);stroke:#D88600;stroke-miterlimit:10;}
	.st61{fill:url(#SVGID_59_);}
	.st62{fill:url(#SVGID_60_);stroke:#D88600;stroke-miterlimit:10;}
	.st63{fill:url(#SVGID_61_);stroke:#D88600;stroke-miterlimit:10;}
	.st64{fill:url(#SVGID_62_);}
	.st65{fill:url(#SVGID_63_);stroke:#D88600;stroke-miterlimit:10;}
	.st66{fill:url(#SVGID_64_);stroke:#D88600;stroke-miterlimit:10;}
	.st67{fill:url(#SVGID_65_);}
	.st68{fill:url(#SVGID_66_);stroke:#D88600;stroke-miterlimit:10;}
	.st69{fill:url(#SVGID_67_);}
	.st70{fill:url(#SVGID_68_);}
	.st71{fill:url(#SVGID_69_);}
	.st72{fill:url(#SVGID_70_);stroke:#D88600;stroke-miterlimit:10;}
	.st73{fill:url(#SVGID_71_);}
	.st74{fill:url(#SVGID_72_);}
	.st75{fill:url(#SVGID_73_);}
	.st76{fill:url(#SVGID_74_);}
	.st77{fill:url(#SVGID_75_);}
	.st78{fill:url(#SVGID_76_);stroke:#D88600;stroke-miterlimit:10;}
	.st79{fill:url(#SVGID_77_);}
	.st80{fill:url(#SVGID_78_);}
	.st81{fill:url(#SVGID_79_);stroke:#D88600;stroke-miterlimit:10;}
	.st82{fill:url(#SVGID_80_);}
	.st83{fill:url(#SVGID_81_);}
	.st84{fill:url(#SVGID_82_);stroke:#D88600;stroke-miterlimit:10;}
	.st85{fill:url(#SVGID_83_);}
	.st86{fill:url(#SVGID_84_);stroke:#D88600;stroke-miterlimit:10;}
	.st87{fill:url(#SVGID_85_);stroke:#D88600;stroke-miterlimit:10;}
	.st88{fill:url(#SVGID_86_);stroke:#D88600;stroke-miterlimit:10;}
	.st89{fill:url(#SVGID_87_);}
	.st90{fill:url(#SVGID_88_);stroke:#D88600;stroke-miterlimit:10;}
	.st91{fill:url(#SVGID_89_);}
	.st92{fill:url(#SVGID_90_);stroke:#D88600;stroke-miterlimit:10;}
	.st93{fill:url(#SVGID_91_);stroke:#D88600;stroke-miterlimit:10;}
	.st94{fill:url(#SVGID_92_);}
	.st95{fill:url(#SVGID_93_);}
	.st96{fill:url(#SVGID_94_);}
	.st97{fill:url(#SVGID_95_);stroke:#3A4445;stroke-miterlimit:10;}
	.st98{fill:url(#SVGID_96_);stroke:#505E5F;stroke-miterlimit:10;}
	.st99{fill:url(#SVGID_97_);}
	.st100{fill:url(#SVGID_98_);}
	.st101{fill:url(#SVGID_99_);}
	.st102{fill:#FFFFFF;}
	.st103{fill:url(#SVGID_100_);stroke:#3A4445;stroke-miterlimit:10;}
	.st104{fill:url(#SVGID_101_);stroke:#3A4445;stroke-miterlimit:10;}
	.st105{fill:#8E9998;}
	.st106{fill:url(#SVGID_102_);stroke:#3A4445;stroke-miterlimit:10;}
	.st107{fill:url(#SVGID_103_);stroke:#3A4445;stroke-miterlimit:10;}
	.st108{fill:url(#SVGID_104_);stroke:#3A4445;stroke-miterlimit:10;}
	.st109{fill:url(#SVGID_105_);stroke:#3A4445;stroke-miterlimit:10;}
	.st110{fill:url(#SVGID_106_);stroke:#3A4445;stroke-miterlimit:10;}
	.st111{fill:#B1BFBE;}
	.st112{fill:url(#SVGID_107_);stroke:#3A4445;stroke-miterlimit:10;}
	.st113{fill:url(#SVGID_108_);stroke:#3A4445;stroke-miterlimit:10;}
	.st114{fill:url(#SVGID_109_);stroke:#3A4445;stroke-miterlimit:10;}
	.st115{fill:url(#SVGID_110_);stroke:#3A4445;stroke-miterlimit:10;}
	.st116{fill:url(#SVGID_111_);stroke:#3A4445;stroke-miterlimit:10;}
	.st117{fill:url(#SVGID_112_);stroke:#D88600;stroke-miterlimit:10;}
	.st118{fill:url(#SVGID_113_);stroke:#3A4445;stroke-miterlimit:10;}
	.st119{fill:url(#SVGID_114_);stroke:#D88600;stroke-miterlimit:10;}
	.st120{fill:url(#SVGID_115_);stroke:#D88600;stroke-miterlimit:10;}
	.st121{fill:url(#SVGID_116_);}
	.st122{fill:url(#SVGID_117_);stroke:#3A4445;stroke-miterlimit:10;}
	.st123{fill:url(#SVGID_118_);}
	.st124{fill:url(#SVGID_119_);stroke:#3A4445;stroke-miterlimit:10;}
	.st125{fill:url(#SVGID_120_);stroke:#D88600;stroke-miterlimit:10;}
	.st126{fill:url(#SVGID_121_);stroke:#D88600;stroke-miterlimit:10;}
	.st127{fill:url(#SVGID_122_);}
	.st128{fill:url(#SVGID_123_);stroke:#D88600;stroke-miterlimit:10;}
	.st129{fill:url(#SVGID_124_);stroke:#D88600;stroke-miterlimit:10;}
	.st130{fill:url(#SVGID_125_);stroke:#D88600;stroke-miterlimit:10;}
	.st131{fill:url(#SVGID_126_);}
	.st132{fill:url(#SVGID_127_);stroke:#3A4445;stroke-miterlimit:10;}
	.st133{fill:#BBC9C8;}
	.st134{fill:url(#SVGID_128_);}
	.st135{fill:url(#SVGID_129_);stroke:#D88600;stroke-miterlimit:10;}
	.st136{fill:url(#SVGID_130_);}
	.st137{fill:url(#SVGID_131_);}
	.st138{fill:url(#SVGID_132_);stroke:#D88600;stroke-miterlimit:10;}
	.st139{fill:url(#SVGID_133_);}
	.st140{fill:url(#SVGID_134_);stroke:#D88600;stroke-miterlimit:10;}
	.st141{fill:url(#SVGID_135_);}
	.st142{fill:url(#SVGID_136_);stroke:#D88600;stroke-miterlimit:10;}
	.st143{fill:url(#SVGID_137_);stroke:#D88600;stroke-miterlimit:10;}
	.st144{fill:url(#SVGID_138_);stroke:#D88600;stroke-miterlimit:10;}
	.st145{fill:url(#SVGID_139_);stroke:#D88600;stroke-miterlimit:10;}
	.st146{fill:url(#SVGID_140_);stroke:#D88600;stroke-miterlimit:10;}
	.st147{fill:url(#SVGID_141_);stroke:#D88600;stroke-miterlimit:10;}
	.st148{fill:url(#SVGID_142_);}
	.st149{fill:url(#SVGID_143_);stroke:#D88600;stroke-miterlimit:10;}
	.st150{fill:url(#SVGID_144_);}
	.st151{fill:url(#SVGID_145_);stroke:#D88600;stroke-miterlimit:10;}
	.st152{fill:url(#SVGID_146_);stroke:#D88600;stroke-miterlimit:10;}
	.st153{fill:url(#SVGID_147_);}
	.st154{fill:url(#SVGID_148_);}
	.st155{fill:url(#SVGID_149_);stroke:#D88600;stroke-miterlimit:10;}
	.st156{fill:url(#SVGID_150_);}
	.st157{fill:url(#SVGID_151_);stroke:#D88600;stroke-miterlimit:10;}
	.st158{fill:url(#SVGID_152_);}
	.st159{fill:url(#SVGID_153_);}
	.st160{fill:url(#SVGID_154_);}
	.st161{fill:url(#SVGID_155_);}
	.st162{fill:url(#SVGID_156_);}
	.st163{fill:url(#SVGID_157_);stroke:#D88600;stroke-miterlimit:10;}
	.st164{fill:url(#SVGID_158_);stroke:#D88600;stroke-miterlimit:10;}
	.st165{fill:url(#SVGID_159_);stroke:#D88600;stroke-miterlimit:10;}
	.st166{fill:url(#SVGID_160_);stroke:#D88600;stroke-miterlimit:10;}
	.st167{fill:url(#SVGID_161_);}
	.st168{fill:url(#SVGID_162_);stroke:#D88600;stroke-miterlimit:10;}
	.st169{fill:url(#SVGID_163_);}
	.st170{fill:url(#SVGID_164_);stroke:#D88600;stroke-miterlimit:10;}
	.st171{fill:url(#SVGID_165_);stroke:#212121;stroke-miterlimit:10;}
	.st172{fill:url(#SVGID_166_);stroke:#212121;stroke-miterlimit:10;}
	.st173{fill:url(#SVGID_167_);stroke:#D88600;stroke-miterlimit:10;}
	.st174{fill:url(#SVGID_168_);stroke:#D88600;stroke-miterlimit:10;}
	.st175{fill:url(#SVGID_169_);stroke:#D88600;stroke-miterlimit:10;}
	.st176{fill:url(#SVGID_170_);}
	.st177{fill:url(#SVGID_171_);stroke:#D88600;stroke-miterlimit:10;}
	.st178{fill:url(#SVGID_172_);stroke:#212121;stroke-miterlimit:10;}
	.st179{fill:url(#SVGID_173_);stroke:#D88600;stroke-miterlimit:10;}
	.st180{fill:url(#SVGID_174_);stroke:#212121;stroke-miterlimit:10;}
	.st181{fill:url(#SVGID_175_);stroke:#212121;stroke-miterlimit:10;}
	.st182{fill:url(#SVGID_176_);stroke:#D88600;stroke-miterlimit:10;}
	.st183{fill:url(#SVGID_177_);stroke:#212121;stroke-miterlimit:10;}
	.st184{fill:url(#SVGID_178_);stroke:#D88600;stroke-miterlimit:10;}
	.st185{fill:url(#SVGID_179_);stroke:#D88600;stroke-miterlimit:10;}
	.st186{fill:url(#SVGID_180_);}
	.st187{fill:url(#SVGID_181_);stroke:#D88600;stroke-miterlimit:10;}
	.st188{fill:url(#SVGID_182_);stroke:#D88600;stroke-miterlimit:10;}
	.st189{fill:url(#SVGID_183_);stroke:#D88600;stroke-miterlimit:10;}
	.st190{fill:url(#SVGID_184_);}
	.st191{fill:url(#SVGID_185_);}
	.st192{fill:url(#SVGID_186_);stroke:#3A4445;stroke-miterlimit:10;}
	.st193{fill:url(#SVGID_187_);stroke:#3A4445;stroke-miterlimit:10;}
	.st194{fill:url(#SVGID_188_);stroke:#D88600;stroke-miterlimit:10;}
	.st195{fill:url(#SVGID_189_);}
	.st196{fill:url(#SVGID_190_);stroke:#3A4445;stroke-miterlimit:10;}
	.st197{fill:url(#SVGID_191_);stroke:#D88600;stroke-miterlimit:10;}
	.st198{fill:url(#SVGID_192_);stroke:#D88600;stroke-miterlimit:10;}
	.st199{fill:url(#SVGID_193_);}
	.st200{fill:url(#SVGID_194_);stroke:#3A4445;stroke-miterlimit:10;}
	.st201{fill:url(#SVGID_195_);stroke:#D88600;stroke-miterlimit:10;}
	.st202{fill:url(#SVGID_196_);stroke:#D88600;stroke-miterlimit:10;}
	.st203{fill:url(#SVGID_197_);stroke:#D88600;stroke-miterlimit:10;}
	.st204{fill:url(#SVGID_198_);}
	.st205{fill:url(#SVGID_199_);stroke:#3A4445;stroke-miterlimit:10;}
	.st206{fill:url(#SVGID_200_);stroke:#D88600;stroke-miterlimit:10;}
	.st207{fill:url(#SVGID_201_);stroke:#212121;stroke-miterlimit:10;}
	.st208{fill:url(#SVGID_202_);stroke:#3A4445;stroke-miterlimit:10;}
	.st209{fill:url(#SVGID_203_);stroke:#D88600;stroke-miterlimit:10;}
	.st210{fill:url(#SVGID_204_);stroke:#3A4445;stroke-miterlimit:10;}
	.st211{fill:url(#SVGID_205_);stroke:#3A4445;stroke-miterlimit:10;}
	.st212{fill:url(#SVGID_206_);}
	.st213{fill:url(#SVGID_207_);stroke:#212121;stroke-miterlimit:10;}
	.st214{fill:url(#SVGID_208_);stroke:#3A4445;stroke-miterlimit:10;}
	.st215{fill:url(#SVGID_209_);stroke:#D88600;stroke-miterlimit:10;}
	.st216{fill:url(#SVGID_210_);}
	.st217{fill:url(#SVGID_211_);stroke:#D88600;stroke-linecap:round;stroke-linejoin:round;stroke-miterlimit:10;}
	.st218{fill:url(#SVGID_212_);}
	.st219{fill:url(#SVGID_213_);}
	.st220{fill:url(#SVGID_214_);stroke:#D88600;stroke-miterlimit:10;}
	.st221{fill:url(#SVGID_215_);}
	.st222{fill:#E69704;stroke:#D88600;stroke-linecap:round;stroke-linejoin:round;stroke-miterlimit:10;}
	.st223{fill:url(#SVGID_216_);stroke:#D88600;stroke-miterlimit:10;}
	.st224{fill:url(#SVGID_217_);}
	.st225{fill:url(#SVGID_218_);stroke:#D88600;stroke-miterlimit:10;}
	.st226{fill:url(#SVGID_219_);stroke:#D88600;stroke-miterlimit:10;}
	.st227{fill:url(#SVGID_220_);stroke:#D88600;stroke-miterlimit:10;}
	.st228{fill:url(#SVGID_221_);stroke:#D88600;stroke-miterlimit:10;}
	.st229{fill:url(#SVGID_222_);stroke:#3A4445;stroke-miterlimit:10;}
	.st230{fill:url(#SVGID_223_);stroke:#3A4445;stroke-miterlimit:10;}
	.st231{fill:url(#SVGID_224_);stroke:#3A4445;stroke-miterlimit:10;}
	.st232{fill:url(#SVGID_225_);stroke:#3A4445;stroke-miterlimit:10;}
	.st233{fill:url(#SVGID_226_);stroke:#3A4445;stroke-miterlimit:10;}
	.st234{fill:url(#SVGID_227_);stroke:#3A4445;stroke-miterlimit:10;}
	.st235{fill:url(#SVGID_228_);stroke:#3A4445;stroke-miterlimit:10;}
	.st236{fill:url(#SVGID_229_);stroke:#3A4445;stroke-miterlimit:10;}
	.st237{fill:url(#SVGID_230_);stroke:#3A4445;stroke-miterlimit:10;}
	.st238{fill:url(#SVGID_231_);stroke:#3A4445;stroke-miterlimit:10;}
	.st239{fill:url(#SVGID_232_);stroke:#3A4445;stroke-miterlimit:10;}
	.st240{fill:url(#SVGID_233_);stroke:#3A4445;stroke-miterlimit:10;}
	.st241{fill:url(#SVGID_234_);stroke:#3A4445;stroke-miterlimit:10;}
	.st242{fill:url(#SVGID_235_);stroke:#D88600;stroke-miterlimit:10;}
	.st243{fill:url(#SVGID_236_);stroke:#3A4445;stroke-miterlimit:10;}
	.st244{fill:url(#SVGID_237_);stroke:#3A4445;stroke-miterlimit:10;}
	.st245{fill:url(#SVGID_238_);stroke:#D88600;stroke-miterlimit:10;}
	.st246{fill:url(#SVGID_239_);}
	.st247{fill:url(#SVGID_240_);stroke:#D88600;stroke-miterlimit:10;}
	.st248{fill:url(#SVGID_241_);}
	.st249{fill:url(#SVGID_242_);stroke:#D88600;stroke-miterlimit:10;}
	.st250{fill:url(#SVGID_243_);}
	.st251{fill:url(#SVGID_244_);}
	.st252{fill:url(#SVGID_245_);stroke:#D88600;stroke-miterlimit:10;}
	.st253{fill:url(#SVGID_246_);stroke:#D88600;stroke-miterlimit:10;}
	.st254{fill:url(#SVGID_247_);}
	.st255{fill:url(#SVGID_248_);stroke:#D88600;stroke-miterlimit:10;}
	.st256{fill:url(#SVGID_249_);}
	.st257{fill:url(#SVGID_250_);}
	.st258{fill:url(#SVGID_251_);stroke:#D88600;stroke-miterlimit:10;}
	.st259{fill:url(#SVGID_252_);stroke:#D88600;stroke-miterlimit:10;}
	.st260{fill:url(#SVGID_253_);stroke:#D88600;stroke-miterlimit:10;}
	.st261{fill:url(#SVGID_254_);}
	.st262{fill:url(#SVGID_255_);stroke:#D88600;stroke-miterlimit:10;}
	.st263{fill:url(#SVGID_256_);}
	.st264{fill:url(#SVGID_257_);stroke:#D88600;stroke-miterlimit:10;}
	.st265{fill:url(#SVGID_258_);stroke:#D88600;stroke-miterlimit:10;}
	.st266{fill:url(#SVGID_259_);}
	.st267{fill:url(#SVGID_260_);stroke:#D88600;stroke-miterlimit:10;}
	.st268{fill:url(#SVGID_261_);stroke:#D88600;stroke-miterlimit:10;}
	.st269{fill:url(#SVGID_262_);stroke:#D88600;stroke-miterlimit:10;}
	.st270{fill:url(#SVGID_263_);}
	.st271{fill:url(#SVGID_264_);stroke:#D88600;stroke-miterlimit:10;}
	.st272{fill:url(#SVGID_265_);}
	.st273{fill:url(#SVGID_266_);stroke:#3A4445;stroke-miterlimit:10;}
	.st274{fill:url(#SVGID_267_);stroke:#3A4445;stroke-miterlimit:10;}
	.st275{fill:url(#SVGID_268_);stroke:#3A4445;stroke-miterlimit:10;}
	.st276{fill:url(#SVGID_269_);stroke:#3A4445;stroke-miterlimit:10;}
	.st277{fill:url(#SVGID_270_);stroke:#3A4445;stroke-miterlimit:10;}
	.st278{fill:url(#SVGID_271_);stroke:#3A4445;stroke-miterlimit:10;}
	.st279{fill:url(#SVGID_272_);stroke:#3A4445;stroke-miterlimit:10;}
	.st280{fill:url(#SVGID_273_);stroke:#3A4445;stroke-miterlimit:10;}
	.st281{fill:url(#SVGID_274_);stroke:#3A4445;stroke-miterlimit:10;}
	.st282{fill:url(#SVGID_275_);stroke:#3A4445;stroke-miterlimit:10;}
	.st283{fill:url(#SVGID_276_);stroke:#3A4445;stroke-miterlimit:10;}
	.st284{fill:url(#SVGID_277_);stroke:#3A4445;stroke-miterlimit:10;}
	.st285{fill:url(#SVGID_278_);stroke:#3A4445;stroke-miterlimit:10;}
	.st286{fill:#9CA8A7;}
	.st287{fill:none;stroke:#7E8887;stroke-width:2;stroke-miterlimit:10;}
	.st288{fill:#A1ADAC;}
	.st289{fill:#505E5F;}
	.st290{fill:url(#SVGID_279_);stroke:#D88600;stroke-miterlimit:10;}
	.st291{fill:url(#SVGID_280_);stroke:#D88600;stroke-miterlimit:10;}
	.st292{fill:url(#SVGID_281_);stroke:#D88600;stroke-miterlimit:10;}
	.st293{fill:url(#SVGID_282_);stroke:#D88600;stroke-miterlimit:10;}
	.st294{fill:url(#SVGID_283_);stroke:#D88600;stroke-miterlimit:10;}
	.st295{fill:url(#SVGID_284_);}
	.st296{fill:url(#SVGID_285_);}
	.st297{fill:url(#SVGID_286_);}
	.st298{fill:url(#SVGID_287_);}
	.st299{fill:url(#SVGID_288_);}
	.st300{fill:url(#SVGID_289_);}
	.st301{fill:url(#SVGID_290_);stroke:#D88600;stroke-miterlimit:10;}
	.st302{fill:url(#SVGID_291_);}
	.st303{fill:url(#SVGID_292_);stroke:#D88600;stroke-miterlimit:10;}
	.st304{fill:url(#SVGID_293_);stroke:#D88600;stroke-miterlimit:10;}
	.st305{fill:url(#SVGID_294_);}
	.st306{fill:url(#SVGID_295_);stroke:#D88600;stroke-miterlimit:10;}
	.st307{fill:url(#SVGID_296_);}
	.st308{fill:url(#SVGID_297_);stroke:#D88600;stroke-miterlimit:10;}
	.st309{fill:url(#SVGID_298_);}
	.st310{fill:url(#SVGID_299_);stroke:#D88600;stroke-miterlimit:10;}
	.st311{fill:url(#SVGID_300_);}
	.st312{fill:url(#SVGID_301_);stroke:#D88600;stroke-miterlimit:10;}
	.st313{fill:url(#SVGID_302_);}
	.st314{fill:url(#SVGID_303_);stroke:#D88600;stroke-miterlimit:10;}
	.st315{fill:url(#SVGID_304_);stroke:#D88600;stroke-miterlimit:10;}
	.st316{fill:url(#SVGID_305_);stroke:#D88600;stroke-miterlimit:10;}
	.st317{fill:url(#SVGID_306_);stroke:#D88600;stroke-miterlimit:10;}
</style>
<g id="Background">
</g>
<g id="Objects">
	<g>
		<g>
			<path class="st44" d="M246.6,28.2c6.4,4.9,26.6,26.4,26.6,26.4s5.2,1.2,5.2-0.3s-30.7-30.1-30.7-30.1L246.6,28.2z"/>
			<linearGradient id="SVGID_1_" gradientUnits="userSpaceOnUse" x1="264.9466" y1="69.5561" x2="301.1421" y2="69.5561">
				<stop  offset="0" style="stop-color:#FFA901"/>
				<stop  offset="1" style="stop-color:#FFC71E"/>
			</linearGradient>
			<path style="fill:url(#SVGID_1_);stroke:#D88600;stroke-miterlimit:10;" d="M264.9,55.1c7.8-1.4,12.2-1.7,13.3,0.6
				c1.2,2.3,22.9,27.5,22.9,27.5l-7.8,2L264.9,55.1z"/>
			<path class="st44" d="M197.2,13.9c7.2-3.2,14.2-6.4,14.2-6.4l1.2,3.2l-14.5,6.4L197.2,13.9z"/>
			<linearGradient id="SVGID_2_" gradientUnits="userSpaceOnUse" x1="247.6316" y1="49.6764" x2="259.3639" y2="35.9887">
				<stop  offset="0" style="stop-color:#FFA901"/>
				<stop  offset="1" style="stop-color:#FFC71E"/>
			</linearGradient>
			<path style="fill:url(#SVGID_2_);stroke:#D88600;stroke-miterlimit:10;" d="M298,84c-10.4-8.4-40.8-43.1-42.6-44.6
				c-1.7-1.4-5.2-15.3-11-20.3c-5.8-4.9-28.4-21.7-33.9-18.8c-5.5,2.9,2,14.5,9.6,24.9s62.3,57,64,58.8C285.8,85.8,298,84,298,84z"
				/>
			<linearGradient id="SVGID_3_" gradientUnits="userSpaceOnUse" x1="248.0568" y1="-13.7398" x2="278.2743" y2="263.2549">
				<stop  offset="0" style="stop-color:#FFE926"/>
				<stop  offset="1" style="stop-color:#FFE926;stop-opacity:0.3"/>
			</linearGradient>
			<path style="fill:url(#SVGID_3_);" d="M212.6,1.3c6,1.7,23.2,12.7,28,16.3s6.7,5.7,8.4,12.2c1.7,6.5,3.1,9.1,3.1,9.1l43.8,45.7
				l-6.2-1.4c0,0-38.8-41.2-41.2-43.5C246.1,37.2,225.3,8.7,212.6,1.3z"/>
			<linearGradient id="SVGID_4_" gradientUnits="userSpaceOnUse" x1="275.0039" y1="54.1847" x2="281.3743" y2="54.1847">
				<stop  offset="0" style="stop-color:#FFA901"/>
				<stop  offset="1" style="stop-color:#FFC71E"/>
			</linearGradient>
			<circle style="fill:url(#SVGID_4_);stroke:#D88600;stroke-miterlimit:10;" cx="278.2" cy="54.2" r="3.2"/>
			<linearGradient id="SVGID_5_" gradientUnits="userSpaceOnUse" x1="242.9397" y1="24.6566" x2="246.4145" y2="24.6566">
				<stop  offset="0" style="stop-color:#FFA901"/>
				<stop  offset="1" style="stop-color:#FFC71E"/>
			</linearGradient>
			<circle class="st4" cx="244.7" cy="24.7" r="1.7"/>
			<linearGradient id="SVGID_6_" gradientUnits="userSpaceOnUse" x1="213.9833" y1="4.9662" x2="217.458" y2="4.9662">
				<stop  offset="0" style="stop-color:#FFA901"/>
				<stop  offset="1" style="stop-color:#FFC71E"/>
			</linearGradient>
			<circle style="fill:url(#SVGID_6_);stroke:#D88600;stroke-miterlimit:10;" cx="215.7" cy="5" r="1.7"/>
		</g>
		<g>
			<polygon class="st44" points="292.7,145.7 292.7,209.4 295.4,215.8 297.3,208.2 297.3,144.5 			"/>
			<linearGradient id="SVGID_7_" gradientUnits="userSpaceOnUse" x1="292.6515" y1="150.097" x2="297.2845" y2="150.097">
				<stop  offset="0" style="stop-color:#3A4445;stop-opacity:0.2"/>
				<stop  offset="1" style="stop-color:#3A4445;stop-opacity:0.5"/>
			</linearGradient>
			<path class="st6" d="M292.7,155.7c1.5-0.7,2.9-1.3,4.6-1.4v-9.7l-4.6,1.2V155.7z"/>
			<linearGradient id="SVGID_8_" gradientUnits="userSpaceOnUse" x1="280.3497" y1="115.4349" x2="304.3496" y2="115.4349">
				<stop  offset="0" style="stop-color:#68706F"/>
				<stop  offset="1" style="stop-color:#8F9998"/>
			</linearGradient>
			<polygon style="fill:url(#SVGID_8_);stroke:#3A4445;stroke-miterlimit:10;" points="277.6,81.7 305.4,82 305.1,149.2 286,148.3 
							"/>
			<rect x="302.5" y="83.5" class="st133" width="1.5" height="64.2"/>
			<linearGradient id="SVGID_9_" gradientUnits="userSpaceOnUse" x1="277.5942" y1="115.2785" x2="290.3497" y2="115.2785">
				<stop  offset="0" style="stop-color:#3A4445;stop-opacity:0.2"/>
				<stop  offset="1" style="stop-color:#3A4445;stop-opacity:0.5"/>
			</linearGradient>
			<path class="st8" d="M286,148.3l4.4,0.6c-1.7-17-5.1-42.3-8.1-67.1l-4.6,0L286,148.3z"/>
		</g>
		<g>
			<path class="st44" d="M202.5,20.7c-2-5.8-5-8.9-5-8.9l-9,4.7l1.1,1.7l-37.9,18.2l8.5,3.5l24-13l4.1,2.3L202.5,20.7z"/>
			<linearGradient id="SVGID_10_" gradientUnits="userSpaceOnUse" x1="85.136" y1="101.733" x2="92.4274" y2="99.3025">
				<stop  offset="0" style="stop-color:#FFA901"/>
				<stop  offset="1" style="stop-color:#FFC71E"/>
			</linearGradient>
			<path style="fill:url(#SVGID_10_);stroke:#D88600;stroke-miterlimit:10;" d="M87.1,80.1c0.4,3.7,7.9,19.3,16.5,29.5
				c-0.5,5.8-2.8,10.9-2.8,10.9S79.4,89.6,80.5,79.2C82.6,78.6,87.1,80.1,87.1,80.1z"/>
			<g>
				<linearGradient id="SVGID_11_" gradientUnits="userSpaceOnUse" x1="80.4862" y1="81.5333" x2="88.2818" y2="81.5333">
					<stop  offset="0" style="stop-color:#D88600;stop-opacity:0.7047"/>
					<stop  offset="1" style="stop-color:#D88600;stop-opacity:0.4615"/>
				</linearGradient>
				<path style="fill:url(#SVGID_11_);" d="M88.2,83.9c0,0,0.1,0,0.1,0c-0.7-1.7-1.1-3-1.1-3.8c0,0-4.6-1.6-6.6-0.9
					c-0.1,1.2,0,2.6,0.4,4.3C82.5,83.9,84.2,84.1,88.2,83.9z"/>
				<linearGradient id="SVGID_12_" gradientUnits="userSpaceOnUse" x1="91.9082" y1="109.7396" x2="103.6443" y2="109.7396">
					<stop  offset="0" style="stop-color:#D88600;stop-opacity:0.7047"/>
					<stop  offset="1" style="stop-color:#D88600;stop-opacity:0.4615"/>
				</linearGradient>
				<path style="fill:url(#SVGID_12_);" d="M96,99c-0.5,2.4-2,5.3-4.1,7.7c4.6,7.7,8.9,13.9,8.9,13.9s2.3-5.1,2.8-10.9
					C100.9,106.4,98.3,102.7,96,99z"/>
			</g>
			<linearGradient id="SVGID_13_" gradientUnits="userSpaceOnUse" x1="111.0309" y1="87.1581" x2="117.377" y2="85.1327">
				<stop  offset="0" style="stop-color:#FFA901"/>
				<stop  offset="1" style="stop-color:#FFC71E"/>
			</linearGradient>
			<path style="fill:url(#SVGID_13_);stroke:#D88600;stroke-miterlimit:10;" d="M112.4,72.3c1.4,5.2,5.9,17,7.9,21.2
				c1.9,4.2,0.9,8-3,2.4c-3.9-5.5-6.5-13-9.1-21.1L112.4,72.3z"/>
			<linearGradient id="SVGID_14_" gradientUnits="userSpaceOnUse" x1="110.6566" y1="71.4792" x2="113.266" y2="95.3986">
				<stop  offset="0" style="stop-color:#D88600;stop-opacity:0.7047"/>
				<stop  offset="1" style="stop-color:#D88600;stop-opacity:0.4615"/>
			</linearGradient>
			<path class="st13" d="M112.4,72.3l-4.3,2.5c0.6,1.9,1.3,3.9,1.9,5.7c1.6-0.9,2.9-1.7,4.3-2.2C113.5,76,112.8,73.8,112.4,72.3z"/>
			<linearGradient id="SVGID_15_" gradientUnits="userSpaceOnUse" x1="157.7505" y1="60.5392" x2="147.9736" y2="39.5187">
				<stop  offset="0" style="stop-color:#FFA901"/>
				<stop  offset="1" style="stop-color:#FFC71E"/>
			</linearGradient>
			<path class="st14" d="M211.4,13l4.4,7.2c0,0,6.4-4.8,9-1c2.6,3.8,5.8,10.1-7.5,14.2c-13.3,4.1-105.7,44-113.2,46.3
				C96.4,82,89.8,82.3,84.8,82c-4.9-0.3-7.8-3.2,1.2-8.1s62.8-37.4,65.7-39.1c2.9,2,3.8,5.1,9.6,4.9C170.3,39.4,211.4,13,211.4,13z"
				/>
			<linearGradient id="SVGID_16_" gradientUnits="userSpaceOnUse" x1="145.1798" y1="16.3342" x2="160.738" y2="158.9515">
				<stop  offset="0" style="stop-color:#FFE926"/>
				<stop  offset="1" style="stop-color:#FFE926;stop-opacity:0.3"/>
			</linearGradient>
			<path class="st15" d="M83.9,76.3c8-4.4,60.4-34.7,63-36.7c2.6-2,5.1-2.4,5.1-2.4s5.1,4.9,10.6,4C168,40.4,210.2,15,210.2,15
				l3.3,5.7c0,0-3.8-2.6-6.6-1.3c-2.7,1.3-41.7,23.5-46.9,24.5c-9.3,1.7-14.8,3.8-18.3,5.3c-3.5,1.5-36.8,19-40.3,20.3
				C97.9,70.7,83.9,76.3,83.9,76.3z"/>
			<g>
				<linearGradient id="SVGID_17_" gradientUnits="userSpaceOnUse" x1="147.9626" y1="40.8722" x2="151.4374" y2="40.8722">
					<stop  offset="0" style="stop-color:#FFA901"/>
					<stop  offset="1" style="stop-color:#FFC71E"/>
				</linearGradient>
				<circle style="fill:url(#SVGID_17_);stroke:#D88600;stroke-miterlimit:10;" cx="149.7" cy="40.9" r="1.7"/>
				<linearGradient id="SVGID_18_" gradientUnits="userSpaceOnUse" x1="219.7745" y1="23.4983" x2="223.2493" y2="23.4983">
					<stop  offset="0" style="stop-color:#FFA901"/>
					<stop  offset="1" style="stop-color:#FFC71E"/>
				</linearGradient>
				<circle class="st17" cx="221.5" cy="23.5" r="1.7"/>
				<linearGradient id="SVGID_19_" gradientUnits="userSpaceOnUse" x1="107.4236" y1="65.1956" x2="110.8984" y2="65.1956">
					<stop  offset="0" style="stop-color:#FFA901"/>
					<stop  offset="1" style="stop-color:#FFC71E"/>
				</linearGradient>
				<circle style="fill:url(#SVGID_19_);stroke:#D88600;stroke-miterlimit:10;" cx="109.2" cy="65.2" r="1.7"/>
				<linearGradient id="SVGID_20_" gradientUnits="userSpaceOnUse" x1="83.1002" y1="79.0946" x2="86.575" y2="79.0946">
					<stop  offset="0" style="stop-color:#FFA901"/>
					<stop  offset="1" style="stop-color:#FFC71E"/>
				</linearGradient>
				<circle class="st19" cx="84.8" cy="79.1" r="1.7"/>
			</g>
		</g>
		<g>
			<path class="st44" d="M150,119.2c2.3-0.3,5.4-1,6.1,2.8c0.7,3.8,3,24,3.3,26.5c0.3,2.5,0.7,5.4-3.2,6.4c-3.9,1-3.6,3.6-0.1,2.5
				c3.5-1.2,6.2-2.3,5.5-8.5c-0.7-6.2-2.8-23.6-3.5-27.1c-0.7-3.5-2.8-5.4-8.7-4.8C143.5,117.5,150,119.2,150,119.2z"/>
			<linearGradient id="SVGID_21_" gradientUnits="userSpaceOnUse" x1="122.7912" y1="124.2666" x2="151.9595" y2="124.2666">
				<stop  offset="0" style="stop-color:#FFA901"/>
				<stop  offset="1" style="stop-color:#FFC71E"/>
			</linearGradient>
			<polygon style="fill:url(#SVGID_21_);stroke:#D88600;stroke-miterlimit:10;" points="156.9,155.5 99.3,155.5 99.3,93 148,93 			
				"/>
			<linearGradient id="SVGID_22_" gradientUnits="userSpaceOnUse" x1="60.5142" y1="154.7476" x2="60.5142" y2="139.34">
				<stop  offset="0" style="stop-color:#FFA901"/>
				<stop  offset="1" style="stop-color:#FFC71E"/>
			</linearGradient>
			<rect x="18.2" y="135.8" style="fill:url(#SVGID_22_);stroke:#D88600;stroke-miterlimit:10;" width="84.6" height="22"/>
			<linearGradient id="SVGID_23_" gradientUnits="userSpaceOnUse" x1="18.2378" y1="146.8527" x2="46.5335" y2="146.8527">
				<stop  offset="0" style="stop-color:#D88600;stop-opacity:0.7047"/>
				<stop  offset="1" style="stop-color:#D88600;stop-opacity:0.4615"/>
			</linearGradient>
			<path style="fill:url(#SVGID_23_);" d="M27,145.2c-0.3,8.8-5,9.6-8.8,9.9v2.7h23.9c2.4-7.8,4-17.3,4.3-19c0.2-1-1.8-2-4.5-3H27.6
				C27.4,137.9,27.2,141,27,145.2z"/>
			<linearGradient id="SVGID_24_" gradientUnits="userSpaceOnUse" x1="65.7264" y1="154.7476" x2="65.7264" y2="139.34">
				<stop  offset="0" style="stop-color:#FFA901"/>
				<stop  offset="1" style="stop-color:#FFC71E"/>
			</linearGradient>
			<rect x="28.7" y="135.8" style="fill:url(#SVGID_24_);stroke:#D88600;stroke-miterlimit:10;" width="74.1" height="22"/>
			<linearGradient id="SVGID_25_" gradientUnits="userSpaceOnUse" x1="33.7378" y1="146.8527" x2="62.0335" y2="146.8527">
				<stop  offset="0" style="stop-color:#D88600;stop-opacity:0.7047"/>
				<stop  offset="1" style="stop-color:#D88600;stop-opacity:0.4615"/>
			</linearGradient>
			<path style="fill:url(#SVGID_25_);" d="M42.5,145.2c-0.3,8.8-5,9.6-8.8,9.9v2.7h23.9c2.4-7.8,4-17.3,4.3-19c0.2-1-1.8-2-4.5-3
				H43.1C42.9,137.9,42.7,141,42.5,145.2z"/>
			<linearGradient id="SVGID_26_" gradientUnits="userSpaceOnUse" x1="57.6185" y1="120.7919" x2="59.9351" y2="120.7919">
				<stop  offset="0" style="stop-color:#FFA901"/>
				<stop  offset="1" style="stop-color:#FFC71E"/>
			</linearGradient>
			<rect x="57.6" y="113.8" style="fill:url(#SVGID_26_);stroke:#D88600;stroke-miterlimit:10;" width="2.3" height="13.9"/>
			<linearGradient id="SVGID_27_" gradientUnits="userSpaceOnUse" x1="47.339" y1="136.6455" x2="104.7425" y2="136.6455">
				<stop  offset="0" style="stop-color:#FFA901"/>
				<stop  offset="1" style="stop-color:#FFC71E"/>
			</linearGradient>
			<path style="fill:url(#SVGID_27_);stroke:#D88600;stroke-miterlimit:10;" d="M47.3,137c1.9-3.6,5.6-11.6,5.6-11.6h50.4
				c0,0,1.7,15.2,1.3,15.3c-0.4,0.1-22.3,7.1-23.5,7.1C80.1,147.9,47.3,137,47.3,137z"/>
			<linearGradient id="SVGID_28_" gradientUnits="userSpaceOnUse" x1="75.1314" y1="123.3705" x2="77.0872" y2="141.2989">
				<stop  offset="0" style="stop-color:#FFE926"/>
				<stop  offset="1" style="stop-color:#FFE926;stop-opacity:0.3"/>
			</linearGradient>
			<polygon style="fill:url(#SVGID_28_);" points="98,127.6 53,127.6 53.7,126.4 98,126.4 			"/>
			<linearGradient id="SVGID_29_" gradientUnits="userSpaceOnUse" x1="47.339" y1="136.6455" x2="104.7425" y2="136.6455">
				<stop  offset="0" style="stop-color:#D88600;stop-opacity:0.7047"/>
				<stop  offset="1" style="stop-color:#D88600;stop-opacity:0.4615"/>
			</linearGradient>
			<path class="st28" d="M47.3,137c0,0,32.7,10.9,33.9,10.9c1.2,0,23-6.9,23.5-7.1c0.4-0.1-1.3-15.3-1.3-15.3h-6.3
				c0.5,3.5,0.2,6.5-0.1,7.5c-0.3,1-22.5,1.2-31.1,1.1c-7.5-0.1-13.3-0.5-16.1-2C48.9,133.9,48,135.7,47.3,137z"/>
			<path class="st34" d="M56.5,137.6v-7.5h16.8c0,0,5.5,4.8,7.2,7.4C82.2,140,56.5,137.6,56.5,137.6z"/>
			<linearGradient id="SVGID_30_" gradientUnits="userSpaceOnUse" x1="73.8342" y1="154.7476" x2="73.8342" y2="139.34">
				<stop  offset="0" style="stop-color:#FFA901"/>
				<stop  offset="1" style="stop-color:#FFC71E"/>
			</linearGradient>
			<rect x="44.9" y="135.8" style="fill:url(#SVGID_30_);stroke:#D88600;stroke-miterlimit:10;" width="57.9" height="22"/>
			<linearGradient id="SVGID_31_" gradientUnits="userSpaceOnUse" x1="55.2378" y1="146.8527" x2="83.5334" y2="146.8527">
				<stop  offset="0" style="stop-color:#D88600;stop-opacity:0.7047"/>
				<stop  offset="1" style="stop-color:#D88600;stop-opacity:0.4615"/>
			</linearGradient>
			<path style="fill:url(#SVGID_31_);" d="M64,145.2c-0.3,8.8-5,9.6-8.8,9.9v2.7h23.9c2.4-7.8,4-17.3,4.3-19c0.2-1-1.8-2-4.5-3H64.6
				C64.4,137.9,64.2,141,64,145.2z"/>
			<linearGradient id="SVGID_32_" gradientUnits="userSpaceOnUse" x1="84.2585" y1="154.7476" x2="84.2585" y2="139.34">
				<stop  offset="0" style="stop-color:#FFA901"/>
				<stop  offset="1" style="stop-color:#FFC71E"/>
			</linearGradient>
			<rect x="65.7" y="135.8" class="st31" width="37.1" height="22"/>
			<linearGradient id="SVGID_33_" gradientUnits="userSpaceOnUse" x1="23.123" y1="140.6063" x2="23.123" y2="162.3557">
				<stop  offset="0" style="stop-color:#FFE926"/>
				<stop  offset="1" style="stop-color:#FFE926;stop-opacity:0.3"/>
			</linearGradient>
			<rect x="19.7" y="136.7" style="fill:url(#SVGID_33_);" width="6.9" height="2.1"/>
			<linearGradient id="SVGID_34_" gradientUnits="userSpaceOnUse" x1="36.148" y1="140.6063" x2="36.148" y2="162.3557">
				<stop  offset="0" style="stop-color:#FFE926"/>
				<stop  offset="1" style="stop-color:#FFE926;stop-opacity:0.3"/>
			</linearGradient>
			<rect x="30.2" y="136.7" style="fill:url(#SVGID_34_);" width="11.8" height="2.1"/>
			<linearGradient id="SVGID_35_" gradientUnits="userSpaceOnUse" x1="54.7781" y1="140.6063" x2="54.7781" y2="162.3557">
				<stop  offset="0" style="stop-color:#FFE926"/>
				<stop  offset="1" style="stop-color:#FFE926;stop-opacity:0.3"/>
			</linearGradient>
			<rect x="45.9" y="136.7" style="fill:url(#SVGID_35_);" width="17.8" height="2.1"/>
			<linearGradient id="SVGID_36_" gradientUnits="userSpaceOnUse" x1="82.0781" y1="140.6063" x2="82.0781" y2="162.3557">
				<stop  offset="0" style="stop-color:#FFE926"/>
				<stop  offset="1" style="stop-color:#FFE926;stop-opacity:0.3"/>
			</linearGradient>
			<rect x="68.1" y="136.7" style="fill:url(#SVGID_36_);" width="27.9" height="2.1"/>
			<linearGradient id="SVGID_37_" gradientUnits="userSpaceOnUse" x1="87.9044" y1="146.8527" x2="116.2001" y2="146.8527">
				<stop  offset="0" style="stop-color:#D88600;stop-opacity:0.7047"/>
				<stop  offset="1" style="stop-color:#D88600;stop-opacity:0.4615"/>
			</linearGradient>
			<path style="fill:url(#SVGID_37_);" d="M96.7,145.2c-0.3,8.8-5,9.6-8.8,9.9v2.7h23.9c2.4-7.8,4-17.3,4.3-19c0.2-1-1.8-2-4.5-3
				H97.3C97.1,137.9,96.8,141,96.7,145.2z"/>
			<linearGradient id="SVGID_38_" gradientUnits="userSpaceOnUse" x1="99.1619" y1="124.2666" x2="113.2278" y2="124.2666">
				<stop  offset="0" style="stop-color:#FFA901"/>
				<stop  offset="1" style="stop-color:#FFC71E"/>
			</linearGradient>
			<rect x="99.3" y="93" style="fill:url(#SVGID_38_);stroke:#D88600;stroke-miterlimit:10;" width="18.5" height="62.5"/>
			<g>
				<linearGradient id="SVGID_39_" gradientUnits="userSpaceOnUse" x1="123.664" y1="87.7377" x2="88.9974" y2="149.071">
					<stop  offset="0" style="stop-color:#9BCDCE"/>
					<stop  offset="1" style="stop-color:#C0FEFF"/>
				</linearGradient>
				<path style="fill:url(#SVGID_39_);stroke:#D88600;stroke-miterlimit:10;" d="M114.4,124.3c0,3.2-2.6,5.8-5.8,5.8l0,0
					c-3.2,0-5.8-2.6-5.8-5.8v-19.7c0-3.2,2.6-5.8,5.8-5.8l0,0c3.2,0,5.8,2.6,5.8,5.8V124.3z"/>
				<path class="st102" d="M106.2,100.6c2.3-0.8,5.3-0.6,6.3,2.3c1.1,2.9,0.6,21,0.6,21s-1.1-18.9-1.7-20.4
					C110.9,102,109.1,100.9,106.2,100.6z"/>
				<linearGradient id="SVGID_40_" gradientUnits="userSpaceOnUse" x1="124.7862" y1="97.4512" x2="124.5161" y2="94.0755">
					<stop  offset="0" style="stop-color:#FFA901"/>
					<stop  offset="1" style="stop-color:#FFC71E"/>
				</linearGradient>
				<polygon style="fill:url(#SVGID_40_);stroke:#D88600;stroke-miterlimit:10;" points="99.2,92.5 99.7,95.1 149.3,95.5 
					149.5,92.1 				"/>
				<linearGradient id="SVGID_41_" gradientUnits="userSpaceOnUse" x1="141.6078" y1="97.8799" x2="106.9411" y2="159.2133">
					<stop  offset="0" style="stop-color:#9BCDCE"/>
					<stop  offset="1" style="stop-color:#C0FEFF"/>
				</linearGradient>
				<path class="st41" d="M148.4,119.9c-0.2-3.5-0.9-10.4-1.7-16.4c-0.9-6-6.3-4.7-6.3-4.7h-20.3v26.1c4.6,0,20.4,0,24.2-0.2
					C148.6,124.4,148.6,123.3,148.4,119.9z"/>
				<linearGradient id="SVGID_42_" gradientUnits="userSpaceOnUse" x1="138.223" y1="122.0552" x2="148.4919" y2="122.0552">
					<stop  offset="0" style="stop-color:#3A4445;stop-opacity:0.2"/>
					<stop  offset="1" style="stop-color:#3A4445;stop-opacity:0.2"/>
				</linearGradient>
				<path style="fill:url(#SVGID_42_);" d="M139.2,123.9c-0.4,0.3-0.7,0.6-1,0.9c2.7,0,5-0.1,6.1-0.1c4.3-0.2,4.3-1.3,4.1-4.7
					c0-0.2,0-0.3,0-0.5c-0.8,0.1-1.5,0.2-2.3,0.5C143.5,120.7,141.3,122.1,139.2,123.9z"/>
				<path class="st102" d="M123.5,100.6c7.2-0.5,16.2-1.4,19.7,1.1c1.7,1.2,2.1,2.6,2.6,9c0.5,6.4,0.6,10.8,0.6,10.8
					s-1.5-13.3-2.7-16.1c-1.2-2.9-4.1-4.1-6.9-4.1C134,101.2,123.5,100.6,123.5,100.6z"/>
				<linearGradient id="SVGID_43_" gradientUnits="userSpaceOnUse" x1="156.1669" y1="106.109" x2="121.5002" y2="167.4423">
					<stop  offset="0" style="stop-color:#9BCDCE"/>
					<stop  offset="1" style="stop-color:#C0FEFF"/>
				</linearGradient>
				<path style="fill:url(#SVGID_43_);stroke:#D88600;stroke-miterlimit:10;" d="M120.2,128.3v25.4l32.6-0.1c0,0-1.7-17.8-2.4-21.3
					c-0.6-3.5-1.9-4.1-6.3-4.1C139.8,128.3,120.2,128.3,120.2,128.3z"/>
				<linearGradient id="SVGID_44_" gradientUnits="userSpaceOnUse" x1="120.1644" y1="141.0147" x2="152.7397" y2="141.0147">
					<stop  offset="0" style="stop-color:#3A4445;stop-opacity:0.2"/>
					<stop  offset="1" style="stop-color:#3A4445;stop-opacity:0.2"/>
				</linearGradient>
				<path style="fill:url(#SVGID_44_);" d="M150.4,132.4c-0.6-3.5-1.9-4.1-6.3-4.1c-1.5,0-4.7,0-8.3,0c-0.1,0.1-0.1,0.3-0.2,0.4
					c-0.6,1.7-1.6,3.6-3.7,3.6c-3.9,0-7.7,0.4-11.6,0.4l-0.2,0.1v21l32.6-0.1C152.7,153.7,151,135.8,150.4,132.4z"/>
				<path class="st102" d="M123.4,129.9c8.1,0,20.1-0.3,21.5-0.2c1.4,0.2,3.8,0.8,4.4,5.5c0.6,4.7,1.7,16.9,1.7,16.9
					s-2.7-16.3-3.5-18.3c-0.8-2-2.4-3-5.2-3S123.4,129.9,123.4,129.9z"/>
			</g>
			<linearGradient id="SVGID_45_" gradientUnits="userSpaceOnUse" x1="48.7726" y1="179.3363" x2="137.5909" y2="179.3363">
				<stop  offset="0" style="stop-color:#FFA901"/>
				<stop  offset="1" style="stop-color:#FFC71E"/>
			</linearGradient>
			<rect x="48.8" y="173.7" style="fill:url(#SVGID_45_);stroke:#D88600;stroke-miterlimit:10;" width="88.8" height="11.2"/>
			<linearGradient id="SVGID_46_" gradientUnits="userSpaceOnUse" x1="48.6284" y1="172.3433" x2="124.9747" y2="172.3433">
				<stop  offset="0.5714" style="stop-color:#262626"/>
				<stop  offset="0.8265" style="stop-color:#3D3D3D"/>
				<stop  offset="1" style="stop-color:#262626"/>
			</linearGradient>
			<polygon style="fill:url(#SVGID_46_);stroke:#212121;stroke-miterlimit:10;" points="80.1,161.9 80.1,166.5 86.5,170.4 
				86.5,175.6 48.6,175.6 61.9,183.7 119.3,183.7 120.7,175.2 120.7,170 125,165.7 125,161 			"/>
			<linearGradient id="SVGID_47_" gradientUnits="userSpaceOnUse" x1="3.603739e-05" y1="192.5134" x2="35.1813" y2="192.5134">
				<stop  offset="0.5714" style="stop-color:#262626"/>
				<stop  offset="0.8265" style="stop-color:#3D3D3D"/>
				<stop  offset="1" style="stop-color:#262626"/>
			</linearGradient>
			<path style="fill:url(#SVGID_47_);stroke:#212121;stroke-miterlimit:10;" d="M25.7,175.4c-0.4,0-12.7,8.1-12.7,8.1l-7.1-0.1
				l-0.1,13.6L0,209.3l14.1,0.3l-1.4-5.5l15.9-9.9l6.6-13.3L25.7,175.4z"/>
			<linearGradient id="SVGID_48_" gradientUnits="userSpaceOnUse" x1="22.9634" y1="175.8772" x2="41.8517" y2="175.8772">
				<stop  offset="0" style="stop-color:#FFA901"/>
				<stop  offset="1" style="stop-color:#FFC71E"/>
			</linearGradient>
			<path class="st49" d="M41.9,174c-3.3,0-9.2-0.7-9.2-0.7l-0.4-4.8l-5.9-0.3c0,0-0.6,7.2-1,6.9c-0.4-0.3-2.3,7.2-2.3,7.2
				s5.2,1,5.6,1.2c0.4,0.1,13-5.5,13-5.5L41.9,174z"/>
			<linearGradient id="SVGID_49_" gradientUnits="userSpaceOnUse" x1="87.1541" y1="161.6338" x2="87.1541" y2="166.2265">
				<stop  offset="0" style="stop-color:#FFA901"/>
				<stop  offset="1" style="stop-color:#FFC71E"/>
			</linearGradient>
			<rect x="18.2" y="159" class="st50" width="137.8" height="4.6"/>
			<linearGradient id="SVGID_50_" gradientUnits="userSpaceOnUse" x1="86.575" y1="160.6886" x2="86.575" y2="156.5007">
				<stop  offset="0" style="stop-color:#FFA901"/>
				<stop  offset="1" style="stop-color:#FFC71E"/>
			</linearGradient>
			<rect x="15.9" y="155.5" style="fill:url(#SVGID_50_);stroke:#D88600;stroke-miterlimit:10;" width="141.3" height="5.8"/>
			<linearGradient id="SVGID_51_" gradientUnits="userSpaceOnUse" x1="85.1382" y1="146.9262" x2="90.7487" y2="198.3554">
				<stop  offset="0" style="stop-color:#FFE926"/>
				<stop  offset="1" style="stop-color:#FFE926;stop-opacity:0.3"/>
			</linearGradient>
			<rect x="16.8" y="156.5" style="fill:url(#SVGID_51_);" width="139" height="2"/>
		</g>
		<g>
			<linearGradient id="SVGID_52_" gradientUnits="userSpaceOnUse" x1="114.8051" y1="190.0002" x2="175.6136" y2="190.0002">
				<stop  offset="0" style="stop-color:#FFA901"/>
				<stop  offset="1" style="stop-color:#FFC71E"/>
			</linearGradient>
			<polygon style="fill:url(#SVGID_52_);stroke:#D88600;stroke-miterlimit:10;" points="165.6,198.8 158.4,192.9 126,183.6 
				114.8,183.8 114.8,173.8 175.6,173.8 175.6,178.1 175.6,200.9 170.3,206.2 			"/>
			<linearGradient id="SVGID_53_" gradientUnits="userSpaceOnUse" x1="162.2478" y1="193.4243" x2="179.6216" y2="193.4243">
				<stop  offset="0.5714" style="stop-color:#262626"/>
				<stop  offset="0.8265" style="stop-color:#3D3D3D"/>
				<stop  offset="1" style="stop-color:#262626"/>
			</linearGradient>
			<path style="fill:url(#SVGID_53_);stroke:#212121;stroke-miterlimit:10;" d="M178.5,173.7v2.3h-2.3v3.5h2.3v1.7l1.2,1.6v2.5h-2.3
				v18.5h2.3v9.3h-17.4v-39.4H178.5z M163.4,174.9v2.3H175v-2.3H163.4z M173.8,179.5H168v6.9h5.8V179.5z M172.7,187.6h-2.3v12.7h2.3
				V187.6z"/>
		</g>
		<linearGradient id="SVGID_54_" gradientUnits="userSpaceOnUse" x1="114.5179" y1="185.3647" x2="116.9792" y2="185.3647">
			<stop  offset="0" style="stop-color:#FFA901"/>
			<stop  offset="1" style="stop-color:#FFC71E"/>
		</linearGradient>
		<rect x="114.5" y="181.9" style="fill:url(#SVGID_54_);stroke:#D88600;stroke-miterlimit:10;" width="2.5" height="6.9"/>
		<linearGradient id="SVGID_55_" gradientUnits="userSpaceOnUse" x1="60.6319" y1="190.6509" x2="122.3072" y2="190.6509">
			<stop  offset="0.5714" style="stop-color:#262626"/>
			<stop  offset="0.8265" style="stop-color:#3D3D3D"/>
			<stop  offset="1" style="stop-color:#262626"/>
		</linearGradient>
		<path style="fill:url(#SVGID_55_);stroke:#212121;stroke-miterlimit:10;" d="M61.6,189.4c6.6-1.7,13-2.5,15.3-4.8
			c2.9,0,16.9-0.1,16.9-0.1s1.7,2.5,5.6,2.9c3.9,0.4,22.9,2.6,22.9,2.6l-1,5.3c0,0-7.8-2.7-17.7-3.5c-9.6-1-30.3-0.9-38.1,3.7
			C57.7,200.2,61.6,189.4,61.6,189.4z"/>
		<g>
			<radialGradient id="SVGID_56_" cx="45.6821" cy="192.9875" r="24.1342" gradientUnits="userSpaceOnUse">
				<stop  offset="0.5714" style="stop-color:#262626"/>
				<stop  offset="0.8265" style="stop-color:#3D3D3D"/>
				<stop  offset="1" style="stop-color:#262626"/>
			</radialGradient>
			<path style="fill:url(#SVGID_56_);stroke:#212121;stroke-miterlimit:10;" d="M69.8,194.1v-2.2h-1.4c0-0.7-0.1-1.3-0.2-2l1.3-0.3
				l-0.4-2.2l-1.3,0.2c-0.2-0.8-0.4-1.5-0.7-2.3l1.3-0.5l-0.8-2.1l-1.3,0.5c-0.3-0.7-0.7-1.4-1.1-2l1.1-0.7l-1.2-1.9l-1.1,0.8
				c-0.5-0.6-1-1.2-1.5-1.8l1-1l-1.6-1.6l-1,1c-0.5-0.4-1-0.9-1.5-1.3l0.8-1.1l-1.8-1.3l-0.8,1.1c-0.7-0.4-1.4-0.8-2.1-1.1l0.5-1.2
				l-2.1-0.9l-0.5,1.2c-0.7-0.3-1.5-0.5-2.2-0.7l0.3-1.3l-2.2-0.4l-0.3,1.3c-0.8-0.1-1.5-0.2-2.3-0.2v-1.4h-2.2v1.4
				c-0.7,0-1.3,0.1-2,0.2l-0.3-1.3l-2.2,0.4l0.2,1.3c-0.8,0.2-1.5,0.4-2.3,0.7l-0.5-1.3l-2.1,0.8l0.5,1.3c-0.7,0.3-1.4,0.7-2,1.1
				l-0.7-1.1l-1.9,1.2l0.8,1.1c-0.6,0.5-1.2,1-1.8,1.5l-1-1l-1.6,1.6l1,1c-0.4,0.5-0.9,1-1.3,1.5l-1.1-0.8l-1.3,1.8l1.1,0.8
				c-0.4,0.7-0.8,1.4-1.1,2.1l-1.2-0.5l-0.9,2.1l1.2,0.5c-0.3,0.7-0.5,1.5-0.7,2.2l-1.3-0.3l-0.4,2.2l1.3,0.3
				c-0.1,0.8-0.2,1.5-0.2,2.3h-1.4v2.2h1.4c0,0.7,0.1,1.3,0.2,2l-1.3,0.3l0.4,2.2l1.3-0.2c0.2,0.8,0.4,1.5,0.7,2.3l-1.3,0.5l0.8,2.1
				l1.3-0.5c0.3,0.7,0.7,1.4,1.1,2l-1.1,0.7l1.2,1.9l1.1-0.8c0.5,0.6,1,1.2,1.5,1.8l-1,1l1.6,1.6l1-1c0.5,0.4,1,0.9,1.5,1.3
				l-0.8,1.1l1.8,1.3l0.8-1.1c0.7,0.4,1.4,0.8,2.1,1.1l-0.5,1.2l2.1,0.9l0.5-1.2c0.7,0.3,1.5,0.5,2.2,0.7l-0.3,1.3l2.2,0.4l0.3-1.3
				c0.8,0.1,1.5,0.2,2.3,0.2v1.4h2.2v-1.4c0.7,0,1.3-0.1,2-0.2l0.3,1.3l2.2-0.4l-0.2-1.3c0.8-0.2,1.5-0.4,2.3-0.7l0.5,1.3l2.1-0.8
				l-0.5-1.3c0.7-0.3,1.4-0.7,2-1.1l0.8,1.1l1.9-1.2l-0.8-1.1c0.6-0.5,1.2-1,1.8-1.5l1,1l1.6-1.6l-1-1c0.4-0.5,0.9-1,1.3-1.5
				l1.1,0.8l1.3-1.8l-1.1-0.8c0.4-0.7,0.8-1.4,1.1-2.1l1.2,0.5l0.9-2.1l-1.2-0.5c0.3-0.7,0.5-1.5,0.7-2.2l1.3,0.3l0.4-2.2l-1.3-0.3
				c0.1-0.8,0.2-1.5,0.2-2.3H69.8z"/>
			<linearGradient id="SVGID_57_" gradientUnits="userSpaceOnUse" x1="35.4901" y1="192.9875" x2="55.874" y2="192.9875">
				<stop  offset="0" style="stop-color:#FFA901"/>
				<stop  offset="1" style="stop-color:#FFC71E"/>
			</linearGradient>
			<circle class="st59" cx="45.7" cy="193" r="10.2"/>
			<circle class="st34" cx="45.7" cy="193" r="4.1"/>
		</g>
		<g>
			<radialGradient id="SVGID_58_" cx="140.5069" cy="192.9875" r="24.1342" gradientUnits="userSpaceOnUse">
				<stop  offset="0.5714" style="stop-color:#262626"/>
				<stop  offset="0.8265" style="stop-color:#3D3D3D"/>
				<stop  offset="1" style="stop-color:#262626"/>
			</radialGradient>
			<path style="fill:url(#SVGID_58_);stroke:#212121;stroke-miterlimit:10;" d="M164.6,194.1v-2.2h-1.4c0-0.7-0.1-1.3-0.2-2l1.3-0.3
				l-0.4-2.2l-1.3,0.2c-0.2-0.8-0.4-1.5-0.7-2.3l1.3-0.5l-0.8-2.1l-1.3,0.5c-0.3-0.7-0.7-1.4-1.1-2l1.1-0.7l-1.2-1.9l-1.1,0.8
				c-0.5-0.6-1-1.2-1.5-1.8l1-1l-1.6-1.6l-1,1c-0.5-0.4-1-0.9-1.5-1.3l0.8-1.1l-1.8-1.3l-0.8,1.1c-0.7-0.4-1.4-0.8-2.1-1.1l0.5-1.2
				l-2.1-0.9l-0.5,1.2c-0.7-0.3-1.5-0.5-2.2-0.7l0.3-1.3l-2.2-0.4l-0.3,1.3c-0.8-0.1-1.5-0.2-2.3-0.2v-1.4h-2.2v1.4
				c-0.7,0-1.3,0.1-2,0.2l-0.3-1.3l-2.2,0.4l0.2,1.3c-0.8,0.2-1.5,0.4-2.3,0.7l-0.5-1.3l-2.1,0.8l0.5,1.3c-0.7,0.3-1.4,0.7-2,1.1
				l-0.7-1.1l-1.9,1.2l0.8,1.1c-0.6,0.5-1.2,1-1.8,1.5l-1-1l-1.6,1.6l1,1c-0.4,0.5-0.9,1-1.3,1.5l-1.1-0.8l-1.3,1.8l1.1,0.8
				c-0.4,0.7-0.8,1.4-1.1,2.1l-1.2-0.5l-0.9,2.1l1.2,0.5c-0.3,0.7-0.5,1.5-0.7,2.2l-1.3-0.3l-0.4,2.2l1.3,0.3
				c-0.1,0.8-0.2,1.5-0.2,2.3h-1.4v2.2h1.4c0,0.7,0.1,1.3,0.2,2l-1.3,0.3l0.4,2.2l1.3-0.2c0.2,0.8,0.4,1.5,0.7,2.3l-1.3,0.5l0.8,2.1
				l1.3-0.5c0.3,0.7,0.7,1.4,1.1,2l-1.1,0.7l1.2,1.9l1.1-0.8c0.5,0.6,1,1.2,1.5,1.8l-1,1l1.6,1.6l1-1c0.5,0.4,1,0.9,1.5,1.3
				l-0.8,1.1l1.8,1.3l0.8-1.1c0.7,0.4,1.4,0.8,2.1,1.1l-0.5,1.2l2.1,0.9l0.5-1.2c0.7,0.3,1.5,0.5,2.2,0.7l-0.3,1.3l2.2,0.4l0.3-1.3
				c0.8,0.1,1.5,0.2,2.3,0.2v1.4h2.2v-1.4c0.7,0,1.3-0.1,2-0.2l0.3,1.3l2.2-0.4l-0.2-1.3c0.8-0.2,1.5-0.4,2.3-0.7l0.5,1.3l2.1-0.8
				l-0.5-1.3c0.7-0.3,1.4-0.7,2-1.1l0.8,1.1l1.9-1.2l-0.8-1.1c0.6-0.5,1.2-1,1.8-1.5l1,1l1.6-1.6l-1-1c0.4-0.5,0.9-1,1.3-1.5
				l1.1,0.8l1.3-1.8l-1.1-0.8c0.4-0.7,0.8-1.4,1.1-2.1l1.2,0.5l0.9-2.1l-1.2-0.5c0.3-0.7,0.5-1.5,0.7-2.2l1.3,0.3l0.4-2.2l-1.3-0.3
				c0.1-0.8,0.2-1.5,0.2-2.3H164.6z"/>
			<linearGradient id="SVGID_59_" gradientUnits="userSpaceOnUse" x1="130.4672" y1="192.9875" x2="150.8511" y2="192.9875">
				<stop  offset="0" style="stop-color:#FFA901"/>
				<stop  offset="1" style="stop-color:#FFC71E"/>
			</linearGradient>
			<circle style="fill:url(#SVGID_59_);stroke:#D88600;stroke-miterlimit:10;" cx="140.7" cy="193" r="10.2"/>
			<circle class="st34" cx="140.7" cy="193" r="4.1"/>
		</g>
	</g>
</g>
</svg>
