<?xml version="1.0" encoding="utf-8"?>
<!-- Generator: Adobe Illustrator 19.0.1, SVG Export Plug-In . SVG Version: 6.00 Build 0)  -->
<svg version="1.1" xmlns="http://www.w3.org/2000/svg" xmlns:xlink="http://www.w3.org/1999/xlink" x="0px" y="0px"
	 viewBox="0 0 251.4 193.6" style="enable-background:new 0 0 251.4 193.6;" xml:space="preserve">
<style type="text/css">
	.st0{fill:url(#SVGID_1_);stroke:#3A4445;stroke-miterlimit:10;}
	.st1{fill:url(#SVGID_2_);}
	.st2{fill:url(#SVGID_3_);stroke:#3A4445;stroke-miterlimit:10;}
	.st3{fill:url(#SVGID_4_);stroke:#3A4445;stroke-miterlimit:10;}
	.st4{fill:url(#SVGID_5_);stroke:#D88600;stroke-miterlimit:10;}
	.st5{fill:url(#SVGID_6_);}
	.st6{fill:url(#SVGID_7_);}
	.st7{fill:url(#SVGID_8_);stroke:#D88600;stroke-miterlimit:10;}
	.st8{fill:url(#SVGID_9_);}
	.st9{fill:url(#SVGID_10_);}
	.st10{fill:url(#SVGID_11_);stroke:#3A4445;stroke-miterlimit:10;}
	.st11{fill:url(#SVGID_12_);stroke:#D88600;stroke-miterlimit:10;}
	.st12{fill:url(#SVGID_13_);}
	.st13{fill:url(#SVGID_14_);}
	.st14{fill:url(#SVGID_15_);stroke:#D88600;stroke-miterlimit:10;}
	.st15{fill:url(#SVGID_16_);}
	.st16{fill:url(#SVGID_17_);}
	.st17{fill:url(#SVGID_18_);stroke:#D88600;stroke-miterlimit:10;}
	.st18{fill:url(#SVGID_19_);}
	.st19{fill:url(#SVGID_20_);stroke:#D88600;stroke-miterlimit:10;}
	.st20{fill:url(#SVGID_21_);stroke:#3A4445;stroke-miterlimit:10;}
	.st21{fill:url(#SVGID_22_);stroke:#3A4445;stroke-miterlimit:10;}
	.st22{fill:url(#SVGID_23_);stroke:#3A4445;stroke-miterlimit:10;}
	.st23{fill:url(#SVGID_24_);stroke:#3A4445;stroke-miterlimit:10;}
	.st24{fill:url(#SVGID_25_);stroke:#3A4445;stroke-miterlimit:10;}
	.st25{fill:url(#SVGID_26_);stroke:#3A4445;stroke-miterlimit:10;}
	.st26{fill:url(#SVGID_27_);stroke:#3A4445;stroke-miterlimit:10;}
	.st27{fill:url(#SVGID_28_);stroke:#D88600;stroke-miterlimit:10;}
	.st28{fill:url(#SVGID_29_);}
	.st29{fill:url(#SVGID_30_);}
	.st30{fill:url(#SVGID_31_);stroke:#3A4445;stroke-miterlimit:10;}
	.st31{fill:url(#SVGID_32_);stroke:#D88600;stroke-miterlimit:10;}
	.st32{fill:url(#SVGID_33_);stroke:#D88600;stroke-miterlimit:10;}
	.st33{fill:url(#SVGID_34_);stroke:#D88600;stroke-miterlimit:10;}
	.st34{fill:#262626;}
	.st35{fill:url(#SVGID_35_);stroke:#D88600;stroke-miterlimit:10;}
	.st36{fill:url(#SVGID_36_);stroke:#D88600;stroke-miterlimit:10;}
	.st37{fill:url(#SVGID_37_);stroke:#D88600;stroke-miterlimit:10;}
	.st38{fill:url(#SVGID_38_);}
	.st39{fill:url(#SVGID_39_);stroke:#3A4445;stroke-miterlimit:10;}
	.st40{fill:url(#SVGID_40_);stroke:#3A4445;stroke-miterlimit:10;}
	.st41{fill:url(#SVGID_41_);stroke:#D88600;stroke-miterlimit:10;}
	.st42{fill:url(#SVGID_42_);stroke:#212121;stroke-miterlimit:10;}
	.st43{fill:url(#SVGID_43_);stroke:#3A4445;stroke-miterlimit:10;}
	.st44{fill:#7E8887;stroke:#505E5F;stroke-miterlimit:10;}
	.st45{fill:url(#SVGID_44_);stroke:#212121;stroke-miterlimit:10;}
	.st46{fill:url(#SVGID_45_);stroke:#3A4445;stroke-miterlimit:10;}
	.st47{fill:url(#SVGID_46_);stroke:#D88600;stroke-miterlimit:10;}
	.st48{fill:url(#SVGID_47_);stroke:#D88600;stroke-miterlimit:10;}
	.st49{fill:url(#SVGID_48_);stroke:#D88600;stroke-miterlimit:10;}
	.st50{fill:url(#SVGID_49_);stroke:#D88600;stroke-miterlimit:10;}
	.st51{fill:url(#SVGID_50_);}
	.st52{fill:url(#SVGID_51_);stroke:#D88600;stroke-miterlimit:10;}
	.st53{fill:url(#SVGID_52_);stroke:#3A4445;stroke-miterlimit:10;}
	.st54{fill:url(#SVGID_53_);stroke:#D88600;stroke-miterlimit:10;}
	.st55{fill:url(#SVGID_54_);}
	.st56{fill:url(#SVGID_55_);stroke:#D88600;stroke-miterlimit:10;}
	.st57{fill:url(#SVGID_56_);}
	.st58{fill:#AFBDBB;}
	.st59{fill:url(#SVGID_57_);stroke:#D88600;stroke-miterlimit:10;}
	.st60{fill:url(#SVGID_58_);stroke:#D88600;stroke-miterlimit:10;}
	.st61{fill:url(#SVGID_59_);}
	.st62{fill:url(#SVGID_60_);stroke:#D88600;stroke-miterlimit:10;}
	.st63{fill:url(#SVGID_61_);stroke:#D88600;stroke-miterlimit:10;}
	.st64{fill:url(#SVGID_62_);}
	.st65{fill:url(#SVGID_63_);stroke:#D88600;stroke-miterlimit:10;}
	.st66{fill:url(#SVGID_64_);stroke:#D88600;stroke-miterlimit:10;}
	.st67{fill:url(#SVGID_65_);}
	.st68{fill:url(#SVGID_66_);stroke:#D88600;stroke-miterlimit:10;}
	.st69{fill:url(#SVGID_67_);}
	.st70{fill:url(#SVGID_68_);}
	.st71{fill:url(#SVGID_69_);}
	.st72{fill:url(#SVGID_70_);stroke:#D88600;stroke-miterlimit:10;}
	.st73{fill:url(#SVGID_71_);}
	.st74{fill:url(#SVGID_72_);}
	.st75{fill:url(#SVGID_73_);}
	.st76{fill:url(#SVGID_74_);}
	.st77{fill:url(#SVGID_75_);}
	.st78{fill:url(#SVGID_76_);stroke:#D88600;stroke-miterlimit:10;}
	.st79{fill:url(#SVGID_77_);}
	.st80{fill:url(#SVGID_78_);}
	.st81{fill:url(#SVGID_79_);stroke:#D88600;stroke-miterlimit:10;}
	.st82{fill:url(#SVGID_80_);}
	.st83{fill:url(#SVGID_81_);}
	.st84{fill:url(#SVGID_82_);stroke:#D88600;stroke-miterlimit:10;}
	.st85{fill:url(#SVGID_83_);}
	.st86{fill:url(#SVGID_84_);stroke:#D88600;stroke-miterlimit:10;}
	.st87{fill:url(#SVGID_85_);stroke:#D88600;stroke-miterlimit:10;}
	.st88{fill:url(#SVGID_86_);stroke:#D88600;stroke-miterlimit:10;}
	.st89{fill:url(#SVGID_87_);}
	.st90{fill:url(#SVGID_88_);stroke:#D88600;stroke-miterlimit:10;}
	.st91{fill:url(#SVGID_89_);}
	.st92{fill:url(#SVGID_90_);stroke:#D88600;stroke-miterlimit:10;}
	.st93{fill:url(#SVGID_91_);stroke:#D88600;stroke-miterlimit:10;}
	.st94{fill:url(#SVGID_92_);}
	.st95{fill:url(#SVGID_93_);}
	.st96{fill:url(#SVGID_94_);}
	.st97{fill:url(#SVGID_95_);stroke:#3A4445;stroke-miterlimit:10;}
	.st98{fill:url(#SVGID_96_);stroke:#505E5F;stroke-miterlimit:10;}
	.st99{fill:url(#SVGID_97_);}
	.st100{fill:url(#SVGID_98_);}
	.st101{fill:url(#SVGID_99_);}
	.st102{fill:#FFFFFF;}
	.st103{fill:url(#SVGID_100_);stroke:#3A4445;stroke-miterlimit:10;}
	.st104{fill:url(#SVGID_101_);stroke:#3A4445;stroke-miterlimit:10;}
	.st105{fill:#8E9998;}
	.st106{fill:url(#SVGID_102_);stroke:#3A4445;stroke-miterlimit:10;}
	.st107{fill:url(#SVGID_103_);stroke:#3A4445;stroke-miterlimit:10;}
	.st108{fill:url(#SVGID_104_);stroke:#3A4445;stroke-miterlimit:10;}
	.st109{fill:url(#SVGID_105_);stroke:#3A4445;stroke-miterlimit:10;}
	.st110{fill:url(#SVGID_106_);stroke:#3A4445;stroke-miterlimit:10;}
	.st111{fill:#B1BFBE;}
	.st112{fill:url(#SVGID_107_);stroke:#3A4445;stroke-miterlimit:10;}
	.st113{fill:url(#SVGID_108_);stroke:#3A4445;stroke-miterlimit:10;}
	.st114{fill:url(#SVGID_109_);stroke:#3A4445;stroke-miterlimit:10;}
	.st115{fill:url(#SVGID_110_);stroke:#3A4445;stroke-miterlimit:10;}
	.st116{fill:url(#SVGID_111_);stroke:#3A4445;stroke-miterlimit:10;}
	.st117{fill:url(#SVGID_112_);stroke:#D88600;stroke-miterlimit:10;}
	.st118{fill:url(#SVGID_113_);stroke:#3A4445;stroke-miterlimit:10;}
	.st119{fill:url(#SVGID_114_);stroke:#D88600;stroke-miterlimit:10;}
	.st120{fill:url(#SVGID_115_);stroke:#D88600;stroke-miterlimit:10;}
	.st121{fill:url(#SVGID_116_);}
	.st122{fill:url(#SVGID_117_);stroke:#3A4445;stroke-miterlimit:10;}
	.st123{fill:url(#SVGID_118_);}
	.st124{fill:url(#SVGID_119_);stroke:#3A4445;stroke-miterlimit:10;}
	.st125{fill:url(#SVGID_120_);stroke:#D88600;stroke-miterlimit:10;}
	.st126{fill:url(#SVGID_121_);stroke:#D88600;stroke-miterlimit:10;}
	.st127{fill:url(#SVGID_122_);}
	.st128{fill:url(#SVGID_123_);stroke:#D88600;stroke-miterlimit:10;}
	.st129{fill:url(#SVGID_124_);stroke:#D88600;stroke-miterlimit:10;}
	.st130{fill:url(#SVGID_125_);stroke:#D88600;stroke-miterlimit:10;}
	.st131{fill:url(#SVGID_126_);}
	.st132{fill:url(#SVGID_127_);stroke:#3A4445;stroke-miterlimit:10;}
	.st133{fill:#BBC9C8;}
	.st134{fill:url(#SVGID_128_);}
	.st135{fill:url(#SVGID_129_);stroke:#D88600;stroke-miterlimit:10;}
	.st136{fill:url(#SVGID_130_);}
	.st137{fill:url(#SVGID_131_);}
	.st138{fill:url(#SVGID_132_);stroke:#D88600;stroke-miterlimit:10;}
	.st139{fill:url(#SVGID_133_);}
	.st140{fill:url(#SVGID_134_);stroke:#D88600;stroke-miterlimit:10;}
	.st141{fill:url(#SVGID_135_);}
	.st142{fill:url(#SVGID_136_);stroke:#D88600;stroke-miterlimit:10;}
	.st143{fill:url(#SVGID_137_);stroke:#D88600;stroke-miterlimit:10;}
	.st144{fill:url(#SVGID_138_);stroke:#D88600;stroke-miterlimit:10;}
	.st145{fill:url(#SVGID_139_);stroke:#D88600;stroke-miterlimit:10;}
	.st146{fill:url(#SVGID_140_);stroke:#D88600;stroke-miterlimit:10;}
	.st147{fill:url(#SVGID_141_);stroke:#D88600;stroke-miterlimit:10;}
	.st148{fill:url(#SVGID_142_);}
	.st149{fill:url(#SVGID_143_);stroke:#D88600;stroke-miterlimit:10;}
	.st150{fill:url(#SVGID_144_);}
	.st151{fill:url(#SVGID_145_);stroke:#D88600;stroke-miterlimit:10;}
	.st152{fill:url(#SVGID_146_);stroke:#D88600;stroke-miterlimit:10;}
	.st153{fill:url(#SVGID_147_);}
	.st154{fill:url(#SVGID_148_);}
	.st155{fill:url(#SVGID_149_);stroke:#D88600;stroke-miterlimit:10;}
	.st156{fill:url(#SVGID_150_);}
	.st157{fill:url(#SVGID_151_);stroke:#D88600;stroke-miterlimit:10;}
	.st158{fill:url(#SVGID_152_);}
	.st159{fill:url(#SVGID_153_);}
	.st160{fill:url(#SVGID_154_);}
	.st161{fill:url(#SVGID_155_);}
	.st162{fill:url(#SVGID_156_);}
	.st163{fill:url(#SVGID_157_);stroke:#D88600;stroke-miterlimit:10;}
	.st164{fill:url(#SVGID_158_);stroke:#D88600;stroke-miterlimit:10;}
	.st165{fill:url(#SVGID_159_);stroke:#D88600;stroke-miterlimit:10;}
	.st166{fill:url(#SVGID_160_);stroke:#D88600;stroke-miterlimit:10;}
	.st167{fill:url(#SVGID_161_);}
	.st168{fill:url(#SVGID_162_);stroke:#D88600;stroke-miterlimit:10;}
	.st169{fill:url(#SVGID_163_);}
	.st170{fill:url(#SVGID_164_);stroke:#D88600;stroke-miterlimit:10;}
	.st171{fill:url(#SVGID_165_);stroke:#212121;stroke-miterlimit:10;}
	.st172{fill:url(#SVGID_166_);stroke:#212121;stroke-miterlimit:10;}
	.st173{fill:url(#SVGID_167_);stroke:#D88600;stroke-miterlimit:10;}
	.st174{fill:url(#SVGID_168_);stroke:#D88600;stroke-miterlimit:10;}
	.st175{fill:url(#SVGID_169_);stroke:#D88600;stroke-miterlimit:10;}
	.st176{fill:url(#SVGID_170_);}
	.st177{fill:url(#SVGID_171_);stroke:#D88600;stroke-miterlimit:10;}
	.st178{fill:url(#SVGID_172_);stroke:#212121;stroke-miterlimit:10;}
	.st179{fill:url(#SVGID_173_);stroke:#D88600;stroke-miterlimit:10;}
	.st180{fill:url(#SVGID_174_);stroke:#212121;stroke-miterlimit:10;}
	.st181{fill:url(#SVGID_175_);stroke:#212121;stroke-miterlimit:10;}
	.st182{fill:url(#SVGID_176_);stroke:#D88600;stroke-miterlimit:10;}
	.st183{fill:url(#SVGID_177_);stroke:#212121;stroke-miterlimit:10;}
	.st184{fill:url(#SVGID_178_);stroke:#D88600;stroke-miterlimit:10;}
	.st185{fill:url(#SVGID_179_);stroke:#D88600;stroke-miterlimit:10;}
	.st186{fill:url(#SVGID_180_);}
	.st187{fill:url(#SVGID_181_);stroke:#D88600;stroke-miterlimit:10;}
	.st188{fill:url(#SVGID_182_);stroke:#D88600;stroke-miterlimit:10;}
	.st189{fill:url(#SVGID_183_);stroke:#D88600;stroke-miterlimit:10;}
	.st190{fill:url(#SVGID_184_);}
	.st191{fill:url(#SVGID_185_);}
	.st192{fill:url(#SVGID_186_);stroke:#3A4445;stroke-miterlimit:10;}
	.st193{fill:url(#SVGID_187_);stroke:#3A4445;stroke-miterlimit:10;}
	.st194{fill:url(#SVGID_188_);stroke:#D88600;stroke-miterlimit:10;}
	.st195{fill:url(#SVGID_189_);}
	.st196{fill:url(#SVGID_190_);stroke:#3A4445;stroke-miterlimit:10;}
	.st197{fill:url(#SVGID_191_);stroke:#D88600;stroke-miterlimit:10;}
	.st198{fill:url(#SVGID_192_);stroke:#D88600;stroke-miterlimit:10;}
	.st199{fill:url(#SVGID_193_);}
	.st200{fill:url(#SVGID_194_);stroke:#3A4445;stroke-miterlimit:10;}
	.st201{fill:url(#SVGID_195_);stroke:#D88600;stroke-miterlimit:10;}
	.st202{fill:url(#SVGID_196_);stroke:#D88600;stroke-miterlimit:10;}
	.st203{fill:url(#SVGID_197_);stroke:#D88600;stroke-miterlimit:10;}
	.st204{fill:url(#SVGID_198_);}
	.st205{fill:url(#SVGID_199_);stroke:#3A4445;stroke-miterlimit:10;}
	.st206{fill:url(#SVGID_200_);stroke:#D88600;stroke-miterlimit:10;}
	.st207{fill:url(#SVGID_201_);stroke:#212121;stroke-miterlimit:10;}
	.st208{fill:url(#SVGID_202_);stroke:#3A4445;stroke-miterlimit:10;}
	.st209{fill:url(#SVGID_203_);stroke:#D88600;stroke-miterlimit:10;}
	.st210{fill:url(#SVGID_204_);stroke:#3A4445;stroke-miterlimit:10;}
	.st211{fill:url(#SVGID_205_);stroke:#3A4445;stroke-miterlimit:10;}
	.st212{fill:url(#SVGID_206_);}
	.st213{fill:url(#SVGID_207_);stroke:#212121;stroke-miterlimit:10;}
	.st214{fill:url(#SVGID_208_);stroke:#3A4445;stroke-miterlimit:10;}
	.st215{fill:url(#SVGID_209_);stroke:#D88600;stroke-miterlimit:10;}
	.st216{fill:url(#SVGID_210_);}
	.st217{fill:url(#SVGID_211_);stroke:#D88600;stroke-linecap:round;stroke-linejoin:round;stroke-miterlimit:10;}
	.st218{fill:url(#SVGID_212_);}
	.st219{fill:url(#SVGID_213_);}
	.st220{fill:url(#SVGID_214_);stroke:#D88600;stroke-miterlimit:10;}
	.st221{fill:url(#SVGID_215_);}
	.st222{fill:#E69704;stroke:#D88600;stroke-linecap:round;stroke-linejoin:round;stroke-miterlimit:10;}
	.st223{fill:url(#SVGID_216_);stroke:#D88600;stroke-miterlimit:10;}
	.st224{fill:url(#SVGID_217_);}
	.st225{fill:url(#SVGID_218_);stroke:#D88600;stroke-miterlimit:10;}
	.st226{fill:url(#SVGID_219_);stroke:#D88600;stroke-miterlimit:10;}
	.st227{fill:url(#SVGID_220_);stroke:#D88600;stroke-miterlimit:10;}
	.st228{fill:url(#SVGID_221_);stroke:#D88600;stroke-miterlimit:10;}
	.st229{fill:url(#SVGID_222_);stroke:#3A4445;stroke-miterlimit:10;}
	.st230{fill:url(#SVGID_223_);stroke:#3A4445;stroke-miterlimit:10;}
	.st231{fill:url(#SVGID_224_);stroke:#3A4445;stroke-miterlimit:10;}
	.st232{fill:url(#SVGID_225_);stroke:#3A4445;stroke-miterlimit:10;}
	.st233{fill:url(#SVGID_226_);stroke:#3A4445;stroke-miterlimit:10;}
	.st234{fill:url(#SVGID_227_);stroke:#3A4445;stroke-miterlimit:10;}
	.st235{fill:url(#SVGID_228_);stroke:#3A4445;stroke-miterlimit:10;}
	.st236{fill:url(#SVGID_229_);stroke:#3A4445;stroke-miterlimit:10;}
	.st237{fill:url(#SVGID_230_);stroke:#3A4445;stroke-miterlimit:10;}
	.st238{fill:url(#SVGID_231_);stroke:#3A4445;stroke-miterlimit:10;}
	.st239{fill:url(#SVGID_232_);stroke:#3A4445;stroke-miterlimit:10;}
	.st240{fill:url(#SVGID_233_);stroke:#3A4445;stroke-miterlimit:10;}
	.st241{fill:url(#SVGID_234_);stroke:#3A4445;stroke-miterlimit:10;}
	.st242{fill:url(#SVGID_235_);stroke:#D88600;stroke-miterlimit:10;}
	.st243{fill:url(#SVGID_236_);stroke:#3A4445;stroke-miterlimit:10;}
	.st244{fill:url(#SVGID_237_);stroke:#3A4445;stroke-miterlimit:10;}
	.st245{fill:url(#SVGID_238_);stroke:#D88600;stroke-miterlimit:10;}
	.st246{fill:url(#SVGID_239_);}
	.st247{fill:url(#SVGID_240_);stroke:#D88600;stroke-miterlimit:10;}
	.st248{fill:url(#SVGID_241_);}
	.st249{fill:url(#SVGID_242_);stroke:#D88600;stroke-miterlimit:10;}
	.st250{fill:url(#SVGID_243_);}
	.st251{fill:url(#SVGID_244_);}
	.st252{fill:url(#SVGID_245_);stroke:#D88600;stroke-miterlimit:10;}
	.st253{fill:url(#SVGID_246_);stroke:#D88600;stroke-miterlimit:10;}
	.st254{fill:url(#SVGID_247_);}
	.st255{fill:url(#SVGID_248_);stroke:#D88600;stroke-miterlimit:10;}
	.st256{fill:url(#SVGID_249_);}
	.st257{fill:url(#SVGID_250_);}
	.st258{fill:url(#SVGID_251_);stroke:#D88600;stroke-miterlimit:10;}
	.st259{fill:url(#SVGID_252_);stroke:#D88600;stroke-miterlimit:10;}
	.st260{fill:url(#SVGID_253_);stroke:#D88600;stroke-miterlimit:10;}
	.st261{fill:url(#SVGID_254_);}
	.st262{fill:url(#SVGID_255_);stroke:#D88600;stroke-miterlimit:10;}
	.st263{fill:url(#SVGID_256_);}
	.st264{fill:url(#SVGID_257_);stroke:#D88600;stroke-miterlimit:10;}
	.st265{fill:url(#SVGID_258_);stroke:#D88600;stroke-miterlimit:10;}
	.st266{fill:url(#SVGID_259_);}
	.st267{fill:url(#SVGID_260_);stroke:#D88600;stroke-miterlimit:10;}
	.st268{fill:url(#SVGID_261_);stroke:#D88600;stroke-miterlimit:10;}
	.st269{fill:url(#SVGID_262_);stroke:#D88600;stroke-miterlimit:10;}
	.st270{fill:url(#SVGID_263_);}
	.st271{fill:url(#SVGID_264_);stroke:#D88600;stroke-miterlimit:10;}
	.st272{fill:url(#SVGID_265_);}
	.st273{fill:url(#SVGID_266_);stroke:#3A4445;stroke-miterlimit:10;}
	.st274{fill:url(#SVGID_267_);stroke:#3A4445;stroke-miterlimit:10;}
	.st275{fill:url(#SVGID_268_);stroke:#3A4445;stroke-miterlimit:10;}
	.st276{fill:url(#SVGID_269_);stroke:#3A4445;stroke-miterlimit:10;}
	.st277{fill:url(#SVGID_270_);stroke:#3A4445;stroke-miterlimit:10;}
	.st278{fill:url(#SVGID_271_);stroke:#3A4445;stroke-miterlimit:10;}
	.st279{fill:url(#SVGID_272_);stroke:#3A4445;stroke-miterlimit:10;}
	.st280{fill:url(#SVGID_273_);stroke:#3A4445;stroke-miterlimit:10;}
	.st281{fill:url(#SVGID_274_);stroke:#3A4445;stroke-miterlimit:10;}
	.st282{fill:url(#SVGID_275_);stroke:#3A4445;stroke-miterlimit:10;}
	.st283{fill:url(#SVGID_276_);stroke:#3A4445;stroke-miterlimit:10;}
	.st284{fill:url(#SVGID_277_);stroke:#3A4445;stroke-miterlimit:10;}
	.st285{fill:url(#SVGID_278_);stroke:#3A4445;stroke-miterlimit:10;}
	.st286{fill:#9CA8A7;}
	.st287{fill:none;stroke:#7E8887;stroke-width:2;stroke-miterlimit:10;}
	.st288{fill:#A1ADAC;}
	.st289{fill:#505E5F;}
	.st290{fill:url(#SVGID_279_);stroke:#D88600;stroke-miterlimit:10;}
	.st291{fill:url(#SVGID_280_);stroke:#D88600;stroke-miterlimit:10;}
	.st292{fill:url(#SVGID_281_);stroke:#D88600;stroke-miterlimit:10;}
	.st293{fill:url(#SVGID_282_);stroke:#D88600;stroke-miterlimit:10;}
	.st294{fill:url(#SVGID_283_);stroke:#D88600;stroke-miterlimit:10;}
	.st295{fill:url(#SVGID_284_);}
	.st296{fill:url(#SVGID_285_);}
	.st297{fill:url(#SVGID_286_);}
	.st298{fill:url(#SVGID_287_);}
	.st299{fill:url(#SVGID_288_);}
	.st300{fill:url(#SVGID_289_);}
	.st301{fill:url(#SVGID_290_);stroke:#D88600;stroke-miterlimit:10;}
	.st302{fill:url(#SVGID_291_);}
	.st303{fill:url(#SVGID_292_);stroke:#D88600;stroke-miterlimit:10;}
	.st304{fill:url(#SVGID_293_);stroke:#D88600;stroke-miterlimit:10;}
	.st305{fill:url(#SVGID_294_);}
	.st306{fill:url(#SVGID_295_);stroke:#D88600;stroke-miterlimit:10;}
	.st307{fill:url(#SVGID_296_);}
	.st308{fill:url(#SVGID_297_);stroke:#D88600;stroke-miterlimit:10;}
	.st309{fill:url(#SVGID_298_);}
	.st310{fill:url(#SVGID_299_);stroke:#D88600;stroke-miterlimit:10;}
	.st311{fill:url(#SVGID_300_);}
	.st312{fill:url(#SVGID_301_);stroke:#D88600;stroke-miterlimit:10;}
	.st313{fill:url(#SVGID_302_);}
	.st314{fill:url(#SVGID_303_);stroke:#D88600;stroke-miterlimit:10;}
	.st315{fill:url(#SVGID_304_);stroke:#D88600;stroke-miterlimit:10;}
	.st316{fill:url(#SVGID_305_);stroke:#D88600;stroke-miterlimit:10;}
	.st317{fill:url(#SVGID_306_);stroke:#D88600;stroke-miterlimit:10;}
</style>
<g id="Background">
</g>
<g id="Objects">
	<g>
		<g>
			<g>
				<linearGradient id="SVGID_1_" gradientUnits="userSpaceOnUse" x1="1.2964" y1="112.3037" x2="32.3136" y2="112.3037">
					<stop  offset="0" style="stop-color:#FFA901"/>
					<stop  offset="1" style="stop-color:#FFC71E"/>
				</linearGradient>
				<path style="fill:url(#SVGID_1_);stroke:#D88600;stroke-miterlimit:10;" d="M32.3,138.8c0-12.5,0-53.1,0-53.1H16.5
					c0,0-14.6,5.1-15.2,38.2C8.5,132,32.3,138.8,32.3,138.8z"/>
				<linearGradient id="SVGID_2_" gradientUnits="userSpaceOnUse" x1="10.607" y1="89.2061" x2="30.334" y2="89.2061">
					<stop  offset="0" style="stop-color:#FFE926"/>
					<stop  offset="1" style="stop-color:#FFE926;stop-opacity:0.3"/>
				</linearGradient>
				<path class="st1" d="M17,89.4l13.3,0.3l0-2.9c0,0-7.8-0.2-13.6-0.2c-1.2,0.3-4.7,3.2-6.2,5.3C12.6,90.5,14.4,89.4,17,89.4z"/>
				<path class="st34" d="M10.8,104.3c6-3.5,9.9-4.5,15.2-4.8c0-4.5,0-8.9,0-8.9H21C21,90.5,12.6,95.3,10.8,104.3z"/>
				<path class="st34" d="M11.4,112.5c2.5-2.8,10.1-3.9,14.6-3.9c0,5.3,0,16.8,0,16.8s-9.3,0.8-15-2.9
					C11,116.7,11.4,112.5,11.4,112.5z"/>
			</g>
			<linearGradient id="SVGID_3_" gradientUnits="userSpaceOnUse" x1="8.7524" y1="129.3035" x2="32.3136" y2="129.3035">
				<stop  offset="0" style="stop-color:#FFA901"/>
				<stop  offset="1" style="stop-color:#FFC71E"/>
			</linearGradient>
			<line style="fill:url(#SVGID_3_);stroke:#D88600;stroke-miterlimit:10;" x1="8.8" y1="129.3" x2="32.3" y2="129.3"/>
			<linearGradient id="SVGID_4_" gradientUnits="userSpaceOnUse" x1="1.8947" y1="107.5352" x2="32.3015" y2="107.5352">
				<stop  offset="0" style="stop-color:#FFA901"/>
				<stop  offset="1" style="stop-color:#FFC71E"/>
			</linearGradient>
			<path style="fill:url(#SVGID_4_);stroke:#D88600;stroke-miterlimit:10;" d="M1.9,113.2c2.4-3.3,17-11.3,30.4-11.3"/>
		</g>
		<linearGradient id="SVGID_5_" gradientUnits="userSpaceOnUse" x1="31.2593" y1="112.1966" x2="57.8073" y2="112.1966">
			<stop  offset="0" style="stop-color:#FFA901"/>
			<stop  offset="1" style="stop-color:#FFC71E"/>
		</linearGradient>
		<rect x="31.3" y="85.7" class="st4" width="26.5" height="52.9"/>
		<linearGradient id="SVGID_6_" gradientUnits="userSpaceOnUse" x1="41.4023" y1="147.5522" x2="48.49" y2="89.9644">
			<stop  offset="0" style="stop-color:#D88600;stop-opacity:0.7047"/>
			<stop  offset="1" style="stop-color:#D88600;stop-opacity:0.4615"/>
		</linearGradient>
		<path class="st5" d="M57.8,138.4v-10.5c-0.8-0.7-1.3-1.2-1.3-1.2s-4.6,1.4-6.3,0.4c-1.8-1.1-7-2.8-13-2.6c-4.9,0.1-5.2-8.8-6-18.6
			v32.8h26C57.4,138.6,57.6,138.5,57.8,138.4z"/>
		<linearGradient id="SVGID_7_" gradientUnits="userSpaceOnUse" x1="42.4501" y1="91.87" x2="43.5925" y2="82.5875">
			<stop  offset="0" style="stop-color:#FFE926"/>
			<stop  offset="1" style="stop-color:#FFE926;stop-opacity:0.3"/>
		</linearGradient>
		<rect x="32.1" y="86.7" class="st6" width="21.6" height="2.6"/>
		<g>
			<g>
				
					<rect x="117.6" y="82.6" transform="matrix(0.8689 -0.495 0.495 0.8689 -27.4943 70.7937)" class="st34" width="4.6" height="9.5"/>
				<path class="st44" d="M133.1,84.1c-5.2,1.4-12.5,3.8-14.5,6c-2,2.2-1.4,5.8,0.8,11.1c2.2,5.4,8.2,13.3,8.2,13.3s8-3.4,8.7-5.2
					S133.1,84.1,133.1,84.1z"/>
				<linearGradient id="SVGID_8_" gradientUnits="userSpaceOnUse" x1="106.8566" y1="83.2664" x2="126.9152" y2="83.2664">
					<stop  offset="0" style="stop-color:#68706F"/>
					<stop  offset="1" style="stop-color:#8F9998"/>
				</linearGradient>
				<path style="fill:url(#SVGID_8_);stroke:#3A4445;stroke-miterlimit:10;" d="M126.6,77.7c0.6,1.1,0.2,2.5-0.9,3.2l-15.4,8.8
					c-1.1,0.6-2.5,0.2-3.2-0.9l0,0c-0.6-1.1-0.2-2.5,0.9-3.2l15.4-8.8C124.6,76.2,126,76.6,126.6,77.7L126.6,77.7z"/>
			</g>
			<g>
				<linearGradient id="SVGID_9_" gradientUnits="userSpaceOnUse" x1="123.3662" y1="120.9389" x2="138.8749" y2="120.9389">
					<stop  offset="0" style="stop-color:#68706F"/>
					<stop  offset="1" style="stop-color:#8F9998"/>
				</linearGradient>
				<polygon style="fill:url(#SVGID_9_);stroke:#3A4445;stroke-miterlimit:10;" points="137.5,107.5 123.6,107.7 123.4,134.4 
					138.9,134.2 				"/>
				<linearGradient id="SVGID_10_" gradientUnits="userSpaceOnUse" x1="78.9473" y1="82.1347" x2="142.6974" y2="82.1347">
					<stop  offset="0" style="stop-color:#FFA901"/>
					<stop  offset="1" style="stop-color:#FFC71E"/>
				</linearGradient>
				<path style="fill:url(#SVGID_10_);stroke:#D88600;stroke-miterlimit:10;" d="M86.5,37.3c14.2-0.4,28.4,0.3,31.9,3.4
					c3.5,3.1,7,7.9,9.7,22.5c2.8,13.6,5.3,41.4,8.9,71.2c2.7,0,5.7,0,5.7,0s-4.3-43.4-7.3-64.2c-2.6-18.1-2.9-35-25.9-38.1
					c-23-3.1-30.6-1.8-30.6-1.8L86.5,37.3z"/>
				<linearGradient id="SVGID_11_" gradientUnits="userSpaceOnUse" x1="124.0684" y1="147.3146" x2="143.2495" y2="-8.5317">
					<stop  offset="0" style="stop-color:#FFE926"/>
					<stop  offset="1" style="stop-color:#FFE926;stop-opacity:0.3"/>
				</linearGradient>
				<path style="fill:url(#SVGID_11_);" d="M122.6,37.6c4.9,5.1,7.9,10.8,9.5,19.7c1.6,8.9,9.2,71.5,9.2,71.5l-1.8-0.7
					c0,0-8.2-68.7-9.4-73.9C129,48.9,126.2,41.7,122.6,37.6z"/>
				<path class="st44" d="M92.7,97.4c1.1-4.1,6.1-10.9,9.8-8.9c3.7,2,1.1,4.6-1.3,5.2c-2.4,0.7-6.5,5.7-7,6.5"/>
				<linearGradient id="SVGID_12_" gradientUnits="userSpaceOnUse" x1="60.0659" y1="91.606" x2="100.0202" y2="91.606">
					<stop  offset="0" style="stop-color:#68706F"/>
					<stop  offset="1" style="stop-color:#8F9998"/>
				</linearGradient>
				<path style="fill:url(#SVGID_12_);stroke:#3A4445;stroke-miterlimit:10;" d="M60.1,72.7c4.4-1.8,9.7,0.2,9.7,9.5
					s0.9,16.4,0.9,16.4s19.4-2.3,22.9-2.1c3.5,0.2,6.5,3,6.2,10.9c0.2,3.7,0.2,3.7,0.2,3.7s-14.8-1.6-20.8-4.2
					c-6-2.5-18.7-10.2-18.7-10.2L60.1,72.7z"/>
				<linearGradient id="SVGID_13_" gradientUnits="userSpaceOnUse" x1="53.764" y1="69.8076" x2="90.0171" y2="69.8076">
					<stop  offset="0" style="stop-color:#FFA901"/>
					<stop  offset="1" style="stop-color:#FFC71E"/>
				</linearGradient>
				<path style="fill:url(#SVGID_13_);stroke:#D88600;stroke-miterlimit:10;" d="M89.8,30.4c0,0-11.3-0.6-19.2-0.6
					c-8,0-14.2,6.6-15.5,20.4c0,0.2,0,0.4-0.1,0.7V101c0,1.2,0.1,1.8,0.1,1.8l35,7.5C90,108.6,89.8,30.4,89.8,30.4z M63,97.1
					c0,0-1.3-26.1-1.3-38.1s0.9-20.4,8.9-20.8c8-0.4,12.4-0.9,12.4-0.9l0.9,66.4L63,97.1z M70.5,29.8c-8,0-12.1-0.6-16.8-0.5
					c0.4,4.3,1.2,21.3,1.2,21.6"/>
				<linearGradient id="SVGID_14_" gradientUnits="userSpaceOnUse" x1="53.5991" y1="33.0055" x2="127.2234" y2="33.0055">
					<stop  offset="0" style="stop-color:#FFA901"/>
					<stop  offset="1" style="stop-color:#FFC71E"/>
				</linearGradient>
				<path style="fill:url(#SVGID_14_);stroke:#D88600;stroke-miterlimit:10;" d="M121.6,36.9c-5.3,0-55,0-59.9,0
					c-8.1,0-8.1-7.7-8.1-7.7h73.6C127.2,29.1,126.9,36.9,121.6,36.9z"/>
				<linearGradient id="SVGID_15_" gradientUnits="userSpaceOnUse" x1="108.9475" y1="-2.738" x2="66.1364" y2="73.0047">
					<stop  offset="0" style="stop-color:#FFE926"/>
					<stop  offset="1" style="stop-color:#FFE926;stop-opacity:0.3"/>
				</linearGradient>
				<path style="fill:url(#SVGID_15_);" d="M54.6,29.9c1.3,2.5,5,1.3,8.9,1.3c3.9,0,58.4,0.5,58.4,0.5s3.7,0,4.5-1.5
					C121.8,30,54.6,29.9,54.6,29.9z"/>
			</g>
			<linearGradient id="SVGID_16_" gradientUnits="userSpaceOnUse" x1="125.336" y1="128.1962" x2="134.7179" y2="128.1962">
				<stop  offset="0" style="stop-color:#68706F"/>
				<stop  offset="1" style="stop-color:#8F9998"/>
			</linearGradient>
			<polygon style="fill:url(#SVGID_16_);stroke:#3A4445;stroke-miterlimit:10;" points="134.7,126.5 126.4,131.5 125.3,129.8 
				133.7,124.8 			"/>
		</g>
		<linearGradient id="SVGID_17_" gradientUnits="userSpaceOnUse" x1="4.6764" y1="143.2434" x2="46.3699" y2="143.2434">
			<stop  offset="0" style="stop-color:#FFA901"/>
			<stop  offset="1" style="stop-color:#FFC71E"/>
		</linearGradient>
		<path style="fill:url(#SVGID_17_);stroke:#D88600;stroke-miterlimit:10;" d="M4.7,148.8c5.6,4.4,22.8,10.4,37.9,11
			c1-8.9,0.9-18.3,3.4-20.5c2.6-2.2-10.3-0.4-19.2-3.5c-9.3-3.2-21.5-9-21.5-9L4.7,148.8z"/>
		<linearGradient id="SVGID_18_" gradientUnits="userSpaceOnUse" x1="-1.217670e-05" y1="136.8352" x2="6.7946" y2="136.8352">
			<stop  offset="0" style="stop-color:#FFA901"/>
			<stop  offset="1" style="stop-color:#FFC71E"/>
		</linearGradient>
		<path class="st17" d="M6.8,127.5l-5.5-3.6L0,145.1c0,0,2.6,3.1,5.9,4.6C6.5,140.5,6.8,127.5,6.8,127.5z"/>
		<linearGradient id="SVGID_19_" gradientUnits="userSpaceOnUse" x1="54.9789" y1="124.1012" x2="115.5007" y2="124.1012">
			<stop  offset="0" style="stop-color:#FFA901"/>
			<stop  offset="1" style="stop-color:#FFC71E"/>
		</linearGradient>
		<path style="fill:url(#SVGID_19_);stroke:#D88600;stroke-miterlimit:10;" d="M106,114.7c-3.3-3.6-15.2-5.4-25.1-7.5
			c-8.7-1.9-22.8-3.7-25.9-4.1v35.7c0.4,0.2,13.2,4.9,24.4,6c11.4,1.1,36.1-1.8,36.1-1.8C113.1,132,108,118.6,106,114.7z"/>
		<linearGradient id="SVGID_20_" gradientUnits="userSpaceOnUse" x1="81.0068" y1="130.2715" x2="84.9823" y2="97.9709">
			<stop  offset="0" style="stop-color:#FFE926"/>
			<stop  offset="1" style="stop-color:#FFE926;stop-opacity:0.3"/>
		</linearGradient>
		<path style="fill:url(#SVGID_20_);" d="M56.1,104.6c0,0.9,0,1.6,0,1.6s24.9,3.1,37.3,11.3c3.2,2.1,4.4,10.6,4.4,10.6l11.5,0.2
			c0,0-2.7-12.5-5.9-14C96.1,111.6,76.7,106.4,56.1,104.6z"/>
		<linearGradient id="SVGID_21_" gradientUnits="userSpaceOnUse" x1="35.3293" y1="147.0301" x2="155.763" y2="147.0301">
			<stop  offset="0" style="stop-color:#68706F"/>
			<stop  offset="1" style="stop-color:#8F9998"/>
		</linearGradient>
		<path class="st20" d="M155.8,147c0,9.6-7.8,17.4-17.4,17.4H52.7c-9.6,0-17.4-7.8-17.4-17.4l0,0c0-9.6,7.8-17.4,17.4-17.4h85.7
			C148,129.7,155.8,137.4,155.8,147L155.8,147z"/>
		<linearGradient id="SVGID_22_" gradientUnits="userSpaceOnUse" x1="50.3306" y1="134.7758" x2="155.7249" y2="134.7758">
			<stop  offset="0" style="stop-color:#FFA901"/>
			<stop  offset="1" style="stop-color:#FFC71E"/>
		</linearGradient>
		<rect x="50.3" y="131.6" style="fill:url(#SVGID_22_);stroke:#D88600;stroke-miterlimit:10;" width="105.4" height="6.4"/>
		<g>
			<g>
				<radialGradient id="SVGID_23_" cx="37.2254" cy="163.1164" r="30.523" gradientUnits="userSpaceOnUse">
					<stop  offset="0.5714" style="stop-color:#262626"/>
					<stop  offset="0.8265" style="stop-color:#3D3D3D"/>
					<stop  offset="1" style="stop-color:#262626"/>
				</radialGradient>
				<path style="fill:url(#SVGID_23_);stroke:#212121;stroke-miterlimit:10;" d="M67.7,164.5v-2.8H66c0-0.8-0.1-1.7-0.2-2.5l1.7-0.3
					l-0.5-2.8l-1.7,0.3c-0.2-1-0.5-1.9-0.8-2.9l1.6-0.6l-1.1-2.6l-1.6,0.6c-0.4-0.9-0.9-1.7-1.4-2.6l1.4-0.9l-1.6-2.4l-1.4,0.9
					c-0.6-0.8-1.2-1.6-1.9-2.3l1.2-1.2l-2-2l-1.2,1.2c-0.6-0.6-1.3-1.1-1.9-1.6l1-1.4l-2.3-1.6l-1,1.4c-0.8-0.5-1.7-1-2.6-1.4
					l0.7-1.6l-2.6-1.1l-0.7,1.6c-0.9-0.3-1.8-0.6-2.8-0.9l0.3-1.7l-2.8-0.6l-0.3,1.7c-1-0.1-2-0.2-3-0.3v-1.7h-2.8v1.7
					c-0.8,0-1.7,0.1-2.5,0.2l-0.3-1.7l-2.8,0.5l0.3,1.7c-1,0.2-1.9,0.5-2.9,0.8l-0.6-1.6l-2.6,1.1l0.6,1.6c-0.9,0.4-1.7,0.9-2.6,1.4
					l-0.9-1.4l-2.4,1.6l0.9,1.4c-0.8,0.6-1.6,1.2-2.3,1.9l-1.2-1.2l-2,2l1.2,1.2c-0.6,0.6-1.1,1.3-1.6,1.9l-1.4-1l-1.6,2.3l1.4,1
					c-0.5,0.8-1,1.7-1.4,2.6l-1.6-0.7l-1.1,2.6l1.6,0.7c-0.3,0.9-0.6,1.8-0.9,2.8l-1.7-0.3L7,158.4l1.7,0.3c-0.1,1-0.2,2-0.3,3H6.7
					v2.8h1.7c0,0.8,0.1,1.7,0.2,2.5L7,167.3l0.5,2.8l1.7-0.3c0.2,1,0.5,1.9,0.8,2.9l-1.6,0.6l1.1,2.6l1.6-0.6
					c0.4,0.9,0.9,1.7,1.4,2.6l-1.4,0.9l1.6,2.4l1.4-0.9c0.6,0.8,1.2,1.6,1.9,2.3l-1.2,1.2l2,2l1.2-1.2c0.6,0.6,1.3,1.1,1.9,1.6
					l-1,1.4l2.3,1.6l1-1.4c0.8,0.5,1.7,1,2.6,1.4l-0.7,1.6l2.6,1.1l0.7-1.6c0.9,0.3,1.8,0.6,2.8,0.9l-0.3,1.7l2.8,0.6l0.3-1.7
					c1,0.1,2,0.2,3,0.3v1.7h2.8v-1.7c0.8,0,1.7-0.1,2.5-0.2l0.3,1.7l2.8-0.5l-0.3-1.7c1-0.2,1.9-0.5,2.9-0.8l0.6,1.6l2.6-1.1
					l-0.6-1.6c0.9-0.4,1.7-0.9,2.6-1.4l0.9,1.4l2.4-1.6l-0.9-1.4c0.8-0.6,1.6-1.2,2.3-1.9l1.2,1.2l2-2l-1.2-1.2
					c0.6-0.6,1.1-1.3,1.6-1.9l1.4,1l1.6-2.3l-1.4-1c0.5-0.8,1-1.7,1.4-2.6l1.6,0.7l1.1-2.6l-1.6-0.7c0.3-0.9,0.6-1.8,0.9-2.8
					l1.7,0.3l0.6-2.8l-1.7-0.3c0.1-1,0.2-2,0.3-3H67.7z"/>
				<radialGradient id="SVGID_24_" cx="37.2252" cy="163.1164" r="20.6446" gradientUnits="userSpaceOnUse">
					<stop  offset="0.801" style="stop-color:#8F9998"/>
					<stop  offset="1" style="stop-color:#68706F"/>
				</radialGradient>
				<circle class="st23" cx="37.2" cy="163.1" r="20.6"/>
				<circle class="st44" cx="37.2" cy="163.1" r="14.1"/>
				<circle class="st34" cx="37.2" cy="163.1" r="8.9"/>
			</g>
			<linearGradient id="SVGID_25_" gradientUnits="userSpaceOnUse" x1="1.19" y1="147.7657" x2="73.2385" y2="147.7657">
				<stop  offset="0" style="stop-color:#FFA901"/>
				<stop  offset="1" style="stop-color:#FFC71E"/>
			</linearGradient>
			<path style="fill:url(#SVGID_25_);stroke:#D88600;stroke-miterlimit:10;" d="M6.4,168.2C6.2,166.6,6,165,6,163.4
				c0-17.2,14-31.2,31.2-31.2s31.2,14,31.2,31.2c0,1.6-0.1,3.3-0.4,4.8h4.9c0.2-1.6,0.3-3.2,0.3-4.8c0-19.9-16.1-36-36-36
				s-36,16.1-36,36c0,1.6,0.1,3.3,0.3,4.8H6.4z"/>
		</g>
		<rect x="163.8" y="104.5" class="st34" width="9.9" height="43.6"/>
		<linearGradient id="SVGID_26_" gradientUnits="userSpaceOnUse" x1="172.1339" y1="126.8433" x2="251.4288" y2="126.8433">
			<stop  offset="0" style="stop-color:#68706F"/>
			<stop  offset="1" style="stop-color:#8F9998"/>
		</linearGradient>
		<path class="st25" d="M251.4,151.2c-10.3,0-79.3,0-79.3,0v-48.7h5v44.4c0,0,60.7,0,65.5,0C247.4,146.9,251.4,151.2,251.4,151.2z"
			/>
		<g>
			<path class="st34" d="M152.2,8.6h2.4c0.1,0,0.1,0,0.2,0v17.1c-0.1,0-0.1,0-0.2,0h-2.4c-2.6,0-4.7-1.7-4.7-3.7v-9.7
				C147.5,10.3,149.6,8.6,152.2,8.6z"/>
			<linearGradient id="SVGID_27_" gradientUnits="userSpaceOnUse" x1="151.1982" y1="75.1897" x2="167.1988" y2="75.1897">
				<stop  offset="0" style="stop-color:#68706F"/>
				<stop  offset="1" style="stop-color:#8F9998"/>
			</linearGradient>
			<rect x="151.2" y="0" class="st26" width="16" height="150.4"/>
			<rect x="164.6" y="1.7" class="st133" width="1" height="4.8"/>
			<rect x="164.6" y="10.2" class="st133" width="1" height="17.2"/>
			<rect x="164.6" y="31.2" class="st133" width="1" height="117.5"/>
			<linearGradient id="SVGID_28_" gradientUnits="userSpaceOnUse" x1="159.8016" y1="48.0631" x2="146.6972" y2="112.493">
				<stop  offset="0" style="stop-color:#3A4445;stop-opacity:0.2"/>
				<stop  offset="1" style="stop-color:#3A4445;stop-opacity:0.5"/>
			</linearGradient>
			<rect x="151.2" y="0" style="fill:url(#SVGID_28_);" width="6.2" height="150.4"/>
			<rect x="149.2" y="26.9" class="st44" width="19.3" height="1.9"/>
			<rect x="149.2" y="6.1" class="st44" width="19.3" height="1.9"/>
		</g>
		<g>
			<g>
				<radialGradient id="SVGID_29_" cx="126.2171" cy="163.1164" r="30.523" gradientUnits="userSpaceOnUse">
					<stop  offset="0.5714" style="stop-color:#262626"/>
					<stop  offset="0.8265" style="stop-color:#3D3D3D"/>
					<stop  offset="1" style="stop-color:#262626"/>
				</radialGradient>
				<path style="fill:url(#SVGID_29_);stroke:#212121;stroke-miterlimit:10;" d="M156.7,164.5v-2.8H155c0-0.8-0.1-1.7-0.2-2.5
					l1.7-0.3l-0.5-2.8l-1.7,0.3c-0.2-1-0.5-1.9-0.8-2.9l1.6-0.6l-1.1-2.6l-1.6,0.6c-0.4-0.9-0.9-1.7-1.4-2.6l1.4-0.9l-1.6-2.4
					l-1.4,0.9c-0.6-0.8-1.2-1.6-1.9-2.3l1.2-1.2l-2-2l-1.2,1.2c-0.6-0.6-1.3-1.1-1.9-1.6l1-1.4l-2.3-1.6l-1,1.4
					c-0.8-0.5-1.7-1-2.6-1.4l0.7-1.6l-2.6-1.1l-0.7,1.6c-0.9-0.3-1.8-0.6-2.8-0.9l0.3-1.7l-2.8-0.6l-0.3,1.7c-1-0.1-2-0.2-3-0.3
					v-1.7h-2.8v1.7c-0.8,0-1.7,0.1-2.5,0.2l-0.3-1.7l-2.8,0.5l0.3,1.7c-1,0.2-1.9,0.5-2.9,0.8l-0.6-1.6l-2.6,1.1l0.6,1.6
					c-0.9,0.4-1.7,0.9-2.6,1.4l-0.9-1.4l-2.4,1.6l0.9,1.4c-0.8,0.6-1.6,1.2-2.3,1.9l-1.2-1.2l-2,2l1.2,1.2c-0.6,0.6-1.1,1.3-1.6,1.9
					l-1.4-1l-1.6,2.3l1.4,1c-0.5,0.8-1,1.7-1.4,2.6l-1.6-0.7l-1.1,2.6l1.6,0.7c-0.3,0.9-0.6,1.8-0.9,2.8l-1.7-0.3l-0.6,2.8l1.7,0.3
					c-0.1,1-0.2,2-0.3,3h-1.7v2.8h1.7c0,0.8,0.1,1.7,0.2,2.5l-1.7,0.3l0.5,2.8l1.7-0.3c0.2,1,0.5,1.9,0.8,2.9l-1.6,0.6l1.1,2.6
					l1.6-0.6c0.4,0.9,0.9,1.7,1.4,2.6l-1.4,0.9l1.6,2.4l1.4-0.9c0.6,0.8,1.2,1.6,1.9,2.3l-1.2,1.2l2,2l1.2-1.2
					c0.6,0.6,1.3,1.1,1.9,1.6l-1,1.4l2.3,1.6l1-1.4c0.8,0.5,1.7,1,2.6,1.4l-0.7,1.6l2.6,1.1l0.7-1.6c0.9,0.3,1.8,0.6,2.8,0.9
					l-0.3,1.7l2.8,0.6l0.3-1.7c1,0.1,2,0.2,3,0.3v1.7h2.8v-1.7c0.8,0,1.7-0.1,2.5-0.2l0.3,1.7l2.8-0.5l-0.3-1.7
					c1-0.2,1.9-0.5,2.9-0.8l0.6,1.6l2.6-1.1l-0.6-1.6c0.9-0.4,1.7-0.9,2.6-1.4l0.9,1.4l2.4-1.6l-0.9-1.4c0.8-0.6,1.6-1.2,2.3-1.9
					l1.2,1.2l2-2l-1.2-1.2c0.6-0.6,1.1-1.3,1.6-1.9l1.4,1l1.6-2.3l-1.4-1c0.5-0.8,1-1.7,1.4-2.6l1.6,0.7l1.1-2.6l-1.6-0.7
					c0.3-0.9,0.6-1.8,0.9-2.8l1.7,0.3l0.6-2.8l-1.7-0.3c0.1-1,0.2-2,0.3-3H156.7z"/>
				<radialGradient id="SVGID_30_" cx="126.2169" cy="163.1164" r="20.6446" gradientUnits="userSpaceOnUse">
					<stop  offset="0.801" style="stop-color:#8F9998"/>
					<stop  offset="1" style="stop-color:#68706F"/>
				</radialGradient>
				<circle style="fill:url(#SVGID_30_);stroke:#3A4445;stroke-miterlimit:10;" cx="126.2" cy="163.1" r="20.6"/>
				<circle class="st44" cx="126.2" cy="163.1" r="14.1"/>
				<circle class="st34" cx="126.2" cy="163.1" r="8.9"/>
			</g>
			<linearGradient id="SVGID_31_" gradientUnits="userSpaceOnUse" x1="90.1817" y1="147.7657" x2="162.2302" y2="147.7657">
				<stop  offset="0" style="stop-color:#FFA901"/>
				<stop  offset="1" style="stop-color:#FFC71E"/>
			</linearGradient>
			<path style="fill:url(#SVGID_31_);stroke:#D88600;stroke-miterlimit:10;" d="M95.4,168.2c-0.2-1.6-0.4-3.2-0.4-4.8
				c0-17.2,14-31.2,31.2-31.2s31.2,14,31.2,31.2c0,1.6-0.1,3.3-0.4,4.8h4.9c0.2-1.6,0.3-3.2,0.3-4.8c0-19.9-16.1-36-36-36
				s-36,16.1-36,36c0,1.6,0.1,3.3,0.3,4.8H95.4z"/>
		</g>
	</g>
</g>
</svg>
