<?xml version="1.0" encoding="utf-8"?>
<!-- Generator: Adobe Illustrator 19.0.1, SVG Export Plug-In . SVG Version: 6.00 Build 0)  -->
<svg version="1.1" xmlns="http://www.w3.org/2000/svg" xmlns:xlink="http://www.w3.org/1999/xlink" x="0px" y="0px"
	 viewBox="0 0 242.6 129.7" style="enable-background:new 0 0 242.6 129.7;" xml:space="preserve">
<style type="text/css">
	.st0{fill:url(#SVGID_1_);stroke:#3A4445;stroke-miterlimit:10;}
	.st1{fill:url(#SVGID_2_);}
	.st2{fill:url(#SVGID_3_);stroke:#3A4445;stroke-miterlimit:10;}
	.st3{fill:url(#SVGID_4_);stroke:#3A4445;stroke-miterlimit:10;}
	.st4{fill:url(#SVGID_5_);stroke:#D88600;stroke-miterlimit:10;}
	.st5{fill:url(#SVGID_6_);}
	.st6{fill:url(#SVGID_7_);}
	.st7{fill:url(#SVGID_8_);stroke:#D88600;stroke-miterlimit:10;}
	.st8{fill:url(#SVGID_9_);}
	.st9{fill:url(#SVGID_10_);}
	.st10{fill:url(#SVGID_11_);stroke:#3A4445;stroke-miterlimit:10;}
	.st11{fill:url(#SVGID_12_);stroke:#D88600;stroke-miterlimit:10;}
	.st12{fill:url(#SVGID_13_);}
	.st13{fill:url(#SVGID_14_);}
	.st14{fill:url(#SVGID_15_);stroke:#D88600;stroke-miterlimit:10;}
	.st15{fill:url(#SVGID_16_);}
	.st16{fill:url(#SVGID_17_);}
	.st17{fill:url(#SVGID_18_);stroke:#D88600;stroke-miterlimit:10;}
	.st18{fill:url(#SVGID_19_);}
	.st19{fill:url(#SVGID_20_);stroke:#D88600;stroke-miterlimit:10;}
	.st20{fill:url(#SVGID_21_);stroke:#3A4445;stroke-miterlimit:10;}
	.st21{fill:url(#SVGID_22_);stroke:#3A4445;stroke-miterlimit:10;}
	.st22{fill:url(#SVGID_23_);stroke:#3A4445;stroke-miterlimit:10;}
	.st23{fill:url(#SVGID_24_);stroke:#3A4445;stroke-miterlimit:10;}
	.st24{fill:url(#SVGID_25_);stroke:#3A4445;stroke-miterlimit:10;}
	.st25{fill:url(#SVGID_26_);stroke:#3A4445;stroke-miterlimit:10;}
	.st26{fill:url(#SVGID_27_);stroke:#3A4445;stroke-miterlimit:10;}
	.st27{fill:url(#SVGID_28_);stroke:#D88600;stroke-miterlimit:10;}
	.st28{fill:url(#SVGID_29_);}
	.st29{fill:url(#SVGID_30_);}
	.st30{fill:url(#SVGID_31_);stroke:#3A4445;stroke-miterlimit:10;}
	.st31{fill:url(#SVGID_32_);stroke:#D88600;stroke-miterlimit:10;}
	.st32{fill:url(#SVGID_33_);stroke:#D88600;stroke-miterlimit:10;}
	.st33{fill:url(#SVGID_34_);stroke:#D88600;stroke-miterlimit:10;}
	.st34{fill:#262626;}
	.st35{fill:url(#SVGID_35_);stroke:#D88600;stroke-miterlimit:10;}
	.st36{fill:url(#SVGID_36_);stroke:#D88600;stroke-miterlimit:10;}
	.st37{fill:url(#SVGID_37_);stroke:#D88600;stroke-miterlimit:10;}
	.st38{fill:url(#SVGID_38_);}
	.st39{fill:url(#SVGID_39_);stroke:#3A4445;stroke-miterlimit:10;}
	.st40{fill:url(#SVGID_40_);stroke:#3A4445;stroke-miterlimit:10;}
	.st41{fill:url(#SVGID_41_);stroke:#D88600;stroke-miterlimit:10;}
	.st42{fill:url(#SVGID_42_);stroke:#212121;stroke-miterlimit:10;}
	.st43{fill:url(#SVGID_43_);stroke:#3A4445;stroke-miterlimit:10;}
	.st44{fill:#7E8887;stroke:#505E5F;stroke-miterlimit:10;}
	.st45{fill:url(#SVGID_44_);stroke:#212121;stroke-miterlimit:10;}
	.st46{fill:url(#SVGID_45_);stroke:#3A4445;stroke-miterlimit:10;}
	.st47{fill:url(#SVGID_46_);stroke:#D88600;stroke-miterlimit:10;}
	.st48{fill:url(#SVGID_47_);stroke:#D88600;stroke-miterlimit:10;}
	.st49{fill:url(#SVGID_48_);stroke:#D88600;stroke-miterlimit:10;}
	.st50{fill:url(#SVGID_49_);stroke:#D88600;stroke-miterlimit:10;}
	.st51{fill:url(#SVGID_50_);}
	.st52{fill:url(#SVGID_51_);stroke:#D88600;stroke-miterlimit:10;}
	.st53{fill:url(#SVGID_52_);stroke:#3A4445;stroke-miterlimit:10;}
	.st54{fill:url(#SVGID_53_);stroke:#D88600;stroke-miterlimit:10;}
	.st55{fill:url(#SVGID_54_);}
	.st56{fill:url(#SVGID_55_);stroke:#D88600;stroke-miterlimit:10;}
	.st57{fill:url(#SVGID_56_);}
	.st58{fill:#AFBDBB;}
	.st59{fill:url(#SVGID_57_);stroke:#D88600;stroke-miterlimit:10;}
	.st60{fill:url(#SVGID_58_);stroke:#D88600;stroke-miterlimit:10;}
	.st61{fill:url(#SVGID_59_);}
	.st62{fill:url(#SVGID_60_);stroke:#D88600;stroke-miterlimit:10;}
	.st63{fill:url(#SVGID_61_);stroke:#D88600;stroke-miterlimit:10;}
	.st64{fill:url(#SVGID_62_);}
	.st65{fill:url(#SVGID_63_);stroke:#D88600;stroke-miterlimit:10;}
	.st66{fill:url(#SVGID_64_);stroke:#D88600;stroke-miterlimit:10;}
	.st67{fill:url(#SVGID_65_);}
	.st68{fill:url(#SVGID_66_);stroke:#D88600;stroke-miterlimit:10;}
	.st69{fill:url(#SVGID_67_);}
	.st70{fill:url(#SVGID_68_);}
	.st71{fill:url(#SVGID_69_);}
	.st72{fill:url(#SVGID_70_);stroke:#D88600;stroke-miterlimit:10;}
	.st73{fill:url(#SVGID_71_);}
	.st74{fill:url(#SVGID_72_);}
	.st75{fill:url(#SVGID_73_);}
	.st76{fill:url(#SVGID_74_);}
	.st77{fill:url(#SVGID_75_);}
	.st78{fill:url(#SVGID_76_);stroke:#D88600;stroke-miterlimit:10;}
	.st79{fill:url(#SVGID_77_);}
	.st80{fill:url(#SVGID_78_);}
	.st81{fill:url(#SVGID_79_);stroke:#D88600;stroke-miterlimit:10;}
	.st82{fill:url(#SVGID_80_);}
	.st83{fill:url(#SVGID_81_);}
	.st84{fill:url(#SVGID_82_);stroke:#D88600;stroke-miterlimit:10;}
	.st85{fill:url(#SVGID_83_);}
	.st86{fill:url(#SVGID_84_);stroke:#D88600;stroke-miterlimit:10;}
	.st87{fill:url(#SVGID_85_);stroke:#D88600;stroke-miterlimit:10;}
	.st88{fill:url(#SVGID_86_);stroke:#D88600;stroke-miterlimit:10;}
	.st89{fill:url(#SVGID_87_);}
	.st90{fill:url(#SVGID_88_);stroke:#D88600;stroke-miterlimit:10;}
	.st91{fill:url(#SVGID_89_);}
	.st92{fill:url(#SVGID_90_);stroke:#D88600;stroke-miterlimit:10;}
	.st93{fill:url(#SVGID_91_);stroke:#D88600;stroke-miterlimit:10;}
	.st94{fill:url(#SVGID_92_);}
	.st95{fill:url(#SVGID_93_);}
	.st96{fill:url(#SVGID_94_);}
	.st97{fill:url(#SVGID_95_);stroke:#3A4445;stroke-miterlimit:10;}
	.st98{fill:url(#SVGID_96_);stroke:#505E5F;stroke-miterlimit:10;}
	.st99{fill:url(#SVGID_97_);}
	.st100{fill:url(#SVGID_98_);}
	.st101{fill:url(#SVGID_99_);}
	.st102{fill:#FFFFFF;}
	.st103{fill:url(#SVGID_100_);stroke:#3A4445;stroke-miterlimit:10;}
	.st104{fill:url(#SVGID_101_);stroke:#3A4445;stroke-miterlimit:10;}
	.st105{fill:#8E9998;}
	.st106{fill:url(#SVGID_102_);stroke:#3A4445;stroke-miterlimit:10;}
	.st107{fill:url(#SVGID_103_);stroke:#3A4445;stroke-miterlimit:10;}
	.st108{fill:url(#SVGID_104_);stroke:#3A4445;stroke-miterlimit:10;}
	.st109{fill:url(#SVGID_105_);stroke:#3A4445;stroke-miterlimit:10;}
	.st110{fill:url(#SVGID_106_);stroke:#3A4445;stroke-miterlimit:10;}
	.st111{fill:#B1BFBE;}
	.st112{fill:url(#SVGID_107_);stroke:#3A4445;stroke-miterlimit:10;}
	.st113{fill:url(#SVGID_108_);stroke:#3A4445;stroke-miterlimit:10;}
	.st114{fill:url(#SVGID_109_);stroke:#3A4445;stroke-miterlimit:10;}
	.st115{fill:url(#SVGID_110_);stroke:#3A4445;stroke-miterlimit:10;}
	.st116{fill:url(#SVGID_111_);stroke:#3A4445;stroke-miterlimit:10;}
	.st117{fill:url(#SVGID_112_);stroke:#D88600;stroke-miterlimit:10;}
	.st118{fill:url(#SVGID_113_);stroke:#3A4445;stroke-miterlimit:10;}
	.st119{fill:url(#SVGID_114_);stroke:#D88600;stroke-miterlimit:10;}
	.st120{fill:url(#SVGID_115_);stroke:#D88600;stroke-miterlimit:10;}
	.st121{fill:url(#SVGID_116_);}
	.st122{fill:url(#SVGID_117_);stroke:#3A4445;stroke-miterlimit:10;}
	.st123{fill:url(#SVGID_118_);}
	.st124{fill:url(#SVGID_119_);stroke:#3A4445;stroke-miterlimit:10;}
	.st125{fill:url(#SVGID_120_);stroke:#D88600;stroke-miterlimit:10;}
	.st126{fill:url(#SVGID_121_);stroke:#D88600;stroke-miterlimit:10;}
	.st127{fill:url(#SVGID_122_);}
	.st128{fill:url(#SVGID_123_);stroke:#D88600;stroke-miterlimit:10;}
	.st129{fill:url(#SVGID_124_);stroke:#D88600;stroke-miterlimit:10;}
	.st130{fill:url(#SVGID_125_);stroke:#D88600;stroke-miterlimit:10;}
	.st131{fill:url(#SVGID_126_);}
	.st132{fill:url(#SVGID_127_);stroke:#3A4445;stroke-miterlimit:10;}
	.st133{fill:#BBC9C8;}
	.st134{fill:url(#SVGID_128_);}
	.st135{fill:url(#SVGID_129_);stroke:#D88600;stroke-miterlimit:10;}
	.st136{fill:url(#SVGID_130_);}
	.st137{fill:url(#SVGID_131_);}
	.st138{fill:url(#SVGID_132_);stroke:#D88600;stroke-miterlimit:10;}
	.st139{fill:url(#SVGID_133_);}
	.st140{fill:url(#SVGID_134_);stroke:#D88600;stroke-miterlimit:10;}
	.st141{fill:url(#SVGID_135_);}
	.st142{fill:url(#SVGID_136_);stroke:#D88600;stroke-miterlimit:10;}
	.st143{fill:url(#SVGID_137_);stroke:#D88600;stroke-miterlimit:10;}
	.st144{fill:url(#SVGID_138_);stroke:#D88600;stroke-miterlimit:10;}
	.st145{fill:url(#SVGID_139_);stroke:#D88600;stroke-miterlimit:10;}
	.st146{fill:url(#SVGID_140_);stroke:#D88600;stroke-miterlimit:10;}
	.st147{fill:url(#SVGID_141_);stroke:#D88600;stroke-miterlimit:10;}
	.st148{fill:url(#SVGID_142_);}
	.st149{fill:url(#SVGID_143_);stroke:#D88600;stroke-miterlimit:10;}
	.st150{fill:url(#SVGID_144_);}
	.st151{fill:url(#SVGID_145_);stroke:#D88600;stroke-miterlimit:10;}
	.st152{fill:url(#SVGID_146_);stroke:#D88600;stroke-miterlimit:10;}
	.st153{fill:url(#SVGID_147_);}
	.st154{fill:url(#SVGID_148_);}
	.st155{fill:url(#SVGID_149_);stroke:#D88600;stroke-miterlimit:10;}
	.st156{fill:url(#SVGID_150_);}
	.st157{fill:url(#SVGID_151_);stroke:#D88600;stroke-miterlimit:10;}
	.st158{fill:url(#SVGID_152_);}
	.st159{fill:url(#SVGID_153_);}
	.st160{fill:url(#SVGID_154_);}
	.st161{fill:url(#SVGID_155_);}
	.st162{fill:url(#SVGID_156_);}
	.st163{fill:url(#SVGID_157_);stroke:#D88600;stroke-miterlimit:10;}
	.st164{fill:url(#SVGID_158_);stroke:#D88600;stroke-miterlimit:10;}
	.st165{fill:url(#SVGID_159_);stroke:#D88600;stroke-miterlimit:10;}
	.st166{fill:url(#SVGID_160_);stroke:#D88600;stroke-miterlimit:10;}
	.st167{fill:url(#SVGID_161_);}
	.st168{fill:url(#SVGID_162_);stroke:#D88600;stroke-miterlimit:10;}
	.st169{fill:url(#SVGID_163_);}
	.st170{fill:url(#SVGID_164_);stroke:#D88600;stroke-miterlimit:10;}
	.st171{fill:url(#SVGID_165_);stroke:#212121;stroke-miterlimit:10;}
	.st172{fill:url(#SVGID_166_);stroke:#212121;stroke-miterlimit:10;}
	.st173{fill:url(#SVGID_167_);stroke:#D88600;stroke-miterlimit:10;}
	.st174{fill:url(#SVGID_168_);stroke:#D88600;stroke-miterlimit:10;}
	.st175{fill:url(#SVGID_169_);stroke:#D88600;stroke-miterlimit:10;}
	.st176{fill:url(#SVGID_170_);}
	.st177{fill:url(#SVGID_171_);stroke:#D88600;stroke-miterlimit:10;}
	.st178{fill:url(#SVGID_172_);stroke:#212121;stroke-miterlimit:10;}
	.st179{fill:url(#SVGID_173_);stroke:#D88600;stroke-miterlimit:10;}
	.st180{fill:url(#SVGID_174_);stroke:#212121;stroke-miterlimit:10;}
	.st181{fill:url(#SVGID_175_);stroke:#212121;stroke-miterlimit:10;}
	.st182{fill:url(#SVGID_176_);stroke:#D88600;stroke-miterlimit:10;}
	.st183{fill:url(#SVGID_177_);stroke:#212121;stroke-miterlimit:10;}
	.st184{fill:url(#SVGID_178_);stroke:#D88600;stroke-miterlimit:10;}
	.st185{fill:url(#SVGID_179_);stroke:#D88600;stroke-miterlimit:10;}
	.st186{fill:url(#SVGID_180_);}
	.st187{fill:url(#SVGID_181_);stroke:#D88600;stroke-miterlimit:10;}
	.st188{fill:url(#SVGID_182_);stroke:#D88600;stroke-miterlimit:10;}
	.st189{fill:url(#SVGID_183_);stroke:#D88600;stroke-miterlimit:10;}
	.st190{fill:url(#SVGID_184_);}
	.st191{fill:url(#SVGID_185_);}
	.st192{fill:url(#SVGID_186_);stroke:#3A4445;stroke-miterlimit:10;}
	.st193{fill:url(#SVGID_187_);stroke:#3A4445;stroke-miterlimit:10;}
	.st194{fill:url(#SVGID_188_);stroke:#D88600;stroke-miterlimit:10;}
	.st195{fill:url(#SVGID_189_);}
	.st196{fill:url(#SVGID_190_);stroke:#3A4445;stroke-miterlimit:10;}
	.st197{fill:url(#SVGID_191_);stroke:#D88600;stroke-miterlimit:10;}
	.st198{fill:url(#SVGID_192_);stroke:#D88600;stroke-miterlimit:10;}
	.st199{fill:url(#SVGID_193_);}
	.st200{fill:url(#SVGID_194_);stroke:#3A4445;stroke-miterlimit:10;}
	.st201{fill:url(#SVGID_195_);stroke:#D88600;stroke-miterlimit:10;}
	.st202{fill:url(#SVGID_196_);stroke:#D88600;stroke-miterlimit:10;}
	.st203{fill:url(#SVGID_197_);stroke:#D88600;stroke-miterlimit:10;}
	.st204{fill:url(#SVGID_198_);}
	.st205{fill:url(#SVGID_199_);stroke:#3A4445;stroke-miterlimit:10;}
	.st206{fill:url(#SVGID_200_);stroke:#D88600;stroke-miterlimit:10;}
	.st207{fill:url(#SVGID_201_);stroke:#212121;stroke-miterlimit:10;}
	.st208{fill:url(#SVGID_202_);stroke:#3A4445;stroke-miterlimit:10;}
	.st209{fill:url(#SVGID_203_);stroke:#D88600;stroke-miterlimit:10;}
	.st210{fill:url(#SVGID_204_);stroke:#3A4445;stroke-miterlimit:10;}
	.st211{fill:url(#SVGID_205_);stroke:#3A4445;stroke-miterlimit:10;}
	.st212{fill:url(#SVGID_206_);}
	.st213{fill:url(#SVGID_207_);stroke:#212121;stroke-miterlimit:10;}
	.st214{fill:url(#SVGID_208_);stroke:#3A4445;stroke-miterlimit:10;}
	.st215{fill:url(#SVGID_209_);stroke:#D88600;stroke-miterlimit:10;}
	.st216{fill:url(#SVGID_210_);}
	.st217{fill:url(#SVGID_211_);stroke:#D88600;stroke-linecap:round;stroke-linejoin:round;stroke-miterlimit:10;}
	.st218{fill:url(#SVGID_212_);}
	.st219{fill:url(#SVGID_213_);}
	.st220{fill:url(#SVGID_214_);stroke:#D88600;stroke-miterlimit:10;}
	.st221{fill:url(#SVGID_215_);}
	.st222{fill:#E69704;stroke:#D88600;stroke-linecap:round;stroke-linejoin:round;stroke-miterlimit:10;}
	.st223{fill:url(#SVGID_216_);stroke:#D88600;stroke-miterlimit:10;}
	.st224{fill:url(#SVGID_217_);}
	.st225{fill:url(#SVGID_218_);stroke:#D88600;stroke-miterlimit:10;}
	.st226{fill:url(#SVGID_219_);stroke:#D88600;stroke-miterlimit:10;}
	.st227{fill:url(#SVGID_220_);stroke:#D88600;stroke-miterlimit:10;}
	.st228{fill:url(#SVGID_221_);stroke:#D88600;stroke-miterlimit:10;}
	.st229{fill:url(#SVGID_222_);stroke:#3A4445;stroke-miterlimit:10;}
	.st230{fill:url(#SVGID_223_);stroke:#3A4445;stroke-miterlimit:10;}
	.st231{fill:url(#SVGID_224_);stroke:#3A4445;stroke-miterlimit:10;}
	.st232{fill:url(#SVGID_225_);stroke:#3A4445;stroke-miterlimit:10;}
	.st233{fill:url(#SVGID_226_);stroke:#3A4445;stroke-miterlimit:10;}
	.st234{fill:url(#SVGID_227_);stroke:#3A4445;stroke-miterlimit:10;}
	.st235{fill:url(#SVGID_228_);stroke:#3A4445;stroke-miterlimit:10;}
	.st236{fill:url(#SVGID_229_);stroke:#3A4445;stroke-miterlimit:10;}
	.st237{fill:url(#SVGID_230_);stroke:#3A4445;stroke-miterlimit:10;}
	.st238{fill:url(#SVGID_231_);stroke:#3A4445;stroke-miterlimit:10;}
	.st239{fill:url(#SVGID_232_);stroke:#3A4445;stroke-miterlimit:10;}
	.st240{fill:url(#SVGID_233_);stroke:#3A4445;stroke-miterlimit:10;}
	.st241{fill:url(#SVGID_234_);stroke:#3A4445;stroke-miterlimit:10;}
	.st242{fill:url(#SVGID_235_);stroke:#D88600;stroke-miterlimit:10;}
	.st243{fill:url(#SVGID_236_);stroke:#3A4445;stroke-miterlimit:10;}
	.st244{fill:url(#SVGID_237_);stroke:#3A4445;stroke-miterlimit:10;}
	.st245{fill:url(#SVGID_238_);stroke:#D88600;stroke-miterlimit:10;}
	.st246{fill:url(#SVGID_239_);}
	.st247{fill:url(#SVGID_240_);stroke:#D88600;stroke-miterlimit:10;}
	.st248{fill:url(#SVGID_241_);}
	.st249{fill:url(#SVGID_242_);stroke:#D88600;stroke-miterlimit:10;}
	.st250{fill:url(#SVGID_243_);}
	.st251{fill:url(#SVGID_244_);}
	.st252{fill:url(#SVGID_245_);stroke:#D88600;stroke-miterlimit:10;}
	.st253{fill:url(#SVGID_246_);stroke:#D88600;stroke-miterlimit:10;}
	.st254{fill:url(#SVGID_247_);}
	.st255{fill:url(#SVGID_248_);stroke:#D88600;stroke-miterlimit:10;}
	.st256{fill:url(#SVGID_249_);}
	.st257{fill:url(#SVGID_250_);}
	.st258{fill:url(#SVGID_251_);stroke:#D88600;stroke-miterlimit:10;}
	.st259{fill:url(#SVGID_252_);stroke:#D88600;stroke-miterlimit:10;}
	.st260{fill:url(#SVGID_253_);stroke:#D88600;stroke-miterlimit:10;}
	.st261{fill:url(#SVGID_254_);}
	.st262{fill:url(#SVGID_255_);stroke:#D88600;stroke-miterlimit:10;}
	.st263{fill:url(#SVGID_256_);}
	.st264{fill:url(#SVGID_257_);stroke:#D88600;stroke-miterlimit:10;}
	.st265{fill:url(#SVGID_258_);stroke:#D88600;stroke-miterlimit:10;}
	.st266{fill:url(#SVGID_259_);}
	.st267{fill:url(#SVGID_260_);stroke:#D88600;stroke-miterlimit:10;}
	.st268{fill:url(#SVGID_261_);stroke:#D88600;stroke-miterlimit:10;}
	.st269{fill:url(#SVGID_262_);stroke:#D88600;stroke-miterlimit:10;}
	.st270{fill:url(#SVGID_263_);}
	.st271{fill:url(#SVGID_264_);stroke:#D88600;stroke-miterlimit:10;}
	.st272{fill:url(#SVGID_265_);}
	.st273{fill:url(#SVGID_266_);stroke:#3A4445;stroke-miterlimit:10;}
	.st274{fill:url(#SVGID_267_);stroke:#3A4445;stroke-miterlimit:10;}
	.st275{fill:url(#SVGID_268_);stroke:#3A4445;stroke-miterlimit:10;}
	.st276{fill:url(#SVGID_269_);stroke:#3A4445;stroke-miterlimit:10;}
	.st277{fill:url(#SVGID_270_);stroke:#3A4445;stroke-miterlimit:10;}
	.st278{fill:url(#SVGID_271_);stroke:#3A4445;stroke-miterlimit:10;}
	.st279{fill:url(#SVGID_272_);stroke:#3A4445;stroke-miterlimit:10;}
	.st280{fill:url(#SVGID_273_);stroke:#3A4445;stroke-miterlimit:10;}
	.st281{fill:url(#SVGID_274_);stroke:#3A4445;stroke-miterlimit:10;}
	.st282{fill:url(#SVGID_275_);stroke:#3A4445;stroke-miterlimit:10;}
	.st283{fill:url(#SVGID_276_);stroke:#3A4445;stroke-miterlimit:10;}
	.st284{fill:url(#SVGID_277_);stroke:#3A4445;stroke-miterlimit:10;}
	.st285{fill:url(#SVGID_278_);stroke:#3A4445;stroke-miterlimit:10;}
	.st286{fill:#9CA8A7;}
	.st287{fill:none;stroke:#7E8887;stroke-width:2;stroke-miterlimit:10;}
	.st288{fill:#A1ADAC;}
	.st289{fill:#505E5F;}
	.st290{fill:url(#SVGID_279_);stroke:#D88600;stroke-miterlimit:10;}
	.st291{fill:url(#SVGID_280_);stroke:#D88600;stroke-miterlimit:10;}
	.st292{fill:url(#SVGID_281_);stroke:#D88600;stroke-miterlimit:10;}
	.st293{fill:url(#SVGID_282_);stroke:#D88600;stroke-miterlimit:10;}
	.st294{fill:url(#SVGID_283_);stroke:#D88600;stroke-miterlimit:10;}
	.st295{fill:url(#SVGID_284_);}
	.st296{fill:url(#SVGID_285_);}
	.st297{fill:url(#SVGID_286_);}
	.st298{fill:url(#SVGID_287_);}
	.st299{fill:url(#SVGID_288_);}
	.st300{fill:url(#SVGID_289_);}
	.st301{fill:url(#SVGID_290_);stroke:#D88600;stroke-miterlimit:10;}
	.st302{fill:url(#SVGID_291_);}
	.st303{fill:url(#SVGID_292_);stroke:#D88600;stroke-miterlimit:10;}
	.st304{fill:url(#SVGID_293_);stroke:#D88600;stroke-miterlimit:10;}
	.st305{fill:url(#SVGID_294_);}
	.st306{fill:url(#SVGID_295_);stroke:#D88600;stroke-miterlimit:10;}
	.st307{fill:url(#SVGID_296_);}
	.st308{fill:url(#SVGID_297_);stroke:#D88600;stroke-miterlimit:10;}
	.st309{fill:url(#SVGID_298_);}
	.st310{fill:url(#SVGID_299_);stroke:#D88600;stroke-miterlimit:10;}
	.st311{fill:url(#SVGID_300_);}
	.st312{fill:url(#SVGID_301_);stroke:#D88600;stroke-miterlimit:10;}
	.st313{fill:url(#SVGID_302_);}
	.st314{fill:url(#SVGID_303_);stroke:#D88600;stroke-miterlimit:10;}
	.st315{fill:url(#SVGID_304_);stroke:#D88600;stroke-miterlimit:10;}
	.st316{fill:url(#SVGID_305_);stroke:#D88600;stroke-miterlimit:10;}
	.st317{fill:url(#SVGID_306_);stroke:#D88600;stroke-miterlimit:10;}
</style>
<g id="Background">
</g>
<g id="Objects">
	<g>
		<path class="st44" d="M128.9,48.8c0-10.8-0.6-32.5-0.6-32.5s-0.3-9,9-9c0,5.1,0,8.7,0,8.7s-4.2,1.1-4.2,3.1s0,28.2,0,28.2"/>
		<path class="st133" d="M129.5,17.1c0-3.2,0.9-7.9,7-8.7c0,1.6-0.1,3.8-0.1,3.8S131.5,11.7,129.5,17.1z"/>
		<path class="st44" d="M100,41.3c17.8,1.5,56.9,7.2,56.9,7.2s-5.4,18.8-10.2,22.9c-4.8,4.1-40.9,10.8-44.5,9.9
			c-3.6-0.9-15.7-6-15.7-11.1C86.5,65,100,41.3,100,41.3z"/>
		
			<rect x="101.2" y="46.3" transform="matrix(0.9924 0.1231 -0.1231 0.9924 7.1272 -15.4066)" class="st133" width="54.1" height="7.3"/>
		<rect x="106.4" y="62.3" class="st44" width="7.5" height="9.9"/>
		<rect x="136.3" y="62.3" class="st44" width="7.5" height="9.9"/>
		<linearGradient id="SVGID_1_" gradientUnits="userSpaceOnUse" x1="86.5001" y1="61.3077" x2="152.9514" y2="61.3077">
			<stop  offset="0" style="stop-color:#3A4445;stop-opacity:0.2"/>
			<stop  offset="1" style="stop-color:#3A4445;stop-opacity:0.5"/>
		</linearGradient>
		<path style="fill:url(#SVGID_1_);" d="M153,60.1c-0.2-0.2-0.4-0.4-0.5-0.5c-0.6-1-6.2,5.7-8,6c-1.8,0.3-18.5,1-29.4,1.3
			c-10.9,0.3-16.4-0.9-14.4-4.4c1.7-2.9,4.4-14.2,4.5-20.8c-1.9-0.2-3.6-0.4-5.1-0.5c0,0-13.5,23.8-13.5,28.9
			c0,5.1,12,10.2,15.7,11.1c3.6,0.9,39.8-5.9,44.5-9.9C148.8,69.5,151.1,64.8,153,60.1z"/>
		<g>
			<linearGradient id="SVGID_2_" gradientUnits="userSpaceOnUse" x1="154.9346" y1="111.2307" x2="158.807" y2="31.4605">
				<stop  offset="0" style="stop-color:#FFA901"/>
				<stop  offset="1" style="stop-color:#FFC71E"/>
			</linearGradient>
			<path style="fill:url(#SVGID_2_);stroke:#D88600;stroke-linecap:round;stroke-linejoin:round;stroke-miterlimit:10;" d="
				M169.8,118.1h8V45.7h2.2V37h-11.8c0,0-4,1.2-9.2,10c-5.2,8.8-26.3,45.2-26.3,45.2L169.8,118.1z"/>
			<linearGradient id="SVGID_3_" gradientUnits="userSpaceOnUse" x1="173.2204" y1="34.0144" x2="171.1779" y2="46.6295">
				<stop  offset="0" style="stop-color:#FFE926"/>
				<stop  offset="1" style="stop-color:#FFE926;stop-opacity:0.3"/>
			</linearGradient>
			<rect x="165.7" y="38.3" style="fill:url(#SVGID_3_);" width="13.1" height="2.9"/>
			<linearGradient id="SVGID_4_" gradientUnits="userSpaceOnUse" x1="132.6539" y1="67.6536" x2="177.8044" y2="67.6536">
				<stop  offset="0" style="stop-color:#D88600;stop-opacity:0.7047"/>
				<stop  offset="1" style="stop-color:#D88600;stop-opacity:0.4615"/>
			</linearGradient>
			<path style="fill:url(#SVGID_4_);" d="M177.8,55.5c-0.3-0.3-0.6-0.6-0.9-1c-7.8-8.2-12.1-12.4-12.4-13.8c0-0.2-0.1-0.5-0.2-1
				c-1.5,1.5-3.4,3.8-5.4,7.3c-5.2,8.8-26.3,45.2-26.3,45.2l2.6,1.8c2.2,0.9,3.8,1.5,3.8,1.5c5.6-11.6,8-17,11.4-17.9
				c3.4-1,7.3-8.7,9.2-15.8c1.9-7,3.4-12.8,5.6-10.7c1.4,1.4,8,8.5,12.5,13.4V55.5z"/>
			<linearGradient id="SVGID_5_" gradientUnits="userSpaceOnUse" x1="154.0963" y1="73.0361" x2="155.965" y2="34.5427">
				<stop  offset="0" style="stop-color:#FFA901"/>
				<stop  offset="1" style="stop-color:#FFC71E"/>
			</linearGradient>
			<path class="st4" d="M141.9,75.4c4.5,0,10.6,1,12.5-7.7s8.5-24.8,13.5-30.4c-8.1,0.1-12.2,9-14.1,12.8
				C151.8,54,141.9,75.4,141.9,75.4z"/>
			<linearGradient id="SVGID_6_" gradientUnits="userSpaceOnUse" x1="162.0251" y1="14.4115" x2="147.688" y2="102.9638">
				<stop  offset="0" style="stop-color:#FFE926"/>
				<stop  offset="1" style="stop-color:#FFE926;stop-opacity:0.3"/>
			</linearGradient>
			<path class="st5" d="M146.4,68.2c3.7-8,11.8-28.3,18.5-29.3c-4.3,5.7-7.8,11.2-11.3,18.3c-3.5,7.2-2.8,13.3-6.5,14.3"/>
		</g>
		<path class="st222" d="M16.4,74.8l-1.6,3.5c0,0,4.2,6.7,6.4,7.7c2.2,1,109.8,12.5,109.8,12.5l7.4-10.6l6.9-14L16.4,74.8z"/>
		<g>
			
				<rect x="192.4" y="94.8" transform="matrix(0.9631 -0.269 0.269 0.9631 -18.7032 58.0807)" class="st44" width="20.3" height="4.9"/>
			
				<linearGradient id="SVGID_7_" gradientUnits="userSpaceOnUse" x1="584.2385" y1="-443.2338" x2="619.7515" y2="-443.2338" gradientTransform="matrix(0.9631 -0.269 0.269 0.9631 -279.1313 691.8693)">
				<stop  offset="0" style="stop-color:#FFA901"/>
				<stop  offset="1" style="stop-color:#FFC71E"/>
			</linearGradient>
			<path style="fill:url(#SVGID_7_);stroke:#D88600;stroke-miterlimit:10;" d="M196.5,95.9c-0.1,0-0.2,0-0.2,0l-30,8.4
				c-1.5,0.4-2.4,2-2,3.5c0.4,1.5,2,2.4,3.5,2l30-8.4c0.1,0,0.2-0.1,0.2-0.1L196.5,95.9z"/>
			<linearGradient id="SVGID_8_" gradientUnits="userSpaceOnUse" x1="168.9596" y1="114.4839" x2="186.5546" y2="96.889">
				<stop  offset="0" style="stop-color:#D88600;stop-opacity:0.7047"/>
				<stop  offset="1" style="stop-color:#D88600;stop-opacity:0.4615"/>
			</linearGradient>
			<path style="fill:url(#SVGID_8_);" d="M194.4,102.4c0.1-1.8-2.6-3.9-4-4.8l-0.8,0.2c0,1.3-0.1,3.7-1.4,4.3
				c-1.7,0.7-12.2,4-12.7,2.5c-0.3-0.8-0.7-1.6-1.3-2.4l-7.9,2.2c-1.3,0.4-2.1,1.6-2.1,2.9c0.3,0.7,0.7,1.4,1.2,2.2
				c0.7,0.5,1.6,0.7,2.4,0.4L194.4,102.4z"/>
			
				<linearGradient id="SVGID_9_" gradientUnits="userSpaceOnUse" x1="572.8516" y1="-443.2341" x2="621.2925" y2="-443.2341" gradientTransform="matrix(0.9631 -0.269 0.269 0.9631 -279.1313 691.8693)">
				<stop  offset="0" style="stop-color:#FFA901"/>
				<stop  offset="1" style="stop-color:#FFC71E"/>
			</linearGradient>
			<path style="fill:url(#SVGID_9_);stroke:#D88600;stroke-miterlimit:10;" d="M197,94.7l-7.5,2.1l2.1,7.5l7.5-2.1
				c0.1,0,0.2-0.1,0.3-0.1l-2.1-7.5C197.2,94.6,197.1,94.6,197,94.7z"/>
		</g>
		<g>
			<g>
				<path class="st44" d="M166.2,96c-5.9-3.6-33.8-9.8-43.4-11.6c-2.3-0.4-5-0.9-7.8-0.9v0h-0.5c-0.3,0-0.6,0-0.9,0v0H21.3
					C9.5,83.5,0,93.1,0,104.8v3.1c0,11.7,9.5,21.3,21.3,21.3h92.4v0.2c18.1,0,39.1-0.1,44.5-0.4c12.1-0.8,17.2-10.9,17-17.8
					C175,104.8,171.8,99.4,166.2,96z"/>
				<path class="st34" d="M164.3,99.5c-5-3-30.9-9.7-41.8-11.7c-2.2-0.4-4.7-0.6-7.5-0.7v0h-0.6c-3.4-0.1-7,0-10.9,0v0H21.3
					c-9.8,0-17.7,7.9-17.7,17.7v3.1c0,9.8,7.9,17.7,17.7,17.7h93.6v-0.2c17.4,0,37.9-0.1,43.2-0.4c9.4-0.6,13.4-8.4,13.3-13.7
					C171.2,107.1,169.3,102.5,164.3,99.5z"/>
			</g>
			<g>
				<g>
					<linearGradient id="SVGID_10_" gradientUnits="userSpaceOnUse" x1="108.7773" y1="98.1225" x2="108.7773" y2="104.6415">
						<stop  offset="0" style="stop-color:#FFA901"/>
						<stop  offset="1" style="stop-color:#FFC71E"/>
					</linearGradient>
					<rect x="100" y="99.1" style="fill:url(#SVGID_10_);stroke:#D88600;stroke-miterlimit:10;" width="17.6" height="11.9"/>
					<g>
						<linearGradient id="SVGID_11_" gradientUnits="userSpaceOnUse" x1="67.5523" y1="103.0884" x2="67.5523" y2="89.3709">
							<stop  offset="0" style="stop-color:#FFA901"/>
							<stop  offset="1" style="stop-color:#FFC71E"/>
						</linearGradient>
						<rect x="65.4" y="87.1" style="fill:url(#SVGID_11_);stroke:#D88600;stroke-miterlimit:10;" width="4.2" height="30.2"/>
						<linearGradient id="SVGID_12_" gradientUnits="userSpaceOnUse" x1="108.7898" y1="103.0884" x2="108.7898" y2="89.3709">
							<stop  offset="0" style="stop-color:#FFA901"/>
							<stop  offset="1" style="stop-color:#FFC71E"/>
						</linearGradient>
						<rect x="106.7" y="87.1" class="st11" width="4.2" height="30.2"/>
					</g>
				</g>
				<radialGradient id="SVGID_13_" cx="22.1381" cy="106.2116" r="18.6057" gradientUnits="userSpaceOnUse">
					<stop  offset="0.7755" style="stop-color:#8F9998"/>
					<stop  offset="1" style="stop-color:#68706F"/>
				</radialGradient>
				<circle style="fill:url(#SVGID_13_);stroke:#3A4445;stroke-miterlimit:10;" cx="22.1" cy="106.2" r="18.6"/>
				<radialGradient id="SVGID_14_" cx="22.1381" cy="106.2117" r="15.0307" gradientUnits="userSpaceOnUse">
					<stop  offset="0.7755" style="stop-color:#8F9998"/>
					<stop  offset="1" style="stop-color:#68706F"/>
				</radialGradient>
				<circle style="fill:url(#SVGID_14_);stroke:#3A4445;stroke-miterlimit:10;" cx="22.1" cy="106.2" r="15"/>
				<circle class="st34" cx="22.1" cy="106.2" r="6.5"/>
				<g>
					<linearGradient id="SVGID_15_" gradientUnits="userSpaceOnUse" x1="42.2395" y1="119.3253" x2="48.8916" y2="119.3253">
						<stop  offset="0" style="stop-color:#68706F"/>
						<stop  offset="1" style="stop-color:#8F9998"/>
					</linearGradient>
					<rect x="42.2" y="114.8" style="fill:url(#SVGID_15_);stroke:#3A4445;stroke-miterlimit:10;" width="6.7" height="9"/>
					<linearGradient id="SVGID_16_" gradientUnits="userSpaceOnUse" x1="51.289" y1="119.3253" x2="57.9412" y2="119.3253">
						<stop  offset="0" style="stop-color:#68706F"/>
						<stop  offset="1" style="stop-color:#8F9998"/>
					</linearGradient>
					<rect x="51.3" y="114.8" style="fill:url(#SVGID_16_);stroke:#3A4445;stroke-miterlimit:10;" width="6.7" height="9"/>
					<linearGradient id="SVGID_17_" gradientUnits="userSpaceOnUse" x1="60.767" y1="119.3253" x2="67.4192" y2="119.3253">
						<stop  offset="0" style="stop-color:#68706F"/>
						<stop  offset="1" style="stop-color:#8F9998"/>
					</linearGradient>
					<rect x="60.8" y="114.8" style="fill:url(#SVGID_17_);stroke:#3A4445;stroke-miterlimit:10;" width="6.7" height="9"/>
					<linearGradient id="SVGID_18_" gradientUnits="userSpaceOnUse" x1="79.723" y1="119.3253" x2="86.3752" y2="119.3253">
						<stop  offset="0" style="stop-color:#68706F"/>
						<stop  offset="1" style="stop-color:#8F9998"/>
					</linearGradient>
					<rect x="79.7" y="114.8" style="fill:url(#SVGID_18_);stroke:#3A4445;stroke-miterlimit:10;" width="6.7" height="9"/>
					<linearGradient id="SVGID_19_" gradientUnits="userSpaceOnUse" x1="89.201" y1="119.3253" x2="95.8532" y2="119.3253">
						<stop  offset="0" style="stop-color:#68706F"/>
						<stop  offset="1" style="stop-color:#8F9998"/>
					</linearGradient>
					<rect x="89.2" y="114.8" style="fill:url(#SVGID_19_);stroke:#3A4445;stroke-miterlimit:10;" width="6.7" height="9"/>
					<linearGradient id="SVGID_20_" gradientUnits="userSpaceOnUse" x1="108.157" y1="119.3253" x2="114.8092" y2="119.3253">
						<stop  offset="0" style="stop-color:#68706F"/>
						<stop  offset="1" style="stop-color:#8F9998"/>
					</linearGradient>
					<rect x="108.2" y="114.8" style="fill:url(#SVGID_20_);stroke:#3A4445;stroke-miterlimit:10;" width="6.7" height="9"/>
					<linearGradient id="SVGID_21_" gradientUnits="userSpaceOnUse" x1="117.635" y1="119.3253" x2="124.2872" y2="119.3253">
						<stop  offset="0" style="stop-color:#68706F"/>
						<stop  offset="1" style="stop-color:#8F9998"/>
					</linearGradient>
					<rect x="117.6" y="114.8" class="st20" width="6.7" height="9"/>
					<linearGradient id="SVGID_22_" gradientUnits="userSpaceOnUse" x1="136.591" y1="119.3253" x2="143.2432" y2="119.3253">
						<stop  offset="0" style="stop-color:#68706F"/>
						<stop  offset="1" style="stop-color:#8F9998"/>
					</linearGradient>
					<rect x="136.6" y="114.8" class="st21" width="6.7" height="9"/>
					<linearGradient id="SVGID_23_" gradientUnits="userSpaceOnUse" x1="70.245" y1="119.3253" x2="76.8972" y2="119.3253">
						<stop  offset="0" style="stop-color:#68706F"/>
						<stop  offset="1" style="stop-color:#8F9998"/>
					</linearGradient>
					<rect x="70.2" y="114.8" class="st22" width="6.7" height="9"/>
					<linearGradient id="SVGID_24_" gradientUnits="userSpaceOnUse" x1="98.679" y1="119.3253" x2="105.3312" y2="119.3253">
						<stop  offset="0" style="stop-color:#68706F"/>
						<stop  offset="1" style="stop-color:#8F9998"/>
					</linearGradient>
					<rect x="98.7" y="114.8" class="st23" width="6.7" height="9"/>
					<linearGradient id="SVGID_25_" gradientUnits="userSpaceOnUse" x1="127.113" y1="119.3253" x2="133.7652" y2="119.3253">
						<stop  offset="0" style="stop-color:#68706F"/>
						<stop  offset="1" style="stop-color:#8F9998"/>
					</linearGradient>
					<rect x="127.1" y="114.8" class="st24" width="6.7" height="9"/>
				</g>
				<linearGradient id="SVGID_26_" gradientUnits="userSpaceOnUse" x1="42.2468" y1="111.1864" x2="160.2982" y2="111.1864">
					<stop  offset="0" style="stop-color:#FFA901"/>
					<stop  offset="1" style="stop-color:#FFC71E"/>
				</linearGradient>
				<rect x="42.2" y="102.2" style="fill:url(#SVGID_26_);stroke:#D88600;stroke-miterlimit:10;" width="118.1" height="18.1"/>
				<radialGradient id="SVGID_27_" cx="157.4794" cy="111.4097" r="13.0581" gradientUnits="userSpaceOnUse">
					<stop  offset="0.7755" style="stop-color:#8F9998"/>
					<stop  offset="1" style="stop-color:#68706F"/>
				</radialGradient>
				<circle class="st26" cx="157.5" cy="111.4" r="13.1"/>
				<radialGradient id="SVGID_28_" cx="157.4794" cy="111.4097" r="9.4461" gradientUnits="userSpaceOnUse">
					<stop  offset="0.7755" style="stop-color:#8F9998"/>
					<stop  offset="1" style="stop-color:#68706F"/>
				</radialGradient>
				<circle style="fill:url(#SVGID_28_);stroke:#3A4445;stroke-miterlimit:10;" cx="157.5" cy="111.4" r="9.4"/>
				<circle class="st34" cx="157.5" cy="111.4" r="4"/>
				<linearGradient id="SVGID_29_" gradientUnits="userSpaceOnUse" x1="44.7009" y1="110.8741" x2="56.7004" y2="110.8741">
					<stop  offset="0" style="stop-color:#FFA901"/>
					<stop  offset="1" style="stop-color:#FFC71E"/>
				</linearGradient>
				<circle style="fill:url(#SVGID_29_);stroke:#D88600;stroke-miterlimit:10;" cx="50.7" cy="110.9" r="6"/>
				<linearGradient id="SVGID_30_" gradientUnits="userSpaceOnUse" x1="52.299" y1="103.2825" x2="50.305" y2="115.5978">
					<stop  offset="0" style="stop-color:#FFE926"/>
					<stop  offset="1" style="stop-color:#FFE926;stop-opacity:0.3"/>
				</linearGradient>
				<path class="st29" d="M55.1,111.2c-0.6,1.9-1.7-0.6-3.9-1.2c-2.2-0.6-4.5,0.8-4-1.1c0.6-1.9,2.8-2.9,4.9-2.3
					C54.4,107.3,55.7,109.3,55.1,111.2z"/>
			</g>
		</g>
		<g>
			<g>
				<linearGradient id="SVGID_31_" gradientUnits="userSpaceOnUse" x1="64.1214" y1="66.0641" x2="67.2549" y2="1.5163">
					<stop  offset="0" style="stop-color:#FFA901"/>
					<stop  offset="1" style="stop-color:#FFC71E"/>
				</linearGradient>
				<path style="fill:url(#SVGID_31_);stroke:#D88600;stroke-miterlimit:10;" d="M32,7.8c-1,6.3-5.1,32.8-5.1,42.1
					C44.4,61.1,63.3,71,64.2,71s30.4-1.5,30.4-1.5s3.3-6.3,4.5-11.4c1.2-5.1,6.3-11.1,3-21.4C98.8,26.5,90.7,6.3,90.7,6.3L32,7.8z"
					/>
				<linearGradient id="SVGID_32_" gradientUnits="userSpaceOnUse" x1="30.9411" y1="10.5237" x2="93.6386" y2="10.5237">
					<stop  offset="0" style="stop-color:#D88600;stop-opacity:0.7047"/>
					<stop  offset="1" style="stop-color:#D88600;stop-opacity:0.4615"/>
				</linearGradient>
				<path style="fill:url(#SVGID_32_);" d="M90.7,6.3L32,7.8c-0.2,1.4-0.6,3.8-1.1,6.9c2.6-2.3,4.9-2.8,11.2-3
					c7.8-0.2,27.2-0.3,31.8-0.2c4.3,0.2,16,0.9,19.7,2.1C91.9,9.4,90.7,6.3,90.7,6.3z"/>
				<linearGradient id="SVGID_33_" gradientUnits="userSpaceOnUse" x1="49.5567" y1="68.9617" x2="86.8542" y2="-12.8523">
					<stop  offset="0" style="stop-color:#9BCDCE"/>
					<stop  offset="1" style="stop-color:#C0FEFF"/>
				</linearGradient>
				<path class="st32" d="M65.4,13.6c0,0,0.3,17.7,0.3,23.2c0,5.5-1.9,6.2-3,6.2c-1.1,0-19.6,0-22.4,0c-2.8,0-6.4,0.6-7.5-2.8
					c-1.1-3.4,3.6-25.6,4.3-26.8L65.4,13.6z M74.5,53.3c0.5,8.4,15.3,6.3,18.1,3.1c2.8-3.2,4-10.6,2.3-17.5
					c-1.7-6.8-10.4-25.3-10.4-25.3H73.3C73.3,13.6,73.9,42.2,74.5,53.3z"/>
				<path class="st102" d="M38.3,14.7c6,0.2,25.2,0.4,25.2,0.4s0.6,15.8,0.4,19.6c-0.2,3.8,0,5.4-1.6,6.4c1.1-7.5,1.7-23.8-2.5-24
					C39.5,16,38.3,14.7,38.3,14.7z"/>
				<g>
					<linearGradient id="SVGID_34_" gradientUnits="userSpaceOnUse" x1="32.7962" y1="34.5965" x2="65.7341" y2="34.5965">
						<stop  offset="0" style="stop-color:#3A4445;stop-opacity:0.2"/>
						<stop  offset="1" style="stop-color:#3A4445;stop-opacity:0.2"/>
					</linearGradient>
					<path style="fill:url(#SVGID_34_);" d="M65.7,37.6c-1.4,0.1-2.8,0.2-4.2,0.2c-6.7,0.2-3.6-4-4-9.4s-5.7,0.2-6.7,5.9
						c-0.8,4.2-8.5,3.8-18,2.2c-0.1,1.7-0.2,3.1,0,3.7c1.1,3.4,4.7,2.8,7.5,2.8c2.8,0,21.3,0,22.4,0C63.8,43,65.6,42.4,65.7,37.6z"
						/>
					<linearGradient id="SVGID_35_" gradientUnits="userSpaceOnUse" x1="73.876" y1="48.523" x2="95.6986" y2="48.523">
						<stop  offset="0" style="stop-color:#3A4445;stop-opacity:0.2"/>
						<stop  offset="1" style="stop-color:#3A4445;stop-opacity:0.2"/>
					</linearGradient>
					<path style="fill:url(#SVGID_35_);" d="M74.5,53.3c0.5,8.4,15.3,6.3,18.1,3.1c2.8-3.2,4-10.6,2.3-17.5c0-0.2-0.1-0.3-0.1-0.5
						c-1.9,0.3-4.3,1.1-5.8,3.1c-2.7,3.6-8.8,2.9-11.5-1.3c-0.9-1.3-2.1-2.1-3.6-2.5C74.1,43.8,74.3,49.6,74.5,53.3z"/>
				</g>
				<path class="st102" d="M74.7,14.8c5-0.1,9.1-0.1,9.1-0.1s4.7,9.4,7.6,17.2c2.9,7.8,4.6,13.5,2.9,18.5c-1.7,5-3,6.3-7.1,7.3
					c3.5-2.2,6.5-7.8,6.6-11.5c0.1-3.7-3.7-14.3-5.7-18.7s-5.3-11.2-5.3-11.2L74.7,14.8z"/>
				<linearGradient id="SVGID_36_" gradientUnits="userSpaceOnUse" x1="69.5669" y1="65.6835" x2="72.5249" y2="4.7484">
					<stop  offset="0" style="stop-color:#FFA901"/>
					<stop  offset="1" style="stop-color:#FFC71E"/>
				</linearGradient>
				<path class="st36" d="M70.8,8.1c0,9.6,0,62.3,0,62.3"/>
				<linearGradient id="SVGID_37_" gradientUnits="userSpaceOnUse" x1="61.7804" y1="10.6001" x2="62.3169" y2="-0.4513">
					<stop  offset="0" style="stop-color:#FFA901"/>
					<stop  offset="1" style="stop-color:#FFC71E"/>
				</linearGradient>
				<path class="st37" d="M32.5,1.5c-0.9,1.7-1.3,8.5-1.3,8.5h61.1c0,0-2.8-7.7-3.8-8.5C80.2,1.5,32.5,1.5,32.5,1.5z"/>
				<linearGradient id="SVGID_38_" gradientUnits="userSpaceOnUse" x1="33.0292" y1="3.7945" x2="89.4587" y2="3.7945">
					<stop  offset="0" style="stop-color:#FFE926"/>
					<stop  offset="1" style="stop-color:#FFE926;stop-opacity:0.3"/>
				</linearGradient>
				<polygon class="st38" points="33,5.2 33.4,2.3 88,2.4 89.5,5.2 				"/>
			</g>
			<linearGradient id="SVGID_39_" gradientUnits="userSpaceOnUse" x1="38.3279" y1="69.9405" x2="39.5208" y2="45.3677">
				<stop  offset="0" style="stop-color:#FFA901"/>
				<stop  offset="1" style="stop-color:#FFC71E"/>
			</linearGradient>
			<path style="fill:url(#SVGID_39_);stroke:#D88600;stroke-miterlimit:10;" d="M68.9,70.5c0-7,0-14.1,0-16.6c0-2.6-1.3-6-6.8-6
				c-5.5,0-34.3,0-37.7,0s-6.1,3.9-8.7,6.6c-2.7,2.7-7,8.7-7.5,9.4c-0.4,0.6-1.1,6.6,1.7,6.6C12.7,70.5,68.9,70.5,68.9,70.5z"/>
			<linearGradient id="SVGID_40_" gradientUnits="userSpaceOnUse" x1="12.963" y1="56.5671" x2="67.4183" y2="56.5671">
				<stop  offset="0" style="stop-color:#FFE926"/>
				<stop  offset="1" style="stop-color:#FFE926;stop-opacity:0.3"/>
			</linearGradient>
			<path style="fill:url(#SVGID_40_);" d="M13,60c4.7-6.2,8.9-10.2,11.3-10.6c2.4-0.4,25.1-0.1,30.1-0.3c5-0.1,8.9-0.4,10.4,0.5
				c1.5,0.9,2.7,2.7,2.7,6.5s-0.3,8.1-0.3,8.1s0.4-9.9-1.7-11.8c-2.2-1.9-6.6-2.3-12.9-2.3c-6.3,0-14.2,0.1-20.4,0
				C25,49.9,19.4,54.5,13,60z"/>
			<linearGradient id="SVGID_41_" gradientUnits="userSpaceOnUse" x1="57.8813" y1="61.3981" x2="58.349" y2="51.7624">
				<stop  offset="0" style="stop-color:#D88600;stop-opacity:0.7047"/>
				<stop  offset="1" style="stop-color:#D88600;stop-opacity:0.4615"/>
			</linearGradient>
			<rect x="52.6" y="52.6" style="fill:url(#SVGID_41_);" width="11" height="9.3"/>
			<linearGradient id="SVGID_42_" gradientUnits="userSpaceOnUse" x1="57.9331" y1="59.0796" x2="58.2812" y2="51.9089">
				<stop  offset="0" style="stop-color:#FFA901"/>
				<stop  offset="1" style="stop-color:#FFC71E"/>
			</linearGradient>
			<rect x="52.8" y="52.6" style="fill:url(#SVGID_42_);stroke:#D88600;stroke-miterlimit:10;" width="10.6" height="6.8"/>
			<linearGradient id="SVGID_43_" gradientUnits="userSpaceOnUse" x1="122.0216" y1="74.7687" x2="122.3373" y2="68.2657">
				<stop  offset="0" style="stop-color:#FFA901"/>
				<stop  offset="1" style="stop-color:#FFC71E"/>
			</linearGradient>
			<rect x="99.1" y="69.7" style="fill:url(#SVGID_43_);stroke:#D88600;stroke-miterlimit:10;" width="46" height="4.4"/>
			<linearGradient id="SVGID_44_" gradientUnits="userSpaceOnUse" x1="54.6815" y1="79.4864" x2="55.3086" y2="66.5683">
				<stop  offset="0" style="stop-color:#FFA901"/>
				<stop  offset="1" style="stop-color:#FFC71E"/>
			</linearGradient>
			<polygon style="fill:url(#SVGID_44_);stroke:#D88600;stroke-miterlimit:10;" points="8.4,69.5 101.4,69.5 101.4,78.6 15.4,78.6 
							"/>
			<linearGradient id="SVGID_45_" gradientUnits="userSpaceOnUse" x1="10.2589" y1="71.31" x2="100.4941" y2="71.31">
				<stop  offset="0" style="stop-color:#FFE926"/>
				<stop  offset="1" style="stop-color:#FFE926;stop-opacity:0.3"/>
			</linearGradient>
			<polygon style="fill:url(#SVGID_45_);" points="10.3,70.5 13.3,72.2 100.2,72.2 100.5,70.7 			"/>
		</g>
		<g>
			<rect x="200.4" y="112.8" class="st44" width="12.5" height="5.5"/>
			<linearGradient id="SVGID_46_" gradientUnits="userSpaceOnUse" x1="71.751" y1="115.398" x2="210.3573" y2="115.398">
				<stop  offset="0" style="stop-color:#FFA901"/>
				<stop  offset="1" style="stop-color:#FFC71E"/>
			</linearGradient>
			<path class="st47" d="M205.4,111.1c-0.1,0-0.2,0-0.4,0H76.1c-2.4,0-4.4,2-4.4,4.4s2,4.4,4.4,4.4H205c0.1,0,0.2,0,0.4,0V111.1z"/>
			<linearGradient id="SVGID_47_" gradientUnits="userSpaceOnUse" x1="138.5737" y1="119.8987" x2="138.5737" y2="114.7294">
				<stop  offset="0" style="stop-color:#D88600;stop-opacity:0.7047"/>
				<stop  offset="1" style="stop-color:#D88600;stop-opacity:0.4615"/>
			</linearGradient>
			<path style="fill:url(#SVGID_47_);" d="M205.4,119.7v-4c-14.6,0.2-109.2,0.3-120,0.3c-10.5,0-12.2,0.6-13.1-2.9
				c-0.4,0.7-0.6,1.4-0.6,2.2c0,2.4,2,4.4,4.4,4.4H205C205.2,119.8,205.3,119.7,205.4,119.7z"/>
			<linearGradient id="SVGID_48_" gradientUnits="userSpaceOnUse" x1="73.9956" y1="115.398" x2="79.4825" y2="115.398">
				<stop  offset="0" style="stop-color:#FFA901"/>
				<stop  offset="1" style="stop-color:#FFC71E"/>
			</linearGradient>
			<circle class="st49" cx="76.7" cy="115.4" r="2.7"/>
		</g>
		<g>
			
				<rect x="180.3" y="78.4" transform="matrix(0.6772 0.7358 -0.7358 0.6772 123.3272 -120.7804)" class="st44" width="38.1" height="3.5"/>
			<linearGradient id="SVGID_49_" gradientUnits="userSpaceOnUse" x1="167.0715" y1="48.1555" x2="169.8734" y2="45.5587">
				<stop  offset="0" style="stop-color:#FFA901"/>
				<stop  offset="1" style="stop-color:#FFC71E"/>
			</linearGradient>
			<path class="st50" d="M190.2,67.2c0,0-0.1-0.1-0.1-0.1L151.4,25c-0.8-0.8-2-0.9-2.9-0.1c-0.8,0.8-0.9,2-0.1,2.9l38.7,42.1
				c0,0,0.1,0.1,0.1,0.1L190.2,67.2z"/>
			<linearGradient id="SVGID_50_" gradientUnits="userSpaceOnUse" x1="166.7597" y1="45.7683" x2="168.705" y2="43.8231">
				<stop  offset="0" style="stop-color:#FFE926"/>
				<stop  offset="1" style="stop-color:#FFE926;stop-opacity:0.3"/>
			</linearGradient>
			<path class="st51" d="M149.1,25.4c1.1-0.9,1.3-0.3,2.4,1c1.1,1.3,34.9,37.7,34.9,37.7l-0.9,0.3l-35.1-37.9
				C150.5,26.5,150,25.6,149.1,25.4z"/>
			<linearGradient id="SVGID_51_" gradientUnits="userSpaceOnUse" x1="185.1197" y1="69.2173" x2="188.9684" y2="65.3686">
				<stop  offset="0" style="stop-color:#FFA901"/>
				<stop  offset="1" style="stop-color:#FFC71E"/>
			</linearGradient>
			<path class="st52" d="M191.1,67.1l-3.7-4l-4.1,3.8l3.7,4c0.1,0.1,0.1,0.1,0.2,0.2l4-3.7C191.2,67.2,191.2,67.1,191.1,67.1z"/>
		</g>
		<g>
			<linearGradient id="SVGID_52_" gradientUnits="userSpaceOnUse" x1="211.3161" y1="114.1689" x2="226.6127" y2="114.1689">
				<stop  offset="0" style="stop-color:#FFA901"/>
				<stop  offset="1" style="stop-color:#FFC71E"/>
			</linearGradient>
			<ellipse style="fill:url(#SVGID_52_);stroke:#D88600;stroke-miterlimit:10;" cx="218.7" cy="114.2" rx="7.4" ry="6.8"/>
			<path class="st44" d="M224.9,91.1c0,0,3-0.8,2.7,0.1s2,23.6,2,23.6l13,13.3l-16.6-7.2c0,0-5.1-10.5-5.1-12
				C220.9,107.4,224.9,91.1,224.9,91.1z"/>
			<linearGradient id="SVGID_53_" gradientUnits="userSpaceOnUse" x1="212.1997" y1="98.504" x2="244.3739" y2="98.504">
				<stop  offset="0" style="stop-color:#FFA901"/>
				<stop  offset="1" style="stop-color:#FFC71E"/>
			</linearGradient>
			<path class="st54" d="M215.2,98.7c-0.3,13.5,1.2,20.8,1.2,20.8s11.7,7.2,15.7,8.4c3.9,1.2,11.1,1.8,11.1,1.8l-19-13.8
				c0,0-0.3-19-0.3-21.4c2.1,0.6,2.1,0.6,2.1,0.6s0.3-19.6,0-22.6c-0.3-3-0.9-5.4-6.3-5.1c-5.4,0.3-7.2,5.1-7.5,11.4
				C211.9,85.1,215.2,98.7,215.2,98.7z"/>
			<linearGradient id="SVGID_54_" gradientUnits="userSpaceOnUse" x1="229.5511" y1="66.0823" x2="215.5566" y2="90.1771">
				<stop  offset="0" style="stop-color:#FFE926"/>
				<stop  offset="1" style="stop-color:#FFE926;stop-opacity:0.3"/>
			</linearGradient>
			<path class="st55" d="M215,71.6c2.1-3.4,6-3.9,7.8-3.1s2.2,2.8,2.2,6.6s0,18.5,0,18.5l-2-0.1c0,0,1.1-20.4-2.4-22.1
				S215,71.6,215,71.6z"/>
			<linearGradient id="SVGID_55_" gradientUnits="userSpaceOnUse" x1="203.437" y1="93.523" x2="221.5982" y2="93.523">
				<stop  offset="0" style="stop-color:#FFA901"/>
				<stop  offset="1" style="stop-color:#FFC71E"/>
			</linearGradient>
			<path class="st56" d="M217,79.7c1.6-0.7,1.2,4.8,1.2,9c0,4.2,0,14.1,0,14.1h2.7v4.5h-5.7c0,0-8.7-11.7-11.1-14.7
				S205.9,84.2,217,79.7z"/>
			<linearGradient id="SVGID_56_" gradientUnits="userSpaceOnUse" x1="224.2994" y1="78.89" x2="209.9243" y2="103.64">
				<stop  offset="0" style="stop-color:#FFE926"/>
				<stop  offset="1" style="stop-color:#FFE926;stop-opacity:0.3"/>
			</linearGradient>
			<path class="st57" d="M209,85.1c2.8-2,6.5-3.9,7.7-4.2c0.4,0.6,0.2,21.7,0.2,21.7l0.7,1l2.6,0.1l-0.1,2.4l-3.4,0.4L209,85.1z"/>
		</g>
	</g>
</g>
</svg>
